ISO-10303-21;
HEADER;
FILE_DESCRIPTION(('FreeCAD Model'),'2;1');
FILE_NAME('Open CASCADE Shape Model','2026-08-25T19:37:59',('Author'),(
    ''),'Open CASCADE STEP processor 7.8','FreeCAD','Unknown');
FILE_SCHEMA(('AUTOMOTIVE_DESIGN { 1 0 10303 214 1 1 1 1 }'));
ENDSEC;
DATA;
#1 = APPLICATION_PROTOCOL_DEFINITION('international standard',
  'automotive_design',2000,#2);
#2 = APPLICATION_CONTEXT(
  'core data for automotive mechanical design processes');
#3 = SHAPE_DEFINITION_REPRESENTATION(#4,#10);
#4 = PRODUCT_DEFINITION_SHAPE('','',#5);
#5 = PRODUCT_DEFINITION('design','',#6,#9);
#6 = PRODUCT_DEFINITION_FORMATION('','',#7);
#7 = PRODUCT('Aplus_outer_cheek_7075T6','Aplus_outer_cheek_7075T6','',(
    #8));
#8 = PRODUCT_CONTEXT('',#2,'mechanical');
#9 = PRODUCT_DEFINITION_CONTEXT('part definition',#2,'design');
#10 = ADVANCED_BREP_SHAPE_REPRESENTATION('',(#11,#15),#361);
#11 = AXIS2_PLACEMENT_3D('',#12,#13,#14);
#12 = CARTESIAN_POINT('',(0.,0.,0.));
#13 = DIRECTION('',(0.,0.,1.));
#14 = DIRECTION('',(1.,0.,-0.));
#15 = MANIFOLD_SOLID_BREP('',#16);
#16 = CLOSED_SHELL('',(#17,#57,#150,#185,#262,#281,#298,#310,#327,#344)
  );
#17 = ADVANCED_FACE('',(#18),#52,.T.);
#18 = FACE_BOUND('',#19,.T.);
#19 = EDGE_LOOP('',(#20,#30,#38,#46));
#20 = ORIENTED_EDGE('',*,*,#21,.F.);
#21 = EDGE_CURVE('',#22,#24,#26,.T.);
#22 = VERTEX_POINT('',#23);
#23 = CARTESIAN_POINT('',(0.,8.54035724771E-02,13.999739505784));
#24 = VERTEX_POINT('',#25);
#25 = CARTESIAN_POINT('',(0.,16.490830380982,48.047459096369));
#26 = LINE('',#27,#28);
#27 = CARTESIAN_POINT('',(0.,-5.405260179012,2.604450498125));
#28 = VECTOR('',#29,1.);
#29 = DIRECTION('',(0.,0.434075083021,0.900876696502));
#30 = ORIENTED_EDGE('',*,*,#31,.T.);
#31 = EDGE_CURVE('',#22,#32,#34,.T.);
#32 = VERTEX_POINT('',#33);
#33 = CARTESIAN_POINT('',(5.,8.54035724771E-02,13.999739505784));
#34 = LINE('',#35,#36);
#35 = CARTESIAN_POINT('',(0.,8.540357247727E-02,13.999739505784));
#36 = VECTOR('',#37,1.);
#37 = DIRECTION('',(1.,0.,0.));
#38 = ORIENTED_EDGE('',*,*,#39,.T.);
#39 = EDGE_CURVE('',#32,#40,#42,.T.);
#40 = VERTEX_POINT('',#41);
#41 = CARTESIAN_POINT('',(5.,16.490830380982,48.047459096369));
#42 = LINE('',#43,#44);
#43 = CARTESIAN_POINT('',(5.,-5.405260179012,2.604450498125));
#44 = VECTOR('',#45,1.);
#45 = DIRECTION('',(0.,0.434075083021,0.900876696502));
#46 = ORIENTED_EDGE('',*,*,#47,.F.);
#47 = EDGE_CURVE('',#24,#40,#48,.T.);
#48 = LINE('',#49,#50);
#49 = CARTESIAN_POINT('',(0.,16.490830380982,48.047459096369));
#50 = VECTOR('',#51,1.);
#51 = DIRECTION('',(1.,0.,0.));
#52 = PLANE('',#53);
#53 = AXIS2_PLACEMENT_3D('',#54,#55,#56);
#54 = CARTESIAN_POINT('',(0.,-5.405260179012,2.604450498125));
#55 = DIRECTION('',(0.,-0.900876696502,0.434075083021));
#56 = DIRECTION('',(0.,0.434075083021,0.900876696502));
#57 = ADVANCED_FACE('',(#58,#112,#123,#134),#145,.T.);
#58 = FACE_BOUND('',#59,.T.);
#59 = EDGE_LOOP('',(#60,#71,#78,#79,#88,#97,#105));
#60 = ORIENTED_EDGE('',*,*,#61,.F.);
#61 = EDGE_CURVE('',#62,#64,#66,.T.);
#62 = VERTEX_POINT('',#63);
#63 = CARTESIAN_POINT('',(0.,3.429011037613E-15,14.));
#64 = VERTEX_POINT('',#65);
#65 = CARTESIAN_POINT('',(0.,12.492832274179,6.318951002281));
#66 = CIRCLE('',#67,14.);
#67 = AXIS2_PLACEMENT_3D('',#68,#69,#70);
#68 = CARTESIAN_POINT('',(0.,0.,0.));
#69 = DIRECTION('',(1.,0.,0.));
#70 = DIRECTION('',(-0.,0.,1.));
#71 = ORIENTED_EDGE('',*,*,#72,.F.);
#72 = EDGE_CURVE('',#22,#62,#73,.T.);
#73 = CIRCLE('',#74,14.);
#74 = AXIS2_PLACEMENT_3D('',#75,#76,#77);
#75 = CARTESIAN_POINT('',(0.,0.,0.));
#76 = DIRECTION('',(1.,0.,0.));
#77 = DIRECTION('',(-0.,0.,1.));
#78 = ORIENTED_EDGE('',*,*,#21,.T.);
#79 = ORIENTED_EDGE('',*,*,#80,.F.);
#80 = EDGE_CURVE('',#81,#24,#83,.T.);
#81 = VERTEX_POINT('',#82);
#82 = CARTESIAN_POINT('',(0.,24.193,58.21));
#83 = CIRCLE('',#84,8.);
#84 = AXIS2_PLACEMENT_3D('',#85,#86,#87);
#85 = CARTESIAN_POINT('',(0.,24.193,50.21));
#86 = DIRECTION('',(1.,0.,0.));
#87 = DIRECTION('',(-0.,0.,1.));
#88 = ORIENTED_EDGE('',*,*,#89,.F.);
#89 = EDGE_CURVE('',#90,#81,#92,.T.);
#90 = VERTEX_POINT('',#91);
#91 = CARTESIAN_POINT('',(0.,27.301350739007,42.838558100119));
#92 = CIRCLE('',#93,8.);
#93 = AXIS2_PLACEMENT_3D('',#94,#95,#96);
#94 = CARTESIAN_POINT('',(0.,24.193,50.21));
#95 = DIRECTION('',(1.,0.,0.));
#96 = DIRECTION('',(-0.,0.,1.));
#97 = ORIENTED_EDGE('',*,*,#98,.T.);
#98 = EDGE_CURVE('',#90,#99,#101,.T.);
#99 = VERTEX_POINT('',#100);
#100 = CARTESIAN_POINT('',(0.,15.511018085792,18.368975885516));
#101 = LINE('',#102,#103);
#102 = CARTESIAN_POINT('',(0.,29.598260179012,47.605549501875));
#103 = VECTOR('',#104,1.);
#104 = DIRECTION('',(0.,-0.434075083021,-0.900876696502));
#105 = ORIENTED_EDGE('',*,*,#106,.F.);
#106 = EDGE_CURVE('',#64,#99,#107,.T.);
#107 = CIRCLE('',#108,8.);
#108 = AXIS2_PLACEMENT_3D('',#109,#110,#111);
#109 = CARTESIAN_POINT('',(0.,9.111,13.569));
#110 = DIRECTION('',(1.,0.,0.));
#111 = DIRECTION('',(-0.,0.,1.));
#112 = FACE_BOUND('',#113,.T.);
#113 = EDGE_LOOP('',(#114));
#114 = ORIENTED_EDGE('',*,*,#115,.T.);
#115 = EDGE_CURVE('',#116,#116,#118,.T.);
#116 = VERTEX_POINT('',#117);
#117 = CARTESIAN_POINT('',(0.,24.193,52.36));
#118 = CIRCLE('',#119,2.15);
#119 = AXIS2_PLACEMENT_3D('',#120,#121,#122);
#120 = CARTESIAN_POINT('',(0.,24.193,50.21));
#121 = DIRECTION('',(1.,0.,0.));
#122 = DIRECTION('',(-0.,0.,1.));
#123 = FACE_BOUND('',#124,.T.);
#124 = EDGE_LOOP('',(#125));
#125 = ORIENTED_EDGE('',*,*,#126,.T.);
#126 = EDGE_CURVE('',#127,#127,#129,.T.);
#127 = VERTEX_POINT('',#128);
#128 = CARTESIAN_POINT('',(0.,9.111,15.719));
#129 = CIRCLE('',#130,2.15);
#130 = AXIS2_PLACEMENT_3D('',#131,#132,#133);
#131 = CARTESIAN_POINT('',(0.,9.111,13.569));
#132 = DIRECTION('',(1.,0.,0.));
#133 = DIRECTION('',(-0.,0.,1.));
#134 = FACE_BOUND('',#135,.T.);
#135 = EDGE_LOOP('',(#136));
#136 = ORIENTED_EDGE('',*,*,#137,.T.);
#137 = EDGE_CURVE('',#138,#138,#140,.T.);
#138 = VERTEX_POINT('',#139);
#139 = CARTESIAN_POINT('',(0.,6.245698675652E-16,2.55));
#140 = CIRCLE('',#141,2.55);
#141 = AXIS2_PLACEMENT_3D('',#142,#143,#144);
#142 = CARTESIAN_POINT('',(0.,0.,0.));
#143 = DIRECTION('',(1.,0.,0.));
#144 = DIRECTION('',(-0.,0.,1.));
#145 = PLANE('',#146);
#146 = AXIS2_PLACEMENT_3D('',#147,#148,#149);
#147 = CARTESIAN_POINT('',(0.,10.869654687593,22.016211705062));
#148 = DIRECTION('',(-1.,-0.,-0.));
#149 = DIRECTION('',(0.,0.,-1.));
#150 = ADVANCED_FACE('',(#151),#180,.T.);
#151 = FACE_BOUND('',#152,.T.);
#152 = EDGE_LOOP('',(#153,#164,#170,#171,#172,#173));
#153 = ORIENTED_EDGE('',*,*,#154,.F.);
#154 = EDGE_CURVE('',#155,#157,#159,.T.);
#155 = VERTEX_POINT('',#156);
#156 = CARTESIAN_POINT('',(5.,27.301350739007,42.838558100119));
#157 = VERTEX_POINT('',#158);
#158 = CARTESIAN_POINT('',(5.,24.193,58.21));
#159 = CIRCLE('',#160,8.);
#160 = AXIS2_PLACEMENT_3D('',#161,#162,#163);
#161 = CARTESIAN_POINT('',(5.,24.193,50.21));
#162 = DIRECTION('',(1.,0.,0.));
#163 = DIRECTION('',(-0.,0.,1.));
#164 = ORIENTED_EDGE('',*,*,#165,.F.);
#165 = EDGE_CURVE('',#90,#155,#166,.T.);
#166 = LINE('',#167,#168);
#167 = CARTESIAN_POINT('',(0.,27.301350739007,42.838558100119));
#168 = VECTOR('',#169,1.);
#169 = DIRECTION('',(1.,0.,0.));
#170 = ORIENTED_EDGE('',*,*,#89,.T.);
#171 = ORIENTED_EDGE('',*,*,#80,.T.);
#172 = ORIENTED_EDGE('',*,*,#47,.T.);
#173 = ORIENTED_EDGE('',*,*,#174,.F.);
#174 = EDGE_CURVE('',#157,#40,#175,.T.);
#175 = CIRCLE('',#176,8.);
#176 = AXIS2_PLACEMENT_3D('',#177,#178,#179);
#177 = CARTESIAN_POINT('',(5.,24.193,50.21));
#178 = DIRECTION('',(1.,0.,0.));
#179 = DIRECTION('',(-0.,0.,1.));
#180 = CYLINDRICAL_SURFACE('',#181,8.);
#181 = AXIS2_PLACEMENT_3D('',#182,#183,#184);
#182 = CARTESIAN_POINT('',(0.,24.193,50.21));
#183 = DIRECTION('',(1.,0.,0.));
#184 = DIRECTION('',(-0.,0.,1.));
#185 = ADVANCED_FACE('',(#186,#224,#235,#246),#257,.T.);
#186 = FACE_BOUND('',#187,.T.);
#187 = EDGE_LOOP('',(#188,#199,#208,#214,#215,#216,#217));
#188 = ORIENTED_EDGE('',*,*,#189,.T.);
#189 = EDGE_CURVE('',#190,#192,#194,.T.);
#190 = VERTEX_POINT('',#191);
#191 = CARTESIAN_POINT('',(5.,3.429011037613E-15,14.));
#192 = VERTEX_POINT('',#193);
#193 = CARTESIAN_POINT('',(5.,12.492832274179,6.318951002281));
#194 = CIRCLE('',#195,14.);
#195 = AXIS2_PLACEMENT_3D('',#196,#197,#198);
#196 = CARTESIAN_POINT('',(5.,0.,0.));
#197 = DIRECTION('',(1.,0.,0.));
#198 = DIRECTION('',(-0.,0.,1.));
#199 = ORIENTED_EDGE('',*,*,#200,.T.);
#200 = EDGE_CURVE('',#192,#201,#203,.T.);
#201 = VERTEX_POINT('',#202);
#202 = CARTESIAN_POINT('',(5.,15.511018085792,18.368975885516));
#203 = CIRCLE('',#204,8.);
#204 = AXIS2_PLACEMENT_3D('',#205,#206,#207);
#205 = CARTESIAN_POINT('',(5.,9.111,13.569));
#206 = DIRECTION('',(1.,0.,0.));
#207 = DIRECTION('',(-0.,0.,1.));
#208 = ORIENTED_EDGE('',*,*,#209,.F.);
#209 = EDGE_CURVE('',#155,#201,#210,.T.);
#210 = LINE('',#211,#212);
#211 = CARTESIAN_POINT('',(5.,29.598260179012,47.605549501875));
#212 = VECTOR('',#213,1.);
#213 = DIRECTION('',(0.,-0.434075083021,-0.900876696502));
#214 = ORIENTED_EDGE('',*,*,#154,.T.);
#215 = ORIENTED_EDGE('',*,*,#174,.T.);
#216 = ORIENTED_EDGE('',*,*,#39,.F.);
#217 = ORIENTED_EDGE('',*,*,#218,.T.);
#218 = EDGE_CURVE('',#32,#190,#219,.T.);
#219 = CIRCLE('',#220,14.);
#220 = AXIS2_PLACEMENT_3D('',#221,#222,#223);
#221 = CARTESIAN_POINT('',(5.,0.,0.));
#222 = DIRECTION('',(1.,0.,0.));
#223 = DIRECTION('',(-0.,0.,1.));
#224 = FACE_BOUND('',#225,.T.);
#225 = EDGE_LOOP('',(#226));
#226 = ORIENTED_EDGE('',*,*,#227,.F.);
#227 = EDGE_CURVE('',#228,#228,#230,.T.);
#228 = VERTEX_POINT('',#229);
#229 = CARTESIAN_POINT('',(5.,24.193,52.36));
#230 = CIRCLE('',#231,2.15);
#231 = AXIS2_PLACEMENT_3D('',#232,#233,#234);
#232 = CARTESIAN_POINT('',(5.,24.193,50.21));
#233 = DIRECTION('',(1.,0.,0.));
#234 = DIRECTION('',(-0.,0.,1.));
#235 = FACE_BOUND('',#236,.T.);
#236 = EDGE_LOOP('',(#237));
#237 = ORIENTED_EDGE('',*,*,#238,.F.);
#238 = EDGE_CURVE('',#239,#239,#241,.T.);
#239 = VERTEX_POINT('',#240);
#240 = CARTESIAN_POINT('',(5.,9.111,15.719));
#241 = CIRCLE('',#242,2.15);
#242 = AXIS2_PLACEMENT_3D('',#243,#244,#245);
#243 = CARTESIAN_POINT('',(5.,9.111,13.569));
#244 = DIRECTION('',(1.,0.,0.));
#245 = DIRECTION('',(-0.,0.,1.));
#246 = FACE_BOUND('',#247,.T.);
#247 = EDGE_LOOP('',(#248));
#248 = ORIENTED_EDGE('',*,*,#249,.F.);
#249 = EDGE_CURVE('',#250,#250,#252,.T.);
#250 = VERTEX_POINT('',#251);
#251 = CARTESIAN_POINT('',(5.,6.245698675652E-16,2.55));
#252 = CIRCLE('',#253,2.55);
#253 = AXIS2_PLACEMENT_3D('',#254,#255,#256);
#254 = CARTESIAN_POINT('',(5.,0.,0.));
#255 = DIRECTION('',(1.,0.,0.));
#256 = DIRECTION('',(-0.,0.,1.));
#257 = PLANE('',#258);
#258 = AXIS2_PLACEMENT_3D('',#259,#260,#261);
#259 = CARTESIAN_POINT('',(5.,10.869654687593,22.016211705062));
#260 = DIRECTION('',(1.,0.,0.));
#261 = DIRECTION('',(-0.,0.,1.));
#262 = ADVANCED_FACE('',(#263),#276,.T.);
#263 = FACE_BOUND('',#264,.T.);
#264 = EDGE_LOOP('',(#265,#266,#272,#273,#274,#275));
#265 = ORIENTED_EDGE('',*,*,#61,.T.);
#266 = ORIENTED_EDGE('',*,*,#267,.T.);
#267 = EDGE_CURVE('',#64,#192,#268,.T.);
#268 = LINE('',#269,#270);
#269 = CARTESIAN_POINT('',(0.,12.492832274179,6.318951002281));
#270 = VECTOR('',#271,1.);
#271 = DIRECTION('',(1.,0.,0.));
#272 = ORIENTED_EDGE('',*,*,#189,.F.);
#273 = ORIENTED_EDGE('',*,*,#218,.F.);
#274 = ORIENTED_EDGE('',*,*,#31,.F.);
#275 = ORIENTED_EDGE('',*,*,#72,.T.);
#276 = CYLINDRICAL_SURFACE('',#277,14.);
#277 = AXIS2_PLACEMENT_3D('',#278,#279,#280);
#278 = CARTESIAN_POINT('',(0.,0.,0.));
#279 = DIRECTION('',(1.,0.,0.));
#280 = DIRECTION('',(-0.,0.,1.));
#281 = ADVANCED_FACE('',(#282),#293,.T.);
#282 = FACE_BOUND('',#283,.T.);
#283 = EDGE_LOOP('',(#284,#285,#291,#292));
#284 = ORIENTED_EDGE('',*,*,#106,.T.);
#285 = ORIENTED_EDGE('',*,*,#286,.T.);
#286 = EDGE_CURVE('',#99,#201,#287,.T.);
#287 = LINE('',#288,#289);
#288 = CARTESIAN_POINT('',(0.,15.511018085792,18.368975885516));
#289 = VECTOR('',#290,1.);
#290 = DIRECTION('',(1.,0.,0.));
#291 = ORIENTED_EDGE('',*,*,#200,.F.);
#292 = ORIENTED_EDGE('',*,*,#267,.F.);
#293 = CYLINDRICAL_SURFACE('',#294,8.);
#294 = AXIS2_PLACEMENT_3D('',#295,#296,#297);
#295 = CARTESIAN_POINT('',(0.,9.111,13.569));
#296 = DIRECTION('',(1.,0.,0.));
#297 = DIRECTION('',(-0.,0.,1.));
#298 = ADVANCED_FACE('',(#299),#305,.T.);
#299 = FACE_BOUND('',#300,.T.);
#300 = EDGE_LOOP('',(#301,#302,#303,#304));
#301 = ORIENTED_EDGE('',*,*,#98,.F.);
#302 = ORIENTED_EDGE('',*,*,#165,.T.);
#303 = ORIENTED_EDGE('',*,*,#209,.T.);
#304 = ORIENTED_EDGE('',*,*,#286,.F.);
#305 = PLANE('',#306);
#306 = AXIS2_PLACEMENT_3D('',#307,#308,#309);
#307 = CARTESIAN_POINT('',(0.,29.598260179012,47.605549501875));
#308 = DIRECTION('',(0.,0.900876696502,-0.434075083021));
#309 = DIRECTION('',(0.,-0.434075083021,-0.900876696502));
#310 = ADVANCED_FACE('',(#311),#322,.F.);
#311 = FACE_BOUND('',#312,.F.);
#312 = EDGE_LOOP('',(#313,#314,#320,#321));
#313 = ORIENTED_EDGE('',*,*,#227,.F.);
#314 = ORIENTED_EDGE('',*,*,#315,.F.);
#315 = EDGE_CURVE('',#116,#228,#316,.T.);
#316 = LINE('',#317,#318);
#317 = CARTESIAN_POINT('',(-1.,24.193,52.36));
#318 = VECTOR('',#319,1.);
#319 = DIRECTION('',(1.,0.,0.));
#320 = ORIENTED_EDGE('',*,*,#115,.T.);
#321 = ORIENTED_EDGE('',*,*,#315,.T.);
#322 = CYLINDRICAL_SURFACE('',#323,2.15);
#323 = AXIS2_PLACEMENT_3D('',#324,#325,#326);
#324 = CARTESIAN_POINT('',(-1.,24.193,50.21));
#325 = DIRECTION('',(1.,0.,0.));
#326 = DIRECTION('',(-0.,0.,1.));
#327 = ADVANCED_FACE('',(#328),#339,.F.);
#328 = FACE_BOUND('',#329,.F.);
#329 = EDGE_LOOP('',(#330,#331,#337,#338));
#330 = ORIENTED_EDGE('',*,*,#238,.F.);
#331 = ORIENTED_EDGE('',*,*,#332,.F.);
#332 = EDGE_CURVE('',#127,#239,#333,.T.);
#333 = LINE('',#334,#335);
#334 = CARTESIAN_POINT('',(-1.,9.111,15.719));
#335 = VECTOR('',#336,1.);
#336 = DIRECTION('',(1.,0.,0.));
#337 = ORIENTED_EDGE('',*,*,#126,.T.);
#338 = ORIENTED_EDGE('',*,*,#332,.T.);
#339 = CYLINDRICAL_SURFACE('',#340,2.15);
#340 = AXIS2_PLACEMENT_3D('',#341,#342,#343);
#341 = CARTESIAN_POINT('',(-1.,9.111,13.569));
#342 = DIRECTION('',(1.,0.,0.));
#343 = DIRECTION('',(-0.,0.,1.));
#344 = ADVANCED_FACE('',(#345),#356,.F.);
#345 = FACE_BOUND('',#346,.F.);
#346 = EDGE_LOOP('',(#347,#348,#354,#355));
#347 = ORIENTED_EDGE('',*,*,#249,.F.);
#348 = ORIENTED_EDGE('',*,*,#349,.F.);
#349 = EDGE_CURVE('',#138,#250,#350,.T.);
#350 = LINE('',#351,#352);
#351 = CARTESIAN_POINT('',(-1.,6.245698675652E-16,2.55));
#352 = VECTOR('',#353,1.);
#353 = DIRECTION('',(1.,0.,0.));
#354 = ORIENTED_EDGE('',*,*,#137,.T.);
#355 = ORIENTED_EDGE('',*,*,#349,.T.);
#356 = CYLINDRICAL_SURFACE('',#357,2.55);
#357 = AXIS2_PLACEMENT_3D('',#358,#359,#360);
#358 = CARTESIAN_POINT('',(-1.,0.,0.));
#359 = DIRECTION('',(1.,0.,0.));
#360 = DIRECTION('',(-0.,0.,1.));
#361 = ( GEOMETRIC_REPRESENTATION_CONTEXT(3) 
GLOBAL_UNCERTAINTY_ASSIGNED_CONTEXT((#365)) GLOBAL_UNIT_ASSIGNED_CONTEXT
((#362,#363,#364)) REPRESENTATION_CONTEXT('Context #1',
  '3D Context with UNIT and UNCERTAINTY') );
#362 = ( LENGTH_UNIT() NAMED_UNIT(*) SI_UNIT(.MILLI.,.METRE.) );
#363 = ( NAMED_UNIT(*) PLANE_ANGLE_UNIT() SI_UNIT($,.RADIAN.) );
#364 = ( NAMED_UNIT(*) SI_UNIT($,.STERADIAN.) SOLID_ANGLE_UNIT() );
#365 = UNCERTAINTY_MEASURE_WITH_UNIT(LENGTH_MEASURE(1.E-07),#362,
  'distance_accuracy_value','confusion accuracy');
#366 = PRODUCT_RELATED_PRODUCT_CATEGORY('part',$,(#7));
ENDSEC;
END-ISO-10303-21;
