ISO-10303-21;
HEADER;
FILE_DESCRIPTION(('FreeCAD Model'),'2;1');
FILE_NAME('Open CASCADE Shape Model','2026-08-25T18:43:59',('Author'),(
    ''),'Open CASCADE STEP processor 7.8','FreeCAD','Unknown');
FILE_SCHEMA(('AUTOMOTIVE_DESIGN { 1 0 10303 214 1 1 1 1 }'));
ENDSEC;
DATA;
#1 = APPLICATION_PROTOCOL_DEFINITION('international standard',
  'automotive_design',2000,#2);
#2 = APPLICATION_CONTEXT(
  'core data for automotive mechanical design processes');
#3 = SHAPE_DEFINITION_REPRESENTATION(#4,#10);
#4 = PRODUCT_DEFINITION_SHAPE('','',#5);
#5 = PRODUCT_DEFINITION('design','',#6,#9);
#6 = PRODUCT_DEFINITION_FORMATION('','',#7);
#7 = PRODUCT('Aplus_drill_template_front','Aplus_drill_template_front',
  '',(#8));
#8 = PRODUCT_CONTEXT('',#2,'mechanical');
#9 = PRODUCT_DEFINITION_CONTEXT('part definition',#2,'design');
#10 = ADVANCED_BREP_SHAPE_REPRESENTATION('',(#11,#15),#381);
#11 = AXIS2_PLACEMENT_3D('',#12,#13,#14);
#12 = CARTESIAN_POINT('',(0.,0.,0.));
#13 = DIRECTION('',(0.,0.,1.));
#14 = DIRECTION('',(1.,0.,-0.));
#15 = MANIFOLD_SOLID_BREP('',#16);
#16 = CLOSED_SHELL('',(#17,#57,#159,#194,#280,#299,#318,#330,#347,#364)
  );
#17 = ADVANCED_FACE('',(#18),#52,.T.);
#18 = FACE_BOUND('',#19,.T.);
#19 = EDGE_LOOP('',(#20,#30,#38,#46));
#20 = ORIENTED_EDGE('',*,*,#21,.F.);
#21 = EDGE_CURVE('',#22,#24,#26,.T.);
#22 = VERTEX_POINT('',#23);
#23 = CARTESIAN_POINT('',(0.,11.74389414758,20.978863135547));
#24 = VERTEX_POINT('',#25);
#25 = CARTESIAN_POINT('',(0.,30.506343362955,40.618517768785));
#26 = LINE('',#27,#28);
#27 = CARTESIAN_POINT('',(0.,-4.33842208252,4.144646406378));
#28 = VECTOR('',#29,1.);
#29 = DIRECTION('',(0.,0.690774401063,0.723070347087));
#30 = ORIENTED_EDGE('',*,*,#31,.T.);
#31 = EDGE_CURVE('',#22,#32,#34,.T.);
#32 = VERTEX_POINT('',#33);
#33 = CARTESIAN_POINT('',(1.,11.74389414758,20.978863135547));
#34 = LINE('',#35,#36);
#35 = CARTESIAN_POINT('',(0.,11.743894147579,20.978863135547));
#36 = VECTOR('',#37,1.);
#37 = DIRECTION('',(1.,0.,0.));
#38 = ORIENTED_EDGE('',*,*,#39,.T.);
#39 = EDGE_CURVE('',#32,#40,#42,.T.);
#40 = VERTEX_POINT('',#41);
#41 = CARTESIAN_POINT('',(1.,30.506343362955,40.618517768785));
#42 = LINE('',#43,#44);
#43 = CARTESIAN_POINT('',(1.,-4.33842208252,4.144646406378));
#44 = VECTOR('',#45,1.);
#45 = DIRECTION('',(0.,0.690774401063,0.723070347087));
#46 = ORIENTED_EDGE('',*,*,#47,.F.);
#47 = EDGE_CURVE('',#24,#40,#48,.T.);
#48 = LINE('',#49,#50);
#49 = CARTESIAN_POINT('',(0.,30.506343362955,40.618517768785));
#50 = VECTOR('',#51,1.);
#51 = DIRECTION('',(1.,0.,0.));
#52 = PLANE('',#53);
#53 = AXIS2_PLACEMENT_3D('',#54,#55,#56);
#54 = CARTESIAN_POINT('',(0.,-4.33842208252,4.144646406378));
#55 = DIRECTION('',(0.,-0.723070347087,0.690774401063));
#56 = DIRECTION('',(0.,0.690774401063,0.723070347087));
#57 = ADVANCED_FACE('',(#58,#121,#132,#143),#154,.T.);
#58 = FACE_BOUND('',#59,.T.);
#59 = EDGE_LOOP('',(#60,#71,#80,#89,#96,#97,#106,#115));
#60 = ORIENTED_EDGE('',*,*,#61,.F.);
#61 = EDGE_CURVE('',#62,#64,#66,.T.);
#62 = VERTEX_POINT('',#63);
#63 = CARTESIAN_POINT('',(0.,3.429011037613E-15,14.));
#64 = VERTEX_POINT('',#65);
#65 = CARTESIAN_POINT('',(0.,13.076103909311,5.001550414912));
#66 = CIRCLE('',#67,14.);
#67 = AXIS2_PLACEMENT_3D('',#68,#69,#70);
#68 = CARTESIAN_POINT('',(0.,0.,0.));
#69 = DIRECTION('',(1.,0.,0.));
#70 = DIRECTION('',(-0.,0.,1.));
#71 = ORIENTED_EDGE('',*,*,#72,.F.);
#72 = EDGE_CURVE('',#73,#62,#75,.T.);
#73 = VERTEX_POINT('',#74);
#74 = CARTESIAN_POINT('',(0.,1.523814931299,13.916823921253));
#75 = CIRCLE('',#76,14.);
#76 = AXIS2_PLACEMENT_3D('',#77,#78,#79);
#77 = CARTESIAN_POINT('',(0.,0.,0.));
#78 = DIRECTION('',(1.,0.,0.));
#79 = DIRECTION('',(-0.,0.,1.));
#80 = ORIENTED_EDGE('',*,*,#81,.F.);
#81 = EDGE_CURVE('',#82,#73,#84,.T.);
#82 = VERTEX_POINT('',#83);
#83 = CARTESIAN_POINT('',(0.,9.5,21.3));
#84 = CIRCLE('',#85,8.);
#85 = AXIS2_PLACEMENT_3D('',#86,#87,#88);
#86 = CARTESIAN_POINT('',(0.,9.5,13.3));
#87 = DIRECTION('',(1.,0.,0.));
#88 = DIRECTION('',(-0.,0.,1.));
#89 = ORIENTED_EDGE('',*,*,#90,.F.);
#90 = EDGE_CURVE('',#22,#82,#91,.T.);
#91 = CIRCLE('',#92,8.);
#92 = AXIS2_PLACEMENT_3D('',#93,#94,#95);
#93 = CARTESIAN_POINT('',(0.,9.5,13.3));
#94 = DIRECTION('',(1.,0.,0.));
#95 = DIRECTION('',(-0.,0.,1.));
#96 = ORIENTED_EDGE('',*,*,#21,.T.);
#97 = ORIENTED_EDGE('',*,*,#98,.F.);
#98 = EDGE_CURVE('',#99,#24,#101,.T.);
#99 = VERTEX_POINT('',#100);
#100 = CARTESIAN_POINT('',(0.,38.5,48.3));
#101 = CIRCLE('',#102,8.);
#102 = AXIS2_PLACEMENT_3D('',#103,#104,#105);
#103 = CARTESIAN_POINT('',(0.,38.5,40.3));
#104 = DIRECTION('',(1.,0.,0.));
#105 = DIRECTION('',(-0.,0.,1.));
#106 = ORIENTED_EDGE('',*,*,#107,.F.);
#107 = EDGE_CURVE('',#108,#99,#110,.T.);
#108 = VERTEX_POINT('',#109);
#109 = CARTESIAN_POINT('',(0.,39.183187527996,32.329224956029));
#110 = CIRCLE('',#111,8.);
#111 = AXIS2_PLACEMENT_3D('',#112,#113,#114);
#112 = CARTESIAN_POINT('',(0.,38.5,40.3));
#113 = DIRECTION('',(1.,0.,0.));
#114 = DIRECTION('',(-0.,0.,1.));
#115 = ORIENTED_EDGE('',*,*,#116,.T.);
#116 = EDGE_CURVE('',#108,#64,#117,.T.);
#117 = LINE('',#118,#119);
#118 = CARTESIAN_POINT('',(0.,42.83842208252,36.155353593622));
#119 = VECTOR('',#120,1.);
#120 = DIRECTION('',(0.,-0.690774401063,-0.723070347087));
#121 = FACE_BOUND('',#122,.T.);
#122 = EDGE_LOOP('',(#123));
#123 = ORIENTED_EDGE('',*,*,#124,.T.);
#124 = EDGE_CURVE('',#125,#125,#127,.T.);
#125 = VERTEX_POINT('',#126);
#126 = CARTESIAN_POINT('',(0.,38.5,41.95));
#127 = CIRCLE('',#128,1.65);
#128 = AXIS2_PLACEMENT_3D('',#129,#130,#131);
#129 = CARTESIAN_POINT('',(0.,38.5,40.3));
#130 = DIRECTION('',(1.,0.,0.));
#131 = DIRECTION('',(-0.,0.,1.));
#132 = FACE_BOUND('',#133,.T.);
#133 = EDGE_LOOP('',(#134));
#134 = ORIENTED_EDGE('',*,*,#135,.T.);
#135 = EDGE_CURVE('',#136,#136,#138,.T.);
#136 = VERTEX_POINT('',#137);
#137 = CARTESIAN_POINT('',(0.,9.5,14.95));
#138 = CIRCLE('',#139,1.65);
#139 = AXIS2_PLACEMENT_3D('',#140,#141,#142);
#140 = CARTESIAN_POINT('',(0.,9.5,13.3));
#141 = DIRECTION('',(1.,0.,0.));
#142 = DIRECTION('',(-0.,0.,1.));
#143 = FACE_BOUND('',#144,.T.);
#144 = EDGE_LOOP('',(#145));
#145 = ORIENTED_EDGE('',*,*,#146,.T.);
#146 = EDGE_CURVE('',#147,#147,#149,.T.);
#147 = VERTEX_POINT('',#148);
#148 = CARTESIAN_POINT('',(0.,7.470345474799E-16,3.05));
#149 = CIRCLE('',#150,3.05);
#150 = AXIS2_PLACEMENT_3D('',#151,#152,#153);
#151 = CARTESIAN_POINT('',(0.,0.,0.));
#152 = DIRECTION('',(1.,0.,0.));
#153 = DIRECTION('',(-0.,0.,1.));
#154 = PLANE('',#155);
#155 = AXIS2_PLACEMENT_3D('',#156,#157,#158);
#156 = CARTESIAN_POINT('',(0.,16.635961327371,17.918096544621));
#157 = DIRECTION('',(-1.,-0.,-0.));
#158 = DIRECTION('',(0.,0.,-1.));
#159 = ADVANCED_FACE('',(#160),#189,.T.);
#160 = FACE_BOUND('',#161,.T.);
#161 = EDGE_LOOP('',(#162,#163,#164,#173,#182,#188));
#162 = ORIENTED_EDGE('',*,*,#98,.T.);
#163 = ORIENTED_EDGE('',*,*,#47,.T.);
#164 = ORIENTED_EDGE('',*,*,#165,.F.);
#165 = EDGE_CURVE('',#166,#40,#168,.T.);
#166 = VERTEX_POINT('',#167);
#167 = CARTESIAN_POINT('',(1.,38.5,48.3));
#168 = CIRCLE('',#169,8.);
#169 = AXIS2_PLACEMENT_3D('',#170,#171,#172);
#170 = CARTESIAN_POINT('',(1.,38.5,40.3));
#171 = DIRECTION('',(1.,0.,0.));
#172 = DIRECTION('',(-0.,0.,1.));
#173 = ORIENTED_EDGE('',*,*,#174,.F.);
#174 = EDGE_CURVE('',#175,#166,#177,.T.);
#175 = VERTEX_POINT('',#176);
#176 = CARTESIAN_POINT('',(1.,39.183187527996,32.329224956029));
#177 = CIRCLE('',#178,8.);
#178 = AXIS2_PLACEMENT_3D('',#179,#180,#181);
#179 = CARTESIAN_POINT('',(1.,38.5,40.3));
#180 = DIRECTION('',(1.,0.,0.));
#181 = DIRECTION('',(-0.,0.,1.));
#182 = ORIENTED_EDGE('',*,*,#183,.F.);
#183 = EDGE_CURVE('',#108,#175,#184,.T.);
#184 = LINE('',#185,#186);
#185 = CARTESIAN_POINT('',(0.,39.183187527996,32.329224956029));
#186 = VECTOR('',#187,1.);
#187 = DIRECTION('',(1.,0.,0.));
#188 = ORIENTED_EDGE('',*,*,#107,.T.);
#189 = CYLINDRICAL_SURFACE('',#190,8.);
#190 = AXIS2_PLACEMENT_3D('',#191,#192,#193);
#191 = CARTESIAN_POINT('',(0.,38.5,40.3));
#192 = DIRECTION('',(1.,0.,0.));
#193 = DIRECTION('',(-0.,0.,1.));
#194 = ADVANCED_FACE('',(#195,#242,#253,#264),#275,.T.);
#195 = FACE_BOUND('',#196,.T.);
#196 = EDGE_LOOP('',(#197,#208,#214,#215,#216,#217,#226,#235));
#197 = ORIENTED_EDGE('',*,*,#198,.T.);
#198 = EDGE_CURVE('',#199,#201,#203,.T.);
#199 = VERTEX_POINT('',#200);
#200 = CARTESIAN_POINT('',(1.,3.429011037613E-15,14.));
#201 = VERTEX_POINT('',#202);
#202 = CARTESIAN_POINT('',(1.,13.076103909311,5.001550414912));
#203 = CIRCLE('',#204,14.);
#204 = AXIS2_PLACEMENT_3D('',#205,#206,#207);
#205 = CARTESIAN_POINT('',(1.,0.,0.));
#206 = DIRECTION('',(1.,0.,0.));
#207 = DIRECTION('',(-0.,0.,1.));
#208 = ORIENTED_EDGE('',*,*,#209,.F.);
#209 = EDGE_CURVE('',#175,#201,#210,.T.);
#210 = LINE('',#211,#212);
#211 = CARTESIAN_POINT('',(1.,42.83842208252,36.155353593622));
#212 = VECTOR('',#213,1.);
#213 = DIRECTION('',(0.,-0.690774401063,-0.723070347087));
#214 = ORIENTED_EDGE('',*,*,#174,.T.);
#215 = ORIENTED_EDGE('',*,*,#165,.T.);
#216 = ORIENTED_EDGE('',*,*,#39,.F.);
#217 = ORIENTED_EDGE('',*,*,#218,.T.);
#218 = EDGE_CURVE('',#32,#219,#221,.T.);
#219 = VERTEX_POINT('',#220);
#220 = CARTESIAN_POINT('',(1.,9.5,21.3));
#221 = CIRCLE('',#222,8.);
#222 = AXIS2_PLACEMENT_3D('',#223,#224,#225);
#223 = CARTESIAN_POINT('',(1.,9.5,13.3));
#224 = DIRECTION('',(1.,0.,0.));
#225 = DIRECTION('',(-0.,0.,1.));
#226 = ORIENTED_EDGE('',*,*,#227,.T.);
#227 = EDGE_CURVE('',#219,#228,#230,.T.);
#228 = VERTEX_POINT('',#229);
#229 = CARTESIAN_POINT('',(1.,1.523814931299,13.916823921253));
#230 = CIRCLE('',#231,8.);
#231 = AXIS2_PLACEMENT_3D('',#232,#233,#234);
#232 = CARTESIAN_POINT('',(1.,9.5,13.3));
#233 = DIRECTION('',(1.,0.,0.));
#234 = DIRECTION('',(-0.,0.,1.));
#235 = ORIENTED_EDGE('',*,*,#236,.T.);
#236 = EDGE_CURVE('',#228,#199,#237,.T.);
#237 = CIRCLE('',#238,14.);
#238 = AXIS2_PLACEMENT_3D('',#239,#240,#241);
#239 = CARTESIAN_POINT('',(1.,0.,0.));
#240 = DIRECTION('',(1.,0.,0.));
#241 = DIRECTION('',(-0.,0.,1.));
#242 = FACE_BOUND('',#243,.T.);
#243 = EDGE_LOOP('',(#244));
#244 = ORIENTED_EDGE('',*,*,#245,.F.);
#245 = EDGE_CURVE('',#246,#246,#248,.T.);
#246 = VERTEX_POINT('',#247);
#247 = CARTESIAN_POINT('',(1.,38.5,41.95));
#248 = CIRCLE('',#249,1.65);
#249 = AXIS2_PLACEMENT_3D('',#250,#251,#252);
#250 = CARTESIAN_POINT('',(1.,38.5,40.3));
#251 = DIRECTION('',(1.,0.,0.));
#252 = DIRECTION('',(-0.,0.,1.));
#253 = FACE_BOUND('',#254,.T.);
#254 = EDGE_LOOP('',(#255));
#255 = ORIENTED_EDGE('',*,*,#256,.F.);
#256 = EDGE_CURVE('',#257,#257,#259,.T.);
#257 = VERTEX_POINT('',#258);
#258 = CARTESIAN_POINT('',(1.,9.5,14.95));
#259 = CIRCLE('',#260,1.65);
#260 = AXIS2_PLACEMENT_3D('',#261,#262,#263);
#261 = CARTESIAN_POINT('',(1.,9.5,13.3));
#262 = DIRECTION('',(1.,0.,0.));
#263 = DIRECTION('',(-0.,0.,1.));
#264 = FACE_BOUND('',#265,.T.);
#265 = EDGE_LOOP('',(#266));
#266 = ORIENTED_EDGE('',*,*,#267,.F.);
#267 = EDGE_CURVE('',#268,#268,#270,.T.);
#268 = VERTEX_POINT('',#269);
#269 = CARTESIAN_POINT('',(1.,7.470345474799E-16,3.05));
#270 = CIRCLE('',#271,3.05);
#271 = AXIS2_PLACEMENT_3D('',#272,#273,#274);
#272 = CARTESIAN_POINT('',(1.,0.,0.));
#273 = DIRECTION('',(1.,0.,0.));
#274 = DIRECTION('',(-0.,0.,1.));
#275 = PLANE('',#276);
#276 = AXIS2_PLACEMENT_3D('',#277,#278,#279);
#277 = CARTESIAN_POINT('',(1.,16.635961327371,17.918096544621));
#278 = DIRECTION('',(1.,0.,0.));
#279 = DIRECTION('',(-0.,0.,1.));
#280 = ADVANCED_FACE('',(#281),#294,.T.);
#281 = FACE_BOUND('',#282,.T.);
#282 = EDGE_LOOP('',(#283,#284,#285,#286,#287,#293));
#283 = ORIENTED_EDGE('',*,*,#218,.F.);
#284 = ORIENTED_EDGE('',*,*,#31,.F.);
#285 = ORIENTED_EDGE('',*,*,#90,.T.);
#286 = ORIENTED_EDGE('',*,*,#81,.T.);
#287 = ORIENTED_EDGE('',*,*,#288,.T.);
#288 = EDGE_CURVE('',#73,#228,#289,.T.);
#289 = LINE('',#290,#291);
#290 = CARTESIAN_POINT('',(0.,1.523814931299,13.916823921253));
#291 = VECTOR('',#292,1.);
#292 = DIRECTION('',(1.,0.,0.));
#293 = ORIENTED_EDGE('',*,*,#227,.F.);
#294 = CYLINDRICAL_SURFACE('',#295,8.);
#295 = AXIS2_PLACEMENT_3D('',#296,#297,#298);
#296 = CARTESIAN_POINT('',(0.,9.5,13.3));
#297 = DIRECTION('',(1.,0.,0.));
#298 = DIRECTION('',(-0.,0.,1.));
#299 = ADVANCED_FACE('',(#300),#313,.T.);
#300 = FACE_BOUND('',#301,.T.);
#301 = EDGE_LOOP('',(#302,#303,#309,#310,#311,#312));
#302 = ORIENTED_EDGE('',*,*,#61,.T.);
#303 = ORIENTED_EDGE('',*,*,#304,.T.);
#304 = EDGE_CURVE('',#64,#201,#305,.T.);
#305 = LINE('',#306,#307);
#306 = CARTESIAN_POINT('',(0.,13.076103909311,5.001550414912));
#307 = VECTOR('',#308,1.);
#308 = DIRECTION('',(1.,0.,0.));
#309 = ORIENTED_EDGE('',*,*,#198,.F.);
#310 = ORIENTED_EDGE('',*,*,#236,.F.);
#311 = ORIENTED_EDGE('',*,*,#288,.F.);
#312 = ORIENTED_EDGE('',*,*,#72,.T.);
#313 = CYLINDRICAL_SURFACE('',#314,14.);
#314 = AXIS2_PLACEMENT_3D('',#315,#316,#317);
#315 = CARTESIAN_POINT('',(0.,0.,0.));
#316 = DIRECTION('',(1.,0.,0.));
#317 = DIRECTION('',(-0.,0.,1.));
#318 = ADVANCED_FACE('',(#319),#325,.T.);
#319 = FACE_BOUND('',#320,.T.);
#320 = EDGE_LOOP('',(#321,#322,#323,#324));
#321 = ORIENTED_EDGE('',*,*,#116,.F.);
#322 = ORIENTED_EDGE('',*,*,#183,.T.);
#323 = ORIENTED_EDGE('',*,*,#209,.T.);
#324 = ORIENTED_EDGE('',*,*,#304,.F.);
#325 = PLANE('',#326);
#326 = AXIS2_PLACEMENT_3D('',#327,#328,#329);
#327 = CARTESIAN_POINT('',(0.,42.83842208252,36.155353593622));
#328 = DIRECTION('',(0.,0.723070347087,-0.690774401063));
#329 = DIRECTION('',(0.,-0.690774401063,-0.723070347087));
#330 = ADVANCED_FACE('',(#331),#342,.F.);
#331 = FACE_BOUND('',#332,.F.);
#332 = EDGE_LOOP('',(#333,#334,#340,#341));
#333 = ORIENTED_EDGE('',*,*,#245,.F.);
#334 = ORIENTED_EDGE('',*,*,#335,.F.);
#335 = EDGE_CURVE('',#125,#246,#336,.T.);
#336 = LINE('',#337,#338);
#337 = CARTESIAN_POINT('',(-1.,38.5,41.95));
#338 = VECTOR('',#339,1.);
#339 = DIRECTION('',(1.,0.,0.));
#340 = ORIENTED_EDGE('',*,*,#124,.T.);
#341 = ORIENTED_EDGE('',*,*,#335,.T.);
#342 = CYLINDRICAL_SURFACE('',#343,1.65);
#343 = AXIS2_PLACEMENT_3D('',#344,#345,#346);
#344 = CARTESIAN_POINT('',(-1.,38.5,40.3));
#345 = DIRECTION('',(1.,0.,0.));
#346 = DIRECTION('',(-0.,0.,1.));
#347 = ADVANCED_FACE('',(#348),#359,.F.);
#348 = FACE_BOUND('',#349,.F.);
#349 = EDGE_LOOP('',(#350,#351,#357,#358));
#350 = ORIENTED_EDGE('',*,*,#256,.F.);
#351 = ORIENTED_EDGE('',*,*,#352,.F.);
#352 = EDGE_CURVE('',#136,#257,#353,.T.);
#353 = LINE('',#354,#355);
#354 = CARTESIAN_POINT('',(-1.,9.5,14.95));
#355 = VECTOR('',#356,1.);
#356 = DIRECTION('',(1.,0.,0.));
#357 = ORIENTED_EDGE('',*,*,#135,.T.);
#358 = ORIENTED_EDGE('',*,*,#352,.T.);
#359 = CYLINDRICAL_SURFACE('',#360,1.65);
#360 = AXIS2_PLACEMENT_3D('',#361,#362,#363);
#361 = CARTESIAN_POINT('',(-1.,9.5,13.3));
#362 = DIRECTION('',(1.,0.,0.));
#363 = DIRECTION('',(-0.,0.,1.));
#364 = ADVANCED_FACE('',(#365),#376,.F.);
#365 = FACE_BOUND('',#366,.F.);
#366 = EDGE_LOOP('',(#367,#368,#374,#375));
#367 = ORIENTED_EDGE('',*,*,#267,.F.);
#368 = ORIENTED_EDGE('',*,*,#369,.F.);
#369 = EDGE_CURVE('',#147,#268,#370,.T.);
#370 = LINE('',#371,#372);
#371 = CARTESIAN_POINT('',(-1.,7.470345474799E-16,3.05));
#372 = VECTOR('',#373,1.);
#373 = DIRECTION('',(1.,0.,0.));
#374 = ORIENTED_EDGE('',*,*,#146,.T.);
#375 = ORIENTED_EDGE('',*,*,#369,.T.);
#376 = CYLINDRICAL_SURFACE('',#377,3.05);
#377 = AXIS2_PLACEMENT_3D('',#378,#379,#380);
#378 = CARTESIAN_POINT('',(-1.,0.,0.));
#379 = DIRECTION('',(1.,0.,0.));
#380 = DIRECTION('',(-0.,0.,1.));
#381 = ( GEOMETRIC_REPRESENTATION_CONTEXT(3) 
GLOBAL_UNCERTAINTY_ASSIGNED_CONTEXT((#385)) GLOBAL_UNIT_ASSIGNED_CONTEXT
((#382,#383,#384)) REPRESENTATION_CONTEXT('Context #1',
  '3D Context with UNIT and UNCERTAINTY') );
#382 = ( LENGTH_UNIT() NAMED_UNIT(*) SI_UNIT(.MILLI.,.METRE.) );
#383 = ( NAMED_UNIT(*) PLANE_ANGLE_UNIT() SI_UNIT($,.RADIAN.) );
#384 = ( NAMED_UNIT(*) SI_UNIT($,.STERADIAN.) SOLID_ANGLE_UNIT() );
#385 = UNCERTAINTY_MEASURE_WITH_UNIT(LENGTH_MEASURE(1.E-07),#382,
  'distance_accuracy_value','confusion accuracy');
#386 = PRODUCT_RELATED_PRODUCT_CATEGORY('part',$,(#7));
ENDSEC;
END-ISO-10303-21;
