ISO-10303-21;
HEADER;
FILE_DESCRIPTION(('FreeCAD Model'),'2;1');
FILE_NAME('Open CASCADE Shape Model','2026-08-25T19:37:59',('Author'),(
    ''),'Open CASCADE STEP processor 7.8','FreeCAD','Unknown');
FILE_SCHEMA(('AUTOMOTIVE_DESIGN { 1 0 10303 214 1 1 1 1 }'));
ENDSEC;
DATA;
#1 = APPLICATION_PROTOCOL_DEFINITION('international standard',
  'automotive_design',2000,#2);
#2 = APPLICATION_CONTEXT(
  'core data for automotive mechanical design processes');
#3 = SHAPE_DEFINITION_REPRESENTATION(#4,#10);
#4 = PRODUCT_DEFINITION_SHAPE('','',#5);
#5 = PRODUCT_DEFINITION('design','',#6,#9);
#6 = PRODUCT_DEFINITION_FORMATION('','',#7);
#7 = PRODUCT('guide_wheel_Aplus_retrofit','guide_wheel_Aplus_retrofit',
  '',(#8));
#8 = PRODUCT_CONTEXT('',#2,'mechanical');
#9 = PRODUCT_DEFINITION_CONTEXT('part definition',#2,'design');
#10 = SHAPE_REPRESENTATION('',(#11,#15,#19,#23,#27,#31,#35,#39,#43,#47,
    #51,#55,#59,#63),#67);
#11 = AXIS2_PLACEMENT_3D('',#12,#13,#14);
#12 = CARTESIAN_POINT('',(0.,0.,0.));
#13 = DIRECTION('',(0.,0.,1.));
#14 = DIRECTION('',(1.,0.,-0.));
#15 = AXIS2_PLACEMENT_3D('',#16,#17,#18);
#16 = CARTESIAN_POINT('',(0.,0.,0.));
#17 = DIRECTION('',(0.,0.,1.));
#18 = DIRECTION('',(1.,0.,0.));
#19 = AXIS2_PLACEMENT_3D('',#20,#21,#22);
#20 = CARTESIAN_POINT('',(-8.,0.,0.));
#21 = DIRECTION('',(0.,0.,1.));
#22 = DIRECTION('',(1.,0.,0.));
#23 = AXIS2_PLACEMENT_3D('',#24,#25,#26);
#24 = CARTESIAN_POINT('',(-0.5,0.,0.));
#25 = DIRECTION('',(0.,0.,1.));
#26 = DIRECTION('',(1.,0.,0.));
#27 = AXIS2_PLACEMENT_3D('',#28,#29,#30);
#28 = CARTESIAN_POINT('',(0.,0.,0.));
#29 = DIRECTION('',(0.,0.,1.));
#30 = DIRECTION('',(1.,0.,0.));
#31 = AXIS2_PLACEMENT_3D('',#32,#33,#34);
#32 = CARTESIAN_POINT('',(0.,0.,0.));
#33 = DIRECTION('',(0.,0.,1.));
#34 = DIRECTION('',(1.,0.,0.));
#35 = AXIS2_PLACEMENT_3D('',#36,#37,#38);
#36 = CARTESIAN_POINT('',(10.,0.,0.));
#37 = DIRECTION('',(0.,0.,1.));
#38 = DIRECTION('',(1.,0.,0.));
#39 = AXIS2_PLACEMENT_3D('',#40,#41,#42);
#40 = CARTESIAN_POINT('',(10.7,0.,0.));
#41 = DIRECTION('',(0.,0.,1.));
#42 = DIRECTION('',(1.,0.,0.));
#43 = AXIS2_PLACEMENT_3D('',#44,#45,#46);
#44 = CARTESIAN_POINT('',(12.,0.,0.));
#45 = DIRECTION('',(0.,0.,1.));
#46 = DIRECTION('',(1.,0.,0.));
#47 = AXIS2_PLACEMENT_3D('',#48,#49,#50);
#48 = CARTESIAN_POINT('',(-8.,0.,0.));
#49 = DIRECTION('',(0.,0.,1.));
#50 = DIRECTION('',(1.,0.,0.));
#51 = AXIS2_PLACEMENT_3D('',#52,#53,#54);
#52 = CARTESIAN_POINT('',(17.,0.,0.));
#53 = DIRECTION('',(0.,0.,1.));
#54 = DIRECTION('',(1.,0.,0.));
#55 = AXIS2_PLACEMENT_3D('',#56,#57,#58);
#56 = CARTESIAN_POINT('',(17.8,0.,0.));
#57 = DIRECTION('',(0.,0.,1.));
#58 = DIRECTION('',(1.,0.,0.));
#59 = AXIS2_PLACEMENT_3D('',#60,#61,#62);
#60 = CARTESIAN_POINT('',(0.,9.111,13.569));
#61 = DIRECTION('',(0.,0.,1.));
#62 = DIRECTION('',(1.,0.,0.));
#63 = AXIS2_PLACEMENT_3D('',#64,#65,#66);
#64 = CARTESIAN_POINT('',(0.,24.193,50.21));
#65 = DIRECTION('',(0.,0.,1.));
#66 = DIRECTION('',(1.,0.,0.));
#67 = ( GEOMETRIC_REPRESENTATION_CONTEXT(3) 
GLOBAL_UNCERTAINTY_ASSIGNED_CONTEXT((#71)) GLOBAL_UNIT_ASSIGNED_CONTEXT(
(#68,#69,#70)) REPRESENTATION_CONTEXT('Context #1',
  '3D Context with UNIT and UNCERTAINTY') );
#68 = ( LENGTH_UNIT() NAMED_UNIT(*) SI_UNIT(.MILLI.,.METRE.) );
#69 = ( NAMED_UNIT(*) PLANE_ANGLE_UNIT() SI_UNIT($,.RADIAN.) );
#70 = ( NAMED_UNIT(*) SI_UNIT($,.STERADIAN.) SOLID_ANGLE_UNIT() );
#71 = UNCERTAINTY_MEASURE_WITH_UNIT(LENGTH_MEASURE(1.E-07),#68,
  'distance_accuracy_value','confusion accuracy');
#72 = PRODUCT_RELATED_PRODUCT_CATEGORY('part',$,(#7));
#73 = SHAPE_DEFINITION_REPRESENTATION(#74,#80);
#74 = PRODUCT_DEFINITION_SHAPE('','',#75);
#75 = PRODUCT_DEFINITION('design','',#76,#79);
#76 = PRODUCT_DEFINITION_FORMATION('','',#77);
#77 = PRODUCT('reference_inner_mount_plate',
  'reference_inner_mount_plate','',(#78));
#78 = PRODUCT_CONTEXT('',#2,'mechanical');
#79 = PRODUCT_DEFINITION_CONTEXT('part definition',#2,'design');
#80 = ADVANCED_BREP_SHAPE_REPRESENTATION('',(#11,#81),#315);
#81 = MANIFOLD_SOLID_BREP('',#82);
#82 = CLOSED_SHELL('',(#83,#134,#165,#189,#213,#230,#255,#278,#298));
#83 = ADVANCED_FACE('',(#84,#118),#129,.F.);
#84 = FACE_BOUND('',#85,.F.);
#85 = EDGE_LOOP('',(#86,#96,#104,#112));
#86 = ORIENTED_EDGE('',*,*,#87,.F.);
#87 = EDGE_CURVE('',#88,#90,#92,.T.);
#88 = VERTEX_POINT('',#89);
#89 = CARTESIAN_POINT('',(-8.,-30.,-35.));
#90 = VERTEX_POINT('',#91);
#91 = CARTESIAN_POINT('',(-8.,-30.,35.));
#92 = LINE('',#93,#94);
#93 = CARTESIAN_POINT('',(-8.,-30.,-35.));
#94 = VECTOR('',#95,1.);
#95 = DIRECTION('',(0.,0.,1.));
#96 = ORIENTED_EDGE('',*,*,#97,.T.);
#97 = EDGE_CURVE('',#88,#98,#100,.T.);
#98 = VERTEX_POINT('',#99);
#99 = CARTESIAN_POINT('',(-8.,30.,-35.));
#100 = LINE('',#101,#102);
#101 = CARTESIAN_POINT('',(-8.,-30.,-35.));
#102 = VECTOR('',#103,1.);
#103 = DIRECTION('',(-0.,1.,0.));
#104 = ORIENTED_EDGE('',*,*,#105,.T.);
#105 = EDGE_CURVE('',#98,#106,#108,.T.);
#106 = VERTEX_POINT('',#107);
#107 = CARTESIAN_POINT('',(-8.,30.,35.));
#108 = LINE('',#109,#110);
#109 = CARTESIAN_POINT('',(-8.,30.,-35.));
#110 = VECTOR('',#111,1.);
#111 = DIRECTION('',(0.,0.,1.));
#112 = ORIENTED_EDGE('',*,*,#113,.F.);
#113 = EDGE_CURVE('',#90,#106,#114,.T.);
#114 = LINE('',#115,#116);
#115 = CARTESIAN_POINT('',(-8.,-30.,35.));
#116 = VECTOR('',#117,1.);
#117 = DIRECTION('',(-0.,1.,0.));
#118 = FACE_BOUND('',#119,.F.);
#119 = EDGE_LOOP('',(#120));
#120 = ORIENTED_EDGE('',*,*,#121,.F.);
#121 = EDGE_CURVE('',#122,#122,#124,.T.);
#122 = VERTEX_POINT('',#123);
#123 = CARTESIAN_POINT('',(-8.,7.347880794884E-16,3.));
#124 = CIRCLE('',#125,3.);
#125 = AXIS2_PLACEMENT_3D('',#126,#127,#128);
#126 = CARTESIAN_POINT('',(-8.,0.,0.));
#127 = DIRECTION('',(1.,0.,0.));
#128 = DIRECTION('',(-0.,0.,1.));
#129 = PLANE('',#130);
#130 = AXIS2_PLACEMENT_3D('',#131,#132,#133);
#131 = CARTESIAN_POINT('',(-8.,-30.,-35.));
#132 = DIRECTION('',(1.,0.,-0.));
#133 = DIRECTION('',(0.,0.,1.));
#134 = ADVANCED_FACE('',(#135),#160,.F.);
#135 = FACE_BOUND('',#136,.F.);
#136 = EDGE_LOOP('',(#137,#145,#146,#154));
#137 = ORIENTED_EDGE('',*,*,#138,.F.);
#138 = EDGE_CURVE('',#88,#139,#141,.T.);
#139 = VERTEX_POINT('',#140);
#140 = CARTESIAN_POINT('',(0.,-30.,-35.));
#141 = LINE('',#142,#143);
#142 = CARTESIAN_POINT('',(-8.,-30.,-35.));
#143 = VECTOR('',#144,1.);
#144 = DIRECTION('',(1.,0.,-0.));
#145 = ORIENTED_EDGE('',*,*,#87,.T.);
#146 = ORIENTED_EDGE('',*,*,#147,.T.);
#147 = EDGE_CURVE('',#90,#148,#150,.T.);
#148 = VERTEX_POINT('',#149);
#149 = CARTESIAN_POINT('',(0.,-30.,35.));
#150 = LINE('',#151,#152);
#151 = CARTESIAN_POINT('',(-8.,-30.,35.));
#152 = VECTOR('',#153,1.);
#153 = DIRECTION('',(1.,0.,-0.));
#154 = ORIENTED_EDGE('',*,*,#155,.F.);
#155 = EDGE_CURVE('',#139,#148,#156,.T.);
#156 = LINE('',#157,#158);
#157 = CARTESIAN_POINT('',(0.,-30.,-35.));
#158 = VECTOR('',#159,1.);
#159 = DIRECTION('',(0.,0.,1.));
#160 = PLANE('',#161);
#161 = AXIS2_PLACEMENT_3D('',#162,#163,#164);
#162 = CARTESIAN_POINT('',(-8.,-30.,-35.));
#163 = DIRECTION('',(-0.,1.,0.));
#164 = DIRECTION('',(0.,0.,1.));
#165 = ADVANCED_FACE('',(#166),#184,.T.);
#166 = FACE_BOUND('',#167,.T.);
#167 = EDGE_LOOP('',(#168,#169,#170,#178));
#168 = ORIENTED_EDGE('',*,*,#113,.F.);
#169 = ORIENTED_EDGE('',*,*,#147,.T.);
#170 = ORIENTED_EDGE('',*,*,#171,.T.);
#171 = EDGE_CURVE('',#148,#172,#174,.T.);
#172 = VERTEX_POINT('',#173);
#173 = CARTESIAN_POINT('',(0.,30.,35.));
#174 = LINE('',#175,#176);
#175 = CARTESIAN_POINT('',(0.,-30.,35.));
#176 = VECTOR('',#177,1.);
#177 = DIRECTION('',(-0.,1.,0.));
#178 = ORIENTED_EDGE('',*,*,#179,.F.);
#179 = EDGE_CURVE('',#106,#172,#180,.T.);
#180 = LINE('',#181,#182);
#181 = CARTESIAN_POINT('',(-8.,30.,35.));
#182 = VECTOR('',#183,1.);
#183 = DIRECTION('',(1.,0.,-0.));
#184 = PLANE('',#185);
#185 = AXIS2_PLACEMENT_3D('',#186,#187,#188);
#186 = CARTESIAN_POINT('',(-8.,-30.,35.));
#187 = DIRECTION('',(0.,0.,1.));
#188 = DIRECTION('',(1.,0.,-0.));
#189 = ADVANCED_FACE('',(#190),#208,.F.);
#190 = FACE_BOUND('',#191,.F.);
#191 = EDGE_LOOP('',(#192,#193,#194,#202));
#192 = ORIENTED_EDGE('',*,*,#97,.F.);
#193 = ORIENTED_EDGE('',*,*,#138,.T.);
#194 = ORIENTED_EDGE('',*,*,#195,.T.);
#195 = EDGE_CURVE('',#139,#196,#198,.T.);
#196 = VERTEX_POINT('',#197);
#197 = CARTESIAN_POINT('',(0.,30.,-35.));
#198 = LINE('',#199,#200);
#199 = CARTESIAN_POINT('',(0.,-30.,-35.));
#200 = VECTOR('',#201,1.);
#201 = DIRECTION('',(-0.,1.,0.));
#202 = ORIENTED_EDGE('',*,*,#203,.F.);
#203 = EDGE_CURVE('',#98,#196,#204,.T.);
#204 = LINE('',#205,#206);
#205 = CARTESIAN_POINT('',(-8.,30.,-35.));
#206 = VECTOR('',#207,1.);
#207 = DIRECTION('',(1.,0.,-0.));
#208 = PLANE('',#209);
#209 = AXIS2_PLACEMENT_3D('',#210,#211,#212);
#210 = CARTESIAN_POINT('',(-8.,-30.,-35.));
#211 = DIRECTION('',(0.,0.,1.));
#212 = DIRECTION('',(1.,0.,-0.));
#213 = ADVANCED_FACE('',(#214),#225,.T.);
#214 = FACE_BOUND('',#215,.T.);
#215 = EDGE_LOOP('',(#216,#217,#218,#219));
#216 = ORIENTED_EDGE('',*,*,#203,.F.);
#217 = ORIENTED_EDGE('',*,*,#105,.T.);
#218 = ORIENTED_EDGE('',*,*,#179,.T.);
#219 = ORIENTED_EDGE('',*,*,#220,.F.);
#220 = EDGE_CURVE('',#196,#172,#221,.T.);
#221 = LINE('',#222,#223);
#222 = CARTESIAN_POINT('',(0.,30.,-35.));
#223 = VECTOR('',#224,1.);
#224 = DIRECTION('',(0.,0.,1.));
#225 = PLANE('',#226);
#226 = AXIS2_PLACEMENT_3D('',#227,#228,#229);
#227 = CARTESIAN_POINT('',(-8.,30.,-35.));
#228 = DIRECTION('',(-0.,1.,0.));
#229 = DIRECTION('',(0.,0.,1.));
#230 = ADVANCED_FACE('',(#231),#250,.F.);
#231 = FACE_BOUND('',#232,.F.);
#232 = EDGE_LOOP('',(#233,#242,#248,#249));
#233 = ORIENTED_EDGE('',*,*,#234,.F.);
#234 = EDGE_CURVE('',#235,#235,#237,.T.);
#235 = VERTEX_POINT('',#236);
#236 = CARTESIAN_POINT('',(-0.5,7.347880794884E-16,3.));
#237 = CIRCLE('',#238,3.);
#238 = AXIS2_PLACEMENT_3D('',#239,#240,#241);
#239 = CARTESIAN_POINT('',(-0.5,0.,0.));
#240 = DIRECTION('',(1.,0.,0.));
#241 = DIRECTION('',(-0.,0.,1.));
#242 = ORIENTED_EDGE('',*,*,#243,.F.);
#243 = EDGE_CURVE('',#122,#235,#244,.T.);
#244 = LINE('',#245,#246);
#245 = CARTESIAN_POINT('',(-9.,7.347880794884E-16,3.));
#246 = VECTOR('',#247,1.);
#247 = DIRECTION('',(1.,0.,0.));
#248 = ORIENTED_EDGE('',*,*,#121,.T.);
#249 = ORIENTED_EDGE('',*,*,#243,.T.);
#250 = CYLINDRICAL_SURFACE('',#251,3.);
#251 = AXIS2_PLACEMENT_3D('',#252,#253,#254);
#252 = CARTESIAN_POINT('',(-9.,0.,0.));
#253 = DIRECTION('',(1.,0.,0.));
#254 = DIRECTION('',(-0.,0.,1.));
#255 = ADVANCED_FACE('',(#256,#262),#273,.T.);
#256 = FACE_BOUND('',#257,.T.);
#257 = EDGE_LOOP('',(#258,#259,#260,#261));
#258 = ORIENTED_EDGE('',*,*,#155,.F.);
#259 = ORIENTED_EDGE('',*,*,#195,.T.);
#260 = ORIENTED_EDGE('',*,*,#220,.T.);
#261 = ORIENTED_EDGE('',*,*,#171,.F.);
#262 = FACE_BOUND('',#263,.T.);
#263 = EDGE_LOOP('',(#264));
#264 = ORIENTED_EDGE('',*,*,#265,.F.);
#265 = EDGE_CURVE('',#266,#266,#268,.T.);
#266 = VERTEX_POINT('',#267);
#267 = CARTESIAN_POINT('',(0.,1.102182119233E-15,4.5));
#268 = CIRCLE('',#269,4.5);
#269 = AXIS2_PLACEMENT_3D('',#270,#271,#272);
#270 = CARTESIAN_POINT('',(0.,0.,0.));
#271 = DIRECTION('',(1.,0.,0.));
#272 = DIRECTION('',(-0.,0.,1.));
#273 = PLANE('',#274);
#274 = AXIS2_PLACEMENT_3D('',#275,#276,#277);
#275 = CARTESIAN_POINT('',(0.,-30.,-35.));
#276 = DIRECTION('',(1.,0.,-0.));
#277 = DIRECTION('',(0.,0.,1.));
#278 = ADVANCED_FACE('',(#279,#290),#293,.T.);
#279 = FACE_BOUND('',#280,.T.);
#280 = EDGE_LOOP('',(#281));
#281 = ORIENTED_EDGE('',*,*,#282,.T.);
#282 = EDGE_CURVE('',#283,#283,#285,.T.);
#283 = VERTEX_POINT('',#284);
#284 = CARTESIAN_POINT('',(-0.5,1.102182119233E-15,4.5));
#285 = CIRCLE('',#286,4.5);
#286 = AXIS2_PLACEMENT_3D('',#287,#288,#289);
#287 = CARTESIAN_POINT('',(-0.5,0.,0.));
#288 = DIRECTION('',(1.,0.,0.));
#289 = DIRECTION('',(-0.,0.,1.));
#290 = FACE_BOUND('',#291,.T.);
#291 = EDGE_LOOP('',(#292));
#292 = ORIENTED_EDGE('',*,*,#234,.F.);
#293 = PLANE('',#294);
#294 = AXIS2_PLACEMENT_3D('',#295,#296,#297);
#295 = CARTESIAN_POINT('',(-0.5,0.,0.));
#296 = DIRECTION('',(1.,0.,0.));
#297 = DIRECTION('',(-0.,0.,1.));
#298 = ADVANCED_FACE('',(#299),#310,.F.);
#299 = FACE_BOUND('',#300,.F.);
#300 = EDGE_LOOP('',(#301,#302,#308,#309));
#301 = ORIENTED_EDGE('',*,*,#265,.F.);
#302 = ORIENTED_EDGE('',*,*,#303,.F.);
#303 = EDGE_CURVE('',#283,#266,#304,.T.);
#304 = LINE('',#305,#306);
#305 = CARTESIAN_POINT('',(-0.5,1.102182119233E-15,4.5));
#306 = VECTOR('',#307,1.);
#307 = DIRECTION('',(1.,0.,0.));
#308 = ORIENTED_EDGE('',*,*,#282,.T.);
#309 = ORIENTED_EDGE('',*,*,#303,.T.);
#310 = CYLINDRICAL_SURFACE('',#311,4.5);
#311 = AXIS2_PLACEMENT_3D('',#312,#313,#314);
#312 = CARTESIAN_POINT('',(-0.5,0.,0.));
#313 = DIRECTION('',(1.,0.,0.));
#314 = DIRECTION('',(-0.,0.,1.));
#315 = ( GEOMETRIC_REPRESENTATION_CONTEXT(3) 
GLOBAL_UNCERTAINTY_ASSIGNED_CONTEXT((#319)) GLOBAL_UNIT_ASSIGNED_CONTEXT
((#316,#317,#318)) REPRESENTATION_CONTEXT('Context #1',
  '3D Context with UNIT and UNCERTAINTY') );
#316 = ( LENGTH_UNIT() NAMED_UNIT(*) SI_UNIT(.MILLI.,.METRE.) );
#317 = ( NAMED_UNIT(*) PLANE_ANGLE_UNIT() SI_UNIT($,.RADIAN.) );
#318 = ( NAMED_UNIT(*) SI_UNIT($,.STERADIAN.) SOLID_ANGLE_UNIT() );
#319 = UNCERTAINTY_MEASURE_WITH_UNIT(LENGTH_MEASURE(1.E-07),#316,
  'distance_accuracy_value','confusion accuracy');
#320 = CONTEXT_DEPENDENT_SHAPE_REPRESENTATION(#321,#323);
#321 = ( REPRESENTATION_RELATIONSHIP('','',#80,#10) 
REPRESENTATION_RELATIONSHIP_WITH_TRANSFORMATION(#322) 
SHAPE_REPRESENTATION_RELATIONSHIP() );
#322 = ITEM_DEFINED_TRANSFORMATION('','',#11,#15);
#323 = PRODUCT_DEFINITION_SHAPE('Placement','Placement of an item',#324
  );
#324 = NEXT_ASSEMBLY_USAGE_OCCURRENCE('1','reference_inner_mount_plate',
  '',#5,#75,$);
#325 = PRODUCT_RELATED_PRODUCT_CATEGORY('part',$,(#77));
#326 = SHAPE_DEFINITION_REPRESENTATION(#327,#333);
#327 = PRODUCT_DEFINITION_SHAPE('','',#328);
#328 = PRODUCT_DEFINITION('design','',#329,#332);
#329 = PRODUCT_DEFINITION_FORMATION('','',#330);
#330 = PRODUCT('reference_inner_reducer','reference_inner_reducer','',(
    #331));
#331 = PRODUCT_CONTEXT('',#2,'mechanical');
#332 = PRODUCT_DEFINITION_CONTEXT('part definition',#2,'design');
#333 = ADVANCED_BREP_SHAPE_REPRESENTATION('',(#11,#334),#426);
#334 = MANIFOLD_SOLID_BREP('',#335);
#335 = CLOSED_SHELL('',(#336,#369,#389,#409));
#336 = ADVANCED_FACE('',(#337),#364,.T.);
#337 = FACE_BOUND('',#338,.T.);
#338 = EDGE_LOOP('',(#339,#348,#356,#363));
#339 = ORIENTED_EDGE('',*,*,#340,.F.);
#340 = EDGE_CURVE('',#341,#341,#343,.T.);
#341 = VERTEX_POINT('',#342);
#342 = CARTESIAN_POINT('',(8.,7.347880794884E-16,3.));
#343 = CIRCLE('',#344,3.);
#344 = AXIS2_PLACEMENT_3D('',#345,#346,#347);
#345 = CARTESIAN_POINT('',(8.,0.,0.));
#346 = DIRECTION('',(1.,0.,0.));
#347 = DIRECTION('',(-0.,0.,1.));
#348 = ORIENTED_EDGE('',*,*,#349,.F.);
#349 = EDGE_CURVE('',#350,#341,#352,.T.);
#350 = VERTEX_POINT('',#351);
#351 = CARTESIAN_POINT('',(0.,7.347880794884E-16,3.));
#352 = LINE('',#353,#354);
#353 = CARTESIAN_POINT('',(0.,7.347880794884E-16,3.));
#354 = VECTOR('',#355,1.);
#355 = DIRECTION('',(1.,0.,0.));
#356 = ORIENTED_EDGE('',*,*,#357,.T.);
#357 = EDGE_CURVE('',#350,#350,#358,.T.);
#358 = CIRCLE('',#359,3.);
#359 = AXIS2_PLACEMENT_3D('',#360,#361,#362);
#360 = CARTESIAN_POINT('',(0.,0.,0.));
#361 = DIRECTION('',(1.,0.,0.));
#362 = DIRECTION('',(-0.,0.,1.));
#363 = ORIENTED_EDGE('',*,*,#349,.T.);
#364 = CYLINDRICAL_SURFACE('',#365,3.);
#365 = AXIS2_PLACEMENT_3D('',#366,#367,#368);
#366 = CARTESIAN_POINT('',(0.,0.,0.));
#367 = DIRECTION('',(1.,0.,0.));
#368 = DIRECTION('',(-0.,0.,1.));
#369 = ADVANCED_FACE('',(#370,#373),#384,.T.);
#370 = FACE_BOUND('',#371,.T.);
#371 = EDGE_LOOP('',(#372));
#372 = ORIENTED_EDGE('',*,*,#340,.T.);
#373 = FACE_BOUND('',#374,.T.);
#374 = EDGE_LOOP('',(#375));
#375 = ORIENTED_EDGE('',*,*,#376,.F.);
#376 = EDGE_CURVE('',#377,#377,#379,.T.);
#377 = VERTEX_POINT('',#378);
#378 = CARTESIAN_POINT('',(8.,6.123233995737E-16,2.5));
#379 = CIRCLE('',#380,2.5);
#380 = AXIS2_PLACEMENT_3D('',#381,#382,#383);
#381 = CARTESIAN_POINT('',(8.,0.,0.));
#382 = DIRECTION('',(1.,0.,0.));
#383 = DIRECTION('',(-0.,0.,1.));
#384 = PLANE('',#385);
#385 = AXIS2_PLACEMENT_3D('',#386,#387,#388);
#386 = CARTESIAN_POINT('',(8.,0.,0.));
#387 = DIRECTION('',(1.,0.,0.));
#388 = DIRECTION('',(-0.,0.,1.));
#389 = ADVANCED_FACE('',(#390,#393),#404,.F.);
#390 = FACE_BOUND('',#391,.F.);
#391 = EDGE_LOOP('',(#392));
#392 = ORIENTED_EDGE('',*,*,#357,.T.);
#393 = FACE_BOUND('',#394,.F.);
#394 = EDGE_LOOP('',(#395));
#395 = ORIENTED_EDGE('',*,*,#396,.F.);
#396 = EDGE_CURVE('',#397,#397,#399,.T.);
#397 = VERTEX_POINT('',#398);
#398 = CARTESIAN_POINT('',(0.,6.123233995737E-16,2.5));
#399 = CIRCLE('',#400,2.5);
#400 = AXIS2_PLACEMENT_3D('',#401,#402,#403);
#401 = CARTESIAN_POINT('',(0.,0.,0.));
#402 = DIRECTION('',(1.,0.,0.));
#403 = DIRECTION('',(-0.,0.,1.));
#404 = PLANE('',#405);
#405 = AXIS2_PLACEMENT_3D('',#406,#407,#408);
#406 = CARTESIAN_POINT('',(0.,0.,0.));
#407 = DIRECTION('',(1.,0.,0.));
#408 = DIRECTION('',(-0.,0.,1.));
#409 = ADVANCED_FACE('',(#410),#421,.F.);
#410 = FACE_BOUND('',#411,.F.);
#411 = EDGE_LOOP('',(#412,#413,#419,#420));
#412 = ORIENTED_EDGE('',*,*,#376,.F.);
#413 = ORIENTED_EDGE('',*,*,#414,.F.);
#414 = EDGE_CURVE('',#397,#377,#415,.T.);
#415 = LINE('',#416,#417);
#416 = CARTESIAN_POINT('',(-1.,6.123233995737E-16,2.5));
#417 = VECTOR('',#418,1.);
#418 = DIRECTION('',(1.,0.,0.));
#419 = ORIENTED_EDGE('',*,*,#396,.T.);
#420 = ORIENTED_EDGE('',*,*,#414,.T.);
#421 = CYLINDRICAL_SURFACE('',#422,2.5);
#422 = AXIS2_PLACEMENT_3D('',#423,#424,#425);
#423 = CARTESIAN_POINT('',(-1.,0.,0.));
#424 = DIRECTION('',(1.,0.,0.));
#425 = DIRECTION('',(-0.,0.,1.));
#426 = ( GEOMETRIC_REPRESENTATION_CONTEXT(3) 
GLOBAL_UNCERTAINTY_ASSIGNED_CONTEXT((#430)) GLOBAL_UNIT_ASSIGNED_CONTEXT
((#427,#428,#429)) REPRESENTATION_CONTEXT('Context #1',
  '3D Context with UNIT and UNCERTAINTY') );
#427 = ( LENGTH_UNIT() NAMED_UNIT(*) SI_UNIT(.MILLI.,.METRE.) );
#428 = ( NAMED_UNIT(*) PLANE_ANGLE_UNIT() SI_UNIT($,.RADIAN.) );
#429 = ( NAMED_UNIT(*) SI_UNIT($,.STERADIAN.) SOLID_ANGLE_UNIT() );
#430 = UNCERTAINTY_MEASURE_WITH_UNIT(LENGTH_MEASURE(1.E-07),#427,
  'distance_accuracy_value','confusion accuracy');
#431 = CONTEXT_DEPENDENT_SHAPE_REPRESENTATION(#432,#434);
#432 = ( REPRESENTATION_RELATIONSHIP('','',#333,#10) 
REPRESENTATION_RELATIONSHIP_WITH_TRANSFORMATION(#433) 
SHAPE_REPRESENTATION_RELATIONSHIP() );
#433 = ITEM_DEFINED_TRANSFORMATION('','',#11,#19);
#434 = PRODUCT_DEFINITION_SHAPE('Placement','Placement of an item',#435
  );
#435 = NEXT_ASSEMBLY_USAGE_OCCURRENCE('2','reference_inner_reducer','',
  #5,#328,$);
#436 = PRODUCT_RELATED_PRODUCT_CATEGORY('part',$,(#330));
#437 = SHAPE_DEFINITION_REPRESENTATION(#438,#444);
#438 = PRODUCT_DEFINITION_SHAPE('','',#439);
#439 = PRODUCT_DEFINITION('design','',#440,#443);
#440 = PRODUCT_DEFINITION_FORMATION('','',#441);
#441 = PRODUCT('reference_inner_thrust_washer',
  'reference_inner_thrust_washer','',(#442));
#442 = PRODUCT_CONTEXT('',#2,'mechanical');
#443 = PRODUCT_DEFINITION_CONTEXT('part definition',#2,'design');
#444 = ADVANCED_BREP_SHAPE_REPRESENTATION('',(#11,#445),#537);
#445 = MANIFOLD_SOLID_BREP('',#446);
#446 = CLOSED_SHELL('',(#447,#480,#500,#520));
#447 = ADVANCED_FACE('',(#448),#475,.T.);
#448 = FACE_BOUND('',#449,.T.);
#449 = EDGE_LOOP('',(#450,#459,#467,#474));
#450 = ORIENTED_EDGE('',*,*,#451,.F.);
#451 = EDGE_CURVE('',#452,#452,#454,.T.);
#452 = VERTEX_POINT('',#453);
#453 = CARTESIAN_POINT('',(0.5,1.102182119233E-15,4.5));
#454 = CIRCLE('',#455,4.5);
#455 = AXIS2_PLACEMENT_3D('',#456,#457,#458);
#456 = CARTESIAN_POINT('',(0.5,0.,0.));
#457 = DIRECTION('',(1.,0.,0.));
#458 = DIRECTION('',(-0.,0.,1.));
#459 = ORIENTED_EDGE('',*,*,#460,.F.);
#460 = EDGE_CURVE('',#461,#452,#463,.T.);
#461 = VERTEX_POINT('',#462);
#462 = CARTESIAN_POINT('',(0.,1.102182119233E-15,4.5));
#463 = LINE('',#464,#465);
#464 = CARTESIAN_POINT('',(0.,1.102182119233E-15,4.5));
#465 = VECTOR('',#466,1.);
#466 = DIRECTION('',(1.,0.,0.));
#467 = ORIENTED_EDGE('',*,*,#468,.T.);
#468 = EDGE_CURVE('',#461,#461,#469,.T.);
#469 = CIRCLE('',#470,4.5);
#470 = AXIS2_PLACEMENT_3D('',#471,#472,#473);
#471 = CARTESIAN_POINT('',(0.,0.,0.));
#472 = DIRECTION('',(1.,0.,0.));
#473 = DIRECTION('',(-0.,0.,1.));
#474 = ORIENTED_EDGE('',*,*,#460,.T.);
#475 = CYLINDRICAL_SURFACE('',#476,4.5);
#476 = AXIS2_PLACEMENT_3D('',#477,#478,#479);
#477 = CARTESIAN_POINT('',(0.,0.,0.));
#478 = DIRECTION('',(1.,0.,0.));
#479 = DIRECTION('',(-0.,0.,1.));
#480 = ADVANCED_FACE('',(#481,#484),#495,.T.);
#481 = FACE_BOUND('',#482,.T.);
#482 = EDGE_LOOP('',(#483));
#483 = ORIENTED_EDGE('',*,*,#451,.T.);
#484 = FACE_BOUND('',#485,.T.);
#485 = EDGE_LOOP('',(#486));
#486 = ORIENTED_EDGE('',*,*,#487,.F.);
#487 = EDGE_CURVE('',#488,#488,#490,.T.);
#488 = VERTEX_POINT('',#489);
#489 = CARTESIAN_POINT('',(0.5,6.368163355566E-16,2.6));
#490 = CIRCLE('',#491,2.6);
#491 = AXIS2_PLACEMENT_3D('',#492,#493,#494);
#492 = CARTESIAN_POINT('',(0.5,0.,0.));
#493 = DIRECTION('',(1.,0.,0.));
#494 = DIRECTION('',(-0.,0.,1.));
#495 = PLANE('',#496);
#496 = AXIS2_PLACEMENT_3D('',#497,#498,#499);
#497 = CARTESIAN_POINT('',(0.5,0.,0.));
#498 = DIRECTION('',(1.,0.,0.));
#499 = DIRECTION('',(-0.,0.,1.));
#500 = ADVANCED_FACE('',(#501,#504),#515,.F.);
#501 = FACE_BOUND('',#502,.F.);
#502 = EDGE_LOOP('',(#503));
#503 = ORIENTED_EDGE('',*,*,#468,.T.);
#504 = FACE_BOUND('',#505,.F.);
#505 = EDGE_LOOP('',(#506));
#506 = ORIENTED_EDGE('',*,*,#507,.F.);
#507 = EDGE_CURVE('',#508,#508,#510,.T.);
#508 = VERTEX_POINT('',#509);
#509 = CARTESIAN_POINT('',(0.,6.368163355566E-16,2.6));
#510 = CIRCLE('',#511,2.6);
#511 = AXIS2_PLACEMENT_3D('',#512,#513,#514);
#512 = CARTESIAN_POINT('',(0.,0.,0.));
#513 = DIRECTION('',(1.,0.,0.));
#514 = DIRECTION('',(-0.,0.,1.));
#515 = PLANE('',#516);
#516 = AXIS2_PLACEMENT_3D('',#517,#518,#519);
#517 = CARTESIAN_POINT('',(0.,0.,0.));
#518 = DIRECTION('',(1.,0.,0.));
#519 = DIRECTION('',(-0.,0.,1.));
#520 = ADVANCED_FACE('',(#521),#532,.F.);
#521 = FACE_BOUND('',#522,.F.);
#522 = EDGE_LOOP('',(#523,#524,#530,#531));
#523 = ORIENTED_EDGE('',*,*,#487,.F.);
#524 = ORIENTED_EDGE('',*,*,#525,.F.);
#525 = EDGE_CURVE('',#508,#488,#526,.T.);
#526 = LINE('',#527,#528);
#527 = CARTESIAN_POINT('',(-1.,6.368163355566E-16,2.6));
#528 = VECTOR('',#529,1.);
#529 = DIRECTION('',(1.,0.,0.));
#530 = ORIENTED_EDGE('',*,*,#507,.T.);
#531 = ORIENTED_EDGE('',*,*,#525,.T.);
#532 = CYLINDRICAL_SURFACE('',#533,2.6);
#533 = AXIS2_PLACEMENT_3D('',#534,#535,#536);
#534 = CARTESIAN_POINT('',(-1.,0.,0.));
#535 = DIRECTION('',(1.,0.,0.));
#536 = DIRECTION('',(-0.,0.,1.));
#537 = ( GEOMETRIC_REPRESENTATION_CONTEXT(3) 
GLOBAL_UNCERTAINTY_ASSIGNED_CONTEXT((#541)) GLOBAL_UNIT_ASSIGNED_CONTEXT
((#538,#539,#540)) REPRESENTATION_CONTEXT('Context #1',
  '3D Context with UNIT and UNCERTAINTY') );
#538 = ( LENGTH_UNIT() NAMED_UNIT(*) SI_UNIT(.MILLI.,.METRE.) );
#539 = ( NAMED_UNIT(*) PLANE_ANGLE_UNIT() SI_UNIT($,.RADIAN.) );
#540 = ( NAMED_UNIT(*) SI_UNIT($,.STERADIAN.) SOLID_ANGLE_UNIT() );
#541 = UNCERTAINTY_MEASURE_WITH_UNIT(LENGTH_MEASURE(1.E-07),#538,
  'distance_accuracy_value','confusion accuracy');
#542 = CONTEXT_DEPENDENT_SHAPE_REPRESENTATION(#543,#545);
#543 = ( REPRESENTATION_RELATIONSHIP('','',#444,#10) 
REPRESENTATION_RELATIONSHIP_WITH_TRANSFORMATION(#544) 
SHAPE_REPRESENTATION_RELATIONSHIP() );
#544 = ITEM_DEFINED_TRANSFORMATION('','',#11,#23);
#545 = PRODUCT_DEFINITION_SHAPE('Placement','Placement of an item',#546
  );
#546 = NEXT_ASSEMBLY_USAGE_OCCURRENCE('3',
  'reference_inner_thrust_washer','',#5,#439,$);
#547 = PRODUCT_RELATED_PRODUCT_CATEGORY('part',$,(#441));
#548 = SHAPE_DEFINITION_REPRESENTATION(#549,#555);
#549 = PRODUCT_DEFINITION_SHAPE('','',#550);
#550 = PRODUCT_DEFINITION('design','',#551,#554);
#551 = PRODUCT_DEFINITION_FORMATION('','',#552);
#552 = PRODUCT('reference_existing_40mm_guide_roller',
  'reference_existing_40mm_guide_roller','',(#553));
#553 = PRODUCT_CONTEXT('',#2,'mechanical');
#554 = PRODUCT_DEFINITION_CONTEXT('part definition',#2,'design');
#555 = ADVANCED_BREP_SHAPE_REPRESENTATION('',(#11,#556),#648);
#556 = MANIFOLD_SOLID_BREP('',#557);
#557 = CLOSED_SHELL('',(#558,#591,#611,#631));
#558 = ADVANCED_FACE('',(#559),#586,.T.);
#559 = FACE_BOUND('',#560,.T.);
#560 = EDGE_LOOP('',(#561,#570,#578,#585));
#561 = ORIENTED_EDGE('',*,*,#562,.F.);
#562 = EDGE_CURVE('',#563,#563,#565,.T.);
#563 = VERTEX_POINT('',#564);
#564 = CARTESIAN_POINT('',(10.,4.898587196589E-15,20.));
#565 = CIRCLE('',#566,20.);
#566 = AXIS2_PLACEMENT_3D('',#567,#568,#569);
#567 = CARTESIAN_POINT('',(10.,0.,0.));
#568 = DIRECTION('',(1.,0.,0.));
#569 = DIRECTION('',(-0.,0.,1.));
#570 = ORIENTED_EDGE('',*,*,#571,.F.);
#571 = EDGE_CURVE('',#572,#563,#574,.T.);
#572 = VERTEX_POINT('',#573);
#573 = CARTESIAN_POINT('',(0.,4.898587196589E-15,20.));
#574 = LINE('',#575,#576);
#575 = CARTESIAN_POINT('',(0.,4.898587196589E-15,20.));
#576 = VECTOR('',#577,1.);
#577 = DIRECTION('',(1.,0.,0.));
#578 = ORIENTED_EDGE('',*,*,#579,.T.);
#579 = EDGE_CURVE('',#572,#572,#580,.T.);
#580 = CIRCLE('',#581,20.);
#581 = AXIS2_PLACEMENT_3D('',#582,#583,#584);
#582 = CARTESIAN_POINT('',(0.,0.,0.));
#583 = DIRECTION('',(1.,0.,0.));
#584 = DIRECTION('',(-0.,0.,1.));
#585 = ORIENTED_EDGE('',*,*,#571,.T.);
#586 = CYLINDRICAL_SURFACE('',#587,20.);
#587 = AXIS2_PLACEMENT_3D('',#588,#589,#590);
#588 = CARTESIAN_POINT('',(0.,0.,0.));
#589 = DIRECTION('',(1.,0.,0.));
#590 = DIRECTION('',(-0.,0.,1.));
#591 = ADVANCED_FACE('',(#592,#595),#606,.T.);
#592 = FACE_BOUND('',#593,.T.);
#593 = EDGE_LOOP('',(#594));
#594 = ORIENTED_EDGE('',*,*,#562,.T.);
#595 = FACE_BOUND('',#596,.T.);
#596 = EDGE_LOOP('',(#597));
#597 = ORIENTED_EDGE('',*,*,#598,.F.);
#598 = EDGE_CURVE('',#599,#599,#601,.T.);
#599 = VERTEX_POINT('',#600);
#600 = CARTESIAN_POINT('',(10.,7.347880794884E-16,3.));
#601 = CIRCLE('',#602,3.);
#602 = AXIS2_PLACEMENT_3D('',#603,#604,#605);
#603 = CARTESIAN_POINT('',(10.,0.,0.));
#604 = DIRECTION('',(1.,0.,0.));
#605 = DIRECTION('',(-0.,0.,1.));
#606 = PLANE('',#607);
#607 = AXIS2_PLACEMENT_3D('',#608,#609,#610);
#608 = CARTESIAN_POINT('',(10.,0.,0.));
#609 = DIRECTION('',(1.,0.,0.));
#610 = DIRECTION('',(-0.,0.,1.));
#611 = ADVANCED_FACE('',(#612,#615),#626,.F.);
#612 = FACE_BOUND('',#613,.F.);
#613 = EDGE_LOOP('',(#614));
#614 = ORIENTED_EDGE('',*,*,#579,.T.);
#615 = FACE_BOUND('',#616,.F.);
#616 = EDGE_LOOP('',(#617));
#617 = ORIENTED_EDGE('',*,*,#618,.F.);
#618 = EDGE_CURVE('',#619,#619,#621,.T.);
#619 = VERTEX_POINT('',#620);
#620 = CARTESIAN_POINT('',(0.,7.347880794884E-16,3.));
#621 = CIRCLE('',#622,3.);
#622 = AXIS2_PLACEMENT_3D('',#623,#624,#625);
#623 = CARTESIAN_POINT('',(0.,0.,0.));
#624 = DIRECTION('',(1.,0.,0.));
#625 = DIRECTION('',(-0.,0.,1.));
#626 = PLANE('',#627);
#627 = AXIS2_PLACEMENT_3D('',#628,#629,#630);
#628 = CARTESIAN_POINT('',(0.,0.,0.));
#629 = DIRECTION('',(1.,0.,0.));
#630 = DIRECTION('',(-0.,0.,1.));
#631 = ADVANCED_FACE('',(#632),#643,.F.);
#632 = FACE_BOUND('',#633,.F.);
#633 = EDGE_LOOP('',(#634,#635,#641,#642));
#634 = ORIENTED_EDGE('',*,*,#598,.F.);
#635 = ORIENTED_EDGE('',*,*,#636,.F.);
#636 = EDGE_CURVE('',#619,#599,#637,.T.);
#637 = LINE('',#638,#639);
#638 = CARTESIAN_POINT('',(-1.,7.347880794884E-16,3.));
#639 = VECTOR('',#640,1.);
#640 = DIRECTION('',(1.,0.,0.));
#641 = ORIENTED_EDGE('',*,*,#618,.T.);
#642 = ORIENTED_EDGE('',*,*,#636,.T.);
#643 = CYLINDRICAL_SURFACE('',#644,3.);
#644 = AXIS2_PLACEMENT_3D('',#645,#646,#647);
#645 = CARTESIAN_POINT('',(-1.,0.,0.));
#646 = DIRECTION('',(1.,0.,0.));
#647 = DIRECTION('',(-0.,0.,1.));
#648 = ( GEOMETRIC_REPRESENTATION_CONTEXT(3) 
GLOBAL_UNCERTAINTY_ASSIGNED_CONTEXT((#652)) GLOBAL_UNIT_ASSIGNED_CONTEXT
((#649,#650,#651)) REPRESENTATION_CONTEXT('Context #1',
  '3D Context with UNIT and UNCERTAINTY') );
#649 = ( LENGTH_UNIT() NAMED_UNIT(*) SI_UNIT(.MILLI.,.METRE.) );
#650 = ( NAMED_UNIT(*) PLANE_ANGLE_UNIT() SI_UNIT($,.RADIAN.) );
#651 = ( NAMED_UNIT(*) SI_UNIT($,.STERADIAN.) SOLID_ANGLE_UNIT() );
#652 = UNCERTAINTY_MEASURE_WITH_UNIT(LENGTH_MEASURE(1.E-07),#649,
  'distance_accuracy_value','confusion accuracy');
#653 = CONTEXT_DEPENDENT_SHAPE_REPRESENTATION(#654,#656);
#654 = ( REPRESENTATION_RELATIONSHIP('','',#555,#10) 
REPRESENTATION_RELATIONSHIP_WITH_TRANSFORMATION(#655) 
SHAPE_REPRESENTATION_RELATIONSHIP() );
#655 = ITEM_DEFINED_TRANSFORMATION('','',#11,#27);
#656 = PRODUCT_DEFINITION_SHAPE('Placement','Placement of an item',#657
  );
#657 = NEXT_ASSEMBLY_USAGE_OCCURRENCE('4',
  'reference_existing_40mm_guide_roller','',#5,#550,$);
#658 = PRODUCT_RELATED_PRODUCT_CATEGORY('part',$,(#552));
#659 = SHAPE_DEFINITION_REPRESENTATION(#660,#666);
#660 = PRODUCT_DEFINITION_SHAPE('','',#661);
#661 = PRODUCT_DEFINITION('design','',#662,#665);
#662 = PRODUCT_DEFINITION_FORMATION('','',#663);
#663 = PRODUCT('reference_roller_bushing','reference_roller_bushing','',
  (#664));
#664 = PRODUCT_CONTEXT('',#2,'mechanical');
#665 = PRODUCT_DEFINITION_CONTEXT('part definition',#2,'design');
#666 = ADVANCED_BREP_SHAPE_REPRESENTATION('',(#11,#667),#759);
#667 = MANIFOLD_SOLID_BREP('',#668);
#668 = CLOSED_SHELL('',(#669,#702,#722,#742));
#669 = ADVANCED_FACE('',(#670),#697,.T.);
#670 = FACE_BOUND('',#671,.T.);
#671 = EDGE_LOOP('',(#672,#681,#689,#696));
#672 = ORIENTED_EDGE('',*,*,#673,.F.);
#673 = EDGE_CURVE('',#674,#674,#676,.T.);
#674 = VERTEX_POINT('',#675);
#675 = CARTESIAN_POINT('',(10.,7.347880794884E-16,3.));
#676 = CIRCLE('',#677,3.);
#677 = AXIS2_PLACEMENT_3D('',#678,#679,#680);
#678 = CARTESIAN_POINT('',(10.,0.,0.));
#679 = DIRECTION('',(1.,0.,0.));
#680 = DIRECTION('',(-0.,0.,1.));
#681 = ORIENTED_EDGE('',*,*,#682,.F.);
#682 = EDGE_CURVE('',#683,#674,#685,.T.);
#683 = VERTEX_POINT('',#684);
#684 = CARTESIAN_POINT('',(0.,7.347880794884E-16,3.));
#685 = LINE('',#686,#687);
#686 = CARTESIAN_POINT('',(0.,7.347880794884E-16,3.));
#687 = VECTOR('',#688,1.);
#688 = DIRECTION('',(1.,0.,0.));
#689 = ORIENTED_EDGE('',*,*,#690,.T.);
#690 = EDGE_CURVE('',#683,#683,#691,.T.);
#691 = CIRCLE('',#692,3.);
#692 = AXIS2_PLACEMENT_3D('',#693,#694,#695);
#693 = CARTESIAN_POINT('',(0.,0.,0.));
#694 = DIRECTION('',(1.,0.,0.));
#695 = DIRECTION('',(-0.,0.,1.));
#696 = ORIENTED_EDGE('',*,*,#682,.T.);
#697 = CYLINDRICAL_SURFACE('',#698,3.);
#698 = AXIS2_PLACEMENT_3D('',#699,#700,#701);
#699 = CARTESIAN_POINT('',(0.,0.,0.));
#700 = DIRECTION('',(1.,0.,0.));
#701 = DIRECTION('',(-0.,0.,1.));
#702 = ADVANCED_FACE('',(#703,#706),#717,.T.);
#703 = FACE_BOUND('',#704,.T.);
#704 = EDGE_LOOP('',(#705));
#705 = ORIENTED_EDGE('',*,*,#673,.T.);
#706 = FACE_BOUND('',#707,.T.);
#707 = EDGE_LOOP('',(#708));
#708 = ORIENTED_EDGE('',*,*,#709,.F.);
#709 = EDGE_CURVE('',#710,#710,#712,.T.);
#710 = VERTEX_POINT('',#711);
#711 = CARTESIAN_POINT('',(10.,6.123233995737E-16,2.5));
#712 = CIRCLE('',#713,2.5);
#713 = AXIS2_PLACEMENT_3D('',#714,#715,#716);
#714 = CARTESIAN_POINT('',(10.,0.,0.));
#715 = DIRECTION('',(1.,0.,0.));
#716 = DIRECTION('',(-0.,0.,1.));
#717 = PLANE('',#718);
#718 = AXIS2_PLACEMENT_3D('',#719,#720,#721);
#719 = CARTESIAN_POINT('',(10.,0.,0.));
#720 = DIRECTION('',(1.,0.,0.));
#721 = DIRECTION('',(-0.,0.,1.));
#722 = ADVANCED_FACE('',(#723,#726),#737,.F.);
#723 = FACE_BOUND('',#724,.F.);
#724 = EDGE_LOOP('',(#725));
#725 = ORIENTED_EDGE('',*,*,#690,.T.);
#726 = FACE_BOUND('',#727,.F.);
#727 = EDGE_LOOP('',(#728));
#728 = ORIENTED_EDGE('',*,*,#729,.F.);
#729 = EDGE_CURVE('',#730,#730,#732,.T.);
#730 = VERTEX_POINT('',#731);
#731 = CARTESIAN_POINT('',(0.,6.123233995737E-16,2.5));
#732 = CIRCLE('',#733,2.5);
#733 = AXIS2_PLACEMENT_3D('',#734,#735,#736);
#734 = CARTESIAN_POINT('',(0.,0.,0.));
#735 = DIRECTION('',(1.,0.,0.));
#736 = DIRECTION('',(-0.,0.,1.));
#737 = PLANE('',#738);
#738 = AXIS2_PLACEMENT_3D('',#739,#740,#741);
#739 = CARTESIAN_POINT('',(0.,0.,0.));
#740 = DIRECTION('',(1.,0.,0.));
#741 = DIRECTION('',(-0.,0.,1.));
#742 = ADVANCED_FACE('',(#743),#754,.F.);
#743 = FACE_BOUND('',#744,.F.);
#744 = EDGE_LOOP('',(#745,#746,#752,#753));
#745 = ORIENTED_EDGE('',*,*,#709,.F.);
#746 = ORIENTED_EDGE('',*,*,#747,.F.);
#747 = EDGE_CURVE('',#730,#710,#748,.T.);
#748 = LINE('',#749,#750);
#749 = CARTESIAN_POINT('',(-1.,6.123233995737E-16,2.5));
#750 = VECTOR('',#751,1.);
#751 = DIRECTION('',(1.,0.,0.));
#752 = ORIENTED_EDGE('',*,*,#729,.T.);
#753 = ORIENTED_EDGE('',*,*,#747,.T.);
#754 = CYLINDRICAL_SURFACE('',#755,2.5);
#755 = AXIS2_PLACEMENT_3D('',#756,#757,#758);
#756 = CARTESIAN_POINT('',(-1.,0.,0.));
#757 = DIRECTION('',(1.,0.,0.));
#758 = DIRECTION('',(-0.,0.,1.));
#759 = ( GEOMETRIC_REPRESENTATION_CONTEXT(3) 
GLOBAL_UNCERTAINTY_ASSIGNED_CONTEXT((#763)) GLOBAL_UNIT_ASSIGNED_CONTEXT
((#760,#761,#762)) REPRESENTATION_CONTEXT('Context #1',
  '3D Context with UNIT and UNCERTAINTY') );
#760 = ( LENGTH_UNIT() NAMED_UNIT(*) SI_UNIT(.MILLI.,.METRE.) );
#761 = ( NAMED_UNIT(*) PLANE_ANGLE_UNIT() SI_UNIT($,.RADIAN.) );
#762 = ( NAMED_UNIT(*) SI_UNIT($,.STERADIAN.) SOLID_ANGLE_UNIT() );
#763 = UNCERTAINTY_MEASURE_WITH_UNIT(LENGTH_MEASURE(1.E-07),#760,
  'distance_accuracy_value','confusion accuracy');
#764 = CONTEXT_DEPENDENT_SHAPE_REPRESENTATION(#765,#767);
#765 = ( REPRESENTATION_RELATIONSHIP('','',#666,#10) 
REPRESENTATION_RELATIONSHIP_WITH_TRANSFORMATION(#766) 
SHAPE_REPRESENTATION_RELATIONSHIP() );
#766 = ITEM_DEFINED_TRANSFORMATION('','',#11,#31);
#767 = PRODUCT_DEFINITION_SHAPE('Placement','Placement of an item',#768
  );
#768 = NEXT_ASSEMBLY_USAGE_OCCURRENCE('5','reference_roller_bushing','',
  #5,#661,$);
#769 = PRODUCT_RELATED_PRODUCT_CATEGORY('part',$,(#663));
#770 = SHAPE_DEFINITION_REPRESENTATION(#771,#777);
#771 = PRODUCT_DEFINITION_SHAPE('','',#772);
#772 = PRODUCT_DEFINITION('design','',#773,#776);
#773 = PRODUCT_DEFINITION_FORMATION('','',#774);
#774 = PRODUCT('reference_outer_thrust_washer',
  'reference_outer_thrust_washer','',(#775));
#775 = PRODUCT_CONTEXT('',#2,'mechanical');
#776 = PRODUCT_DEFINITION_CONTEXT('part definition',#2,'design');
#777 = ADVANCED_BREP_SHAPE_REPRESENTATION('',(#11,#778),#870);
#778 = MANIFOLD_SOLID_BREP('',#779);
#779 = CLOSED_SHELL('',(#780,#813,#833,#853));
#780 = ADVANCED_FACE('',(#781),#808,.T.);
#781 = FACE_BOUND('',#782,.T.);
#782 = EDGE_LOOP('',(#783,#792,#800,#807));
#783 = ORIENTED_EDGE('',*,*,#784,.F.);
#784 = EDGE_CURVE('',#785,#785,#787,.T.);
#785 = VERTEX_POINT('',#786);
#786 = CARTESIAN_POINT('',(0.5,1.102182119233E-15,4.5));
#787 = CIRCLE('',#788,4.5);
#788 = AXIS2_PLACEMENT_3D('',#789,#790,#791);
#789 = CARTESIAN_POINT('',(0.5,0.,0.));
#790 = DIRECTION('',(1.,0.,0.));
#791 = DIRECTION('',(-0.,0.,1.));
#792 = ORIENTED_EDGE('',*,*,#793,.F.);
#793 = EDGE_CURVE('',#794,#785,#796,.T.);
#794 = VERTEX_POINT('',#795);
#795 = CARTESIAN_POINT('',(0.,1.102182119233E-15,4.5));
#796 = LINE('',#797,#798);
#797 = CARTESIAN_POINT('',(0.,1.102182119233E-15,4.5));
#798 = VECTOR('',#799,1.);
#799 = DIRECTION('',(1.,0.,0.));
#800 = ORIENTED_EDGE('',*,*,#801,.T.);
#801 = EDGE_CURVE('',#794,#794,#802,.T.);
#802 = CIRCLE('',#803,4.5);
#803 = AXIS2_PLACEMENT_3D('',#804,#805,#806);
#804 = CARTESIAN_POINT('',(0.,0.,0.));
#805 = DIRECTION('',(1.,0.,0.));
#806 = DIRECTION('',(-0.,0.,1.));
#807 = ORIENTED_EDGE('',*,*,#793,.T.);
#808 = CYLINDRICAL_SURFACE('',#809,4.5);
#809 = AXIS2_PLACEMENT_3D('',#810,#811,#812);
#810 = CARTESIAN_POINT('',(0.,0.,0.));
#811 = DIRECTION('',(1.,0.,0.));
#812 = DIRECTION('',(-0.,0.,1.));
#813 = ADVANCED_FACE('',(#814,#817),#828,.T.);
#814 = FACE_BOUND('',#815,.T.);
#815 = EDGE_LOOP('',(#816));
#816 = ORIENTED_EDGE('',*,*,#784,.T.);
#817 = FACE_BOUND('',#818,.T.);
#818 = EDGE_LOOP('',(#819));
#819 = ORIENTED_EDGE('',*,*,#820,.F.);
#820 = EDGE_CURVE('',#821,#821,#823,.T.);
#821 = VERTEX_POINT('',#822);
#822 = CARTESIAN_POINT('',(0.5,6.368163355566E-16,2.6));
#823 = CIRCLE('',#824,2.6);
#824 = AXIS2_PLACEMENT_3D('',#825,#826,#827);
#825 = CARTESIAN_POINT('',(0.5,0.,0.));
#826 = DIRECTION('',(1.,0.,0.));
#827 = DIRECTION('',(-0.,0.,1.));
#828 = PLANE('',#829);
#829 = AXIS2_PLACEMENT_3D('',#830,#831,#832);
#830 = CARTESIAN_POINT('',(0.5,0.,0.));
#831 = DIRECTION('',(1.,0.,0.));
#832 = DIRECTION('',(-0.,0.,1.));
#833 = ADVANCED_FACE('',(#834,#837),#848,.F.);
#834 = FACE_BOUND('',#835,.F.);
#835 = EDGE_LOOP('',(#836));
#836 = ORIENTED_EDGE('',*,*,#801,.T.);
#837 = FACE_BOUND('',#838,.F.);
#838 = EDGE_LOOP('',(#839));
#839 = ORIENTED_EDGE('',*,*,#840,.F.);
#840 = EDGE_CURVE('',#841,#841,#843,.T.);
#841 = VERTEX_POINT('',#842);
#842 = CARTESIAN_POINT('',(0.,6.368163355566E-16,2.6));
#843 = CIRCLE('',#844,2.6);
#844 = AXIS2_PLACEMENT_3D('',#845,#846,#847);
#845 = CARTESIAN_POINT('',(0.,0.,0.));
#846 = DIRECTION('',(1.,0.,0.));
#847 = DIRECTION('',(-0.,0.,1.));
#848 = PLANE('',#849);
#849 = AXIS2_PLACEMENT_3D('',#850,#851,#852);
#850 = CARTESIAN_POINT('',(0.,0.,0.));
#851 = DIRECTION('',(1.,0.,0.));
#852 = DIRECTION('',(-0.,0.,1.));
#853 = ADVANCED_FACE('',(#854),#865,.F.);
#854 = FACE_BOUND('',#855,.F.);
#855 = EDGE_LOOP('',(#856,#857,#863,#864));
#856 = ORIENTED_EDGE('',*,*,#820,.F.);
#857 = ORIENTED_EDGE('',*,*,#858,.F.);
#858 = EDGE_CURVE('',#841,#821,#859,.T.);
#859 = LINE('',#860,#861);
#860 = CARTESIAN_POINT('',(-1.,6.368163355566E-16,2.6));
#861 = VECTOR('',#862,1.);
#862 = DIRECTION('',(1.,0.,0.));
#863 = ORIENTED_EDGE('',*,*,#840,.T.);
#864 = ORIENTED_EDGE('',*,*,#858,.T.);
#865 = CYLINDRICAL_SURFACE('',#866,2.6);
#866 = AXIS2_PLACEMENT_3D('',#867,#868,#869);
#867 = CARTESIAN_POINT('',(-1.,0.,0.));
#868 = DIRECTION('',(1.,0.,0.));
#869 = DIRECTION('',(-0.,0.,1.));
#870 = ( GEOMETRIC_REPRESENTATION_CONTEXT(3) 
GLOBAL_UNCERTAINTY_ASSIGNED_CONTEXT((#874)) GLOBAL_UNIT_ASSIGNED_CONTEXT
((#871,#872,#873)) REPRESENTATION_CONTEXT('Context #1',
  '3D Context with UNIT and UNCERTAINTY') );
#871 = ( LENGTH_UNIT() NAMED_UNIT(*) SI_UNIT(.MILLI.,.METRE.) );
#872 = ( NAMED_UNIT(*) PLANE_ANGLE_UNIT() SI_UNIT($,.RADIAN.) );
#873 = ( NAMED_UNIT(*) SI_UNIT($,.STERADIAN.) SOLID_ANGLE_UNIT() );
#874 = UNCERTAINTY_MEASURE_WITH_UNIT(LENGTH_MEASURE(1.E-07),#871,
  'distance_accuracy_value','confusion accuracy');
#875 = CONTEXT_DEPENDENT_SHAPE_REPRESENTATION(#876,#878);
#876 = ( REPRESENTATION_RELATIONSHIP('','',#777,#10) 
REPRESENTATION_RELATIONSHIP_WITH_TRANSFORMATION(#877) 
SHAPE_REPRESENTATION_RELATIONSHIP() );
#877 = ITEM_DEFINED_TRANSFORMATION('','',#11,#35);
#878 = PRODUCT_DEFINITION_SHAPE('Placement','Placement of an item',#879
  );
#879 = NEXT_ASSEMBLY_USAGE_OCCURRENCE('6',
  'reference_outer_thrust_washer','',#5,#772,$);
#880 = PRODUCT_RELATED_PRODUCT_CATEGORY('part',$,(#774));
#881 = SHAPE_DEFINITION_REPRESENTATION(#882,#888);
#882 = PRODUCT_DEFINITION_SHAPE('','',#883);
#883 = PRODUCT_DEFINITION('design','',#884,#887);
#884 = PRODUCT_DEFINITION_FORMATION('','',#885);
#885 = PRODUCT('reference_outer_axial_spacer',
  'reference_outer_axial_spacer','',(#886));
#886 = PRODUCT_CONTEXT('',#2,'mechanical');
#887 = PRODUCT_DEFINITION_CONTEXT('part definition',#2,'design');
#888 = ADVANCED_BREP_SHAPE_REPRESENTATION('',(#11,#889),#981);
#889 = MANIFOLD_SOLID_BREP('',#890);
#890 = CLOSED_SHELL('',(#891,#924,#944,#964));
#891 = ADVANCED_FACE('',(#892),#919,.T.);
#892 = FACE_BOUND('',#893,.T.);
#893 = EDGE_LOOP('',(#894,#903,#911,#918));
#894 = ORIENTED_EDGE('',*,*,#895,.F.);
#895 = EDGE_CURVE('',#896,#896,#898,.T.);
#896 = VERTEX_POINT('',#897);
#897 = CARTESIAN_POINT('',(1.3,1.102182119233E-15,4.5));
#898 = CIRCLE('',#899,4.5);
#899 = AXIS2_PLACEMENT_3D('',#900,#901,#902);
#900 = CARTESIAN_POINT('',(1.3,0.,0.));
#901 = DIRECTION('',(1.,0.,0.));
#902 = DIRECTION('',(-0.,0.,1.));
#903 = ORIENTED_EDGE('',*,*,#904,.F.);
#904 = EDGE_CURVE('',#905,#896,#907,.T.);
#905 = VERTEX_POINT('',#906);
#906 = CARTESIAN_POINT('',(0.,1.102182119233E-15,4.5));
#907 = LINE('',#908,#909);
#908 = CARTESIAN_POINT('',(0.,1.102182119233E-15,4.5));
#909 = VECTOR('',#910,1.);
#910 = DIRECTION('',(1.,0.,0.));
#911 = ORIENTED_EDGE('',*,*,#912,.T.);
#912 = EDGE_CURVE('',#905,#905,#913,.T.);
#913 = CIRCLE('',#914,4.5);
#914 = AXIS2_PLACEMENT_3D('',#915,#916,#917);
#915 = CARTESIAN_POINT('',(0.,0.,0.));
#916 = DIRECTION('',(1.,0.,0.));
#917 = DIRECTION('',(-0.,0.,1.));
#918 = ORIENTED_EDGE('',*,*,#904,.T.);
#919 = CYLINDRICAL_SURFACE('',#920,4.5);
#920 = AXIS2_PLACEMENT_3D('',#921,#922,#923);
#921 = CARTESIAN_POINT('',(0.,0.,0.));
#922 = DIRECTION('',(1.,0.,0.));
#923 = DIRECTION('',(-0.,0.,1.));
#924 = ADVANCED_FACE('',(#925,#928),#939,.T.);
#925 = FACE_BOUND('',#926,.T.);
#926 = EDGE_LOOP('',(#927));
#927 = ORIENTED_EDGE('',*,*,#895,.T.);
#928 = FACE_BOUND('',#929,.T.);
#929 = EDGE_LOOP('',(#930));
#930 = ORIENTED_EDGE('',*,*,#931,.F.);
#931 = EDGE_CURVE('',#932,#932,#934,.T.);
#932 = VERTEX_POINT('',#933);
#933 = CARTESIAN_POINT('',(1.3,6.368163355566E-16,2.6));
#934 = CIRCLE('',#935,2.6);
#935 = AXIS2_PLACEMENT_3D('',#936,#937,#938);
#936 = CARTESIAN_POINT('',(1.3,0.,0.));
#937 = DIRECTION('',(1.,0.,0.));
#938 = DIRECTION('',(-0.,0.,1.));
#939 = PLANE('',#940);
#940 = AXIS2_PLACEMENT_3D('',#941,#942,#943);
#941 = CARTESIAN_POINT('',(1.3,0.,0.));
#942 = DIRECTION('',(1.,0.,0.));
#943 = DIRECTION('',(-0.,0.,1.));
#944 = ADVANCED_FACE('',(#945,#948),#959,.F.);
#945 = FACE_BOUND('',#946,.F.);
#946 = EDGE_LOOP('',(#947));
#947 = ORIENTED_EDGE('',*,*,#912,.T.);
#948 = FACE_BOUND('',#949,.F.);
#949 = EDGE_LOOP('',(#950));
#950 = ORIENTED_EDGE('',*,*,#951,.F.);
#951 = EDGE_CURVE('',#952,#952,#954,.T.);
#952 = VERTEX_POINT('',#953);
#953 = CARTESIAN_POINT('',(0.,6.368163355566E-16,2.6));
#954 = CIRCLE('',#955,2.6);
#955 = AXIS2_PLACEMENT_3D('',#956,#957,#958);
#956 = CARTESIAN_POINT('',(0.,0.,0.));
#957 = DIRECTION('',(1.,0.,0.));
#958 = DIRECTION('',(-0.,0.,1.));
#959 = PLANE('',#960);
#960 = AXIS2_PLACEMENT_3D('',#961,#962,#963);
#961 = CARTESIAN_POINT('',(0.,0.,0.));
#962 = DIRECTION('',(1.,0.,0.));
#963 = DIRECTION('',(-0.,0.,1.));
#964 = ADVANCED_FACE('',(#965),#976,.F.);
#965 = FACE_BOUND('',#966,.F.);
#966 = EDGE_LOOP('',(#967,#968,#974,#975));
#967 = ORIENTED_EDGE('',*,*,#931,.F.);
#968 = ORIENTED_EDGE('',*,*,#969,.F.);
#969 = EDGE_CURVE('',#952,#932,#970,.T.);
#970 = LINE('',#971,#972);
#971 = CARTESIAN_POINT('',(-1.,6.368163355566E-16,2.6));
#972 = VECTOR('',#973,1.);
#973 = DIRECTION('',(1.,0.,0.));
#974 = ORIENTED_EDGE('',*,*,#951,.T.);
#975 = ORIENTED_EDGE('',*,*,#969,.T.);
#976 = CYLINDRICAL_SURFACE('',#977,2.6);
#977 = AXIS2_PLACEMENT_3D('',#978,#979,#980);
#978 = CARTESIAN_POINT('',(-1.,0.,0.));
#979 = DIRECTION('',(1.,0.,0.));
#980 = DIRECTION('',(-0.,0.,1.));
#981 = ( GEOMETRIC_REPRESENTATION_CONTEXT(3) 
GLOBAL_UNCERTAINTY_ASSIGNED_CONTEXT((#985)) GLOBAL_UNIT_ASSIGNED_CONTEXT
((#982,#983,#984)) REPRESENTATION_CONTEXT('Context #1',
  '3D Context with UNIT and UNCERTAINTY') );
#982 = ( LENGTH_UNIT() NAMED_UNIT(*) SI_UNIT(.MILLI.,.METRE.) );
#983 = ( NAMED_UNIT(*) PLANE_ANGLE_UNIT() SI_UNIT($,.RADIAN.) );
#984 = ( NAMED_UNIT(*) SI_UNIT($,.STERADIAN.) SOLID_ANGLE_UNIT() );
#985 = UNCERTAINTY_MEASURE_WITH_UNIT(LENGTH_MEASURE(1.E-07),#982,
  'distance_accuracy_value','confusion accuracy');
#986 = CONTEXT_DEPENDENT_SHAPE_REPRESENTATION(#987,#989);
#987 = ( REPRESENTATION_RELATIONSHIP('','',#888,#10) 
REPRESENTATION_RELATIONSHIP_WITH_TRANSFORMATION(#988) 
SHAPE_REPRESENTATION_RELATIONSHIP() );
#988 = ITEM_DEFINED_TRANSFORMATION('','',#11,#39);
#989 = PRODUCT_DEFINITION_SHAPE('Placement','Placement of an item',#990
  );
#990 = NEXT_ASSEMBLY_USAGE_OCCURRENCE('7','reference_outer_axial_spacer'
  ,'',#5,#883,$);
#991 = PRODUCT_RELATED_PRODUCT_CATEGORY('part',$,(#885));
#992 = SHAPE_DEFINITION_REPRESENTATION(#993,#999);
#993 = PRODUCT_DEFINITION_SHAPE('','',#994);
#994 = PRODUCT_DEFINITION('design','',#995,#998);
#995 = PRODUCT_DEFINITION_FORMATION('','',#996);
#996 = PRODUCT('reference_outer_cheek','reference_outer_cheek','',(#997)
  );
#997 = PRODUCT_CONTEXT('',#2,'mechanical');
#998 = PRODUCT_DEFINITION_CONTEXT('part definition',#2,'design');
#999 = ADVANCED_BREP_SHAPE_REPRESENTATION('',(#11,#1000),#1346);
#1000 = MANIFOLD_SOLID_BREP('',#1001);
#1001 = CLOSED_SHELL('',(#1002,#1042,#1135,#1170,#1247,#1266,#1283,#1295
    ,#1312,#1329));
#1002 = ADVANCED_FACE('',(#1003),#1037,.T.);
#1003 = FACE_BOUND('',#1004,.T.);
#1004 = EDGE_LOOP('',(#1005,#1015,#1023,#1031));
#1005 = ORIENTED_EDGE('',*,*,#1006,.F.);
#1006 = EDGE_CURVE('',#1007,#1009,#1011,.T.);
#1007 = VERTEX_POINT('',#1008);
#1008 = CARTESIAN_POINT('',(0.,8.54035724771E-02,13.999739505784));
#1009 = VERTEX_POINT('',#1010);
#1010 = CARTESIAN_POINT('',(0.,16.490830380982,48.047459096369));
#1011 = LINE('',#1012,#1013);
#1012 = CARTESIAN_POINT('',(0.,-5.405260179012,2.604450498125));
#1013 = VECTOR('',#1014,1.);
#1014 = DIRECTION('',(0.,0.434075083021,0.900876696502));
#1015 = ORIENTED_EDGE('',*,*,#1016,.T.);
#1016 = EDGE_CURVE('',#1007,#1017,#1019,.T.);
#1017 = VERTEX_POINT('',#1018);
#1018 = CARTESIAN_POINT('',(5.,8.54035724771E-02,13.999739505784));
#1019 = LINE('',#1020,#1021);
#1020 = CARTESIAN_POINT('',(0.,8.540357247727E-02,13.999739505784));
#1021 = VECTOR('',#1022,1.);
#1022 = DIRECTION('',(1.,0.,0.));
#1023 = ORIENTED_EDGE('',*,*,#1024,.T.);
#1024 = EDGE_CURVE('',#1017,#1025,#1027,.T.);
#1025 = VERTEX_POINT('',#1026);
#1026 = CARTESIAN_POINT('',(5.,16.490830380982,48.047459096369));
#1027 = LINE('',#1028,#1029);
#1028 = CARTESIAN_POINT('',(5.,-5.405260179012,2.604450498125));
#1029 = VECTOR('',#1030,1.);
#1030 = DIRECTION('',(0.,0.434075083021,0.900876696502));
#1031 = ORIENTED_EDGE('',*,*,#1032,.F.);
#1032 = EDGE_CURVE('',#1009,#1025,#1033,.T.);
#1033 = LINE('',#1034,#1035);
#1034 = CARTESIAN_POINT('',(0.,16.490830380982,48.047459096369));
#1035 = VECTOR('',#1036,1.);
#1036 = DIRECTION('',(1.,0.,0.));
#1037 = PLANE('',#1038);
#1038 = AXIS2_PLACEMENT_3D('',#1039,#1040,#1041);
#1039 = CARTESIAN_POINT('',(0.,-5.405260179012,2.604450498125));
#1040 = DIRECTION('',(0.,-0.900876696502,0.434075083021));
#1041 = DIRECTION('',(0.,0.434075083021,0.900876696502));
#1042 = ADVANCED_FACE('',(#1043,#1097,#1108,#1119),#1130,.T.);
#1043 = FACE_BOUND('',#1044,.T.);
#1044 = EDGE_LOOP('',(#1045,#1056,#1063,#1064,#1073,#1082,#1090));
#1045 = ORIENTED_EDGE('',*,*,#1046,.F.);
#1046 = EDGE_CURVE('',#1047,#1049,#1051,.T.);
#1047 = VERTEX_POINT('',#1048);
#1048 = CARTESIAN_POINT('',(0.,3.429011037613E-15,14.));
#1049 = VERTEX_POINT('',#1050);
#1050 = CARTESIAN_POINT('',(0.,12.492832274179,6.318951002281));
#1051 = CIRCLE('',#1052,14.);
#1052 = AXIS2_PLACEMENT_3D('',#1053,#1054,#1055);
#1053 = CARTESIAN_POINT('',(0.,0.,0.));
#1054 = DIRECTION('',(1.,0.,0.));
#1055 = DIRECTION('',(-0.,0.,1.));
#1056 = ORIENTED_EDGE('',*,*,#1057,.F.);
#1057 = EDGE_CURVE('',#1007,#1047,#1058,.T.);
#1058 = CIRCLE('',#1059,14.);
#1059 = AXIS2_PLACEMENT_3D('',#1060,#1061,#1062);
#1060 = CARTESIAN_POINT('',(0.,0.,0.));
#1061 = DIRECTION('',(1.,0.,0.));
#1062 = DIRECTION('',(-0.,0.,1.));
#1063 = ORIENTED_EDGE('',*,*,#1006,.T.);
#1064 = ORIENTED_EDGE('',*,*,#1065,.F.);
#1065 = EDGE_CURVE('',#1066,#1009,#1068,.T.);
#1066 = VERTEX_POINT('',#1067);
#1067 = CARTESIAN_POINT('',(0.,24.193,58.21));
#1068 = CIRCLE('',#1069,8.);
#1069 = AXIS2_PLACEMENT_3D('',#1070,#1071,#1072);
#1070 = CARTESIAN_POINT('',(0.,24.193,50.21));
#1071 = DIRECTION('',(1.,0.,0.));
#1072 = DIRECTION('',(-0.,0.,1.));
#1073 = ORIENTED_EDGE('',*,*,#1074,.F.);
#1074 = EDGE_CURVE('',#1075,#1066,#1077,.T.);
#1075 = VERTEX_POINT('',#1076);
#1076 = CARTESIAN_POINT('',(0.,27.301350739007,42.838558100119));
#1077 = CIRCLE('',#1078,8.);
#1078 = AXIS2_PLACEMENT_3D('',#1079,#1080,#1081);
#1079 = CARTESIAN_POINT('',(0.,24.193,50.21));
#1080 = DIRECTION('',(1.,0.,0.));
#1081 = DIRECTION('',(-0.,0.,1.));
#1082 = ORIENTED_EDGE('',*,*,#1083,.T.);
#1083 = EDGE_CURVE('',#1075,#1084,#1086,.T.);
#1084 = VERTEX_POINT('',#1085);
#1085 = CARTESIAN_POINT('',(0.,15.511018085792,18.368975885516));
#1086 = LINE('',#1087,#1088);
#1087 = CARTESIAN_POINT('',(0.,29.598260179012,47.605549501875));
#1088 = VECTOR('',#1089,1.);
#1089 = DIRECTION('',(0.,-0.434075083021,-0.900876696502));
#1090 = ORIENTED_EDGE('',*,*,#1091,.F.);
#1091 = EDGE_CURVE('',#1049,#1084,#1092,.T.);
#1092 = CIRCLE('',#1093,8.);
#1093 = AXIS2_PLACEMENT_3D('',#1094,#1095,#1096);
#1094 = CARTESIAN_POINT('',(0.,9.111,13.569));
#1095 = DIRECTION('',(1.,0.,0.));
#1096 = DIRECTION('',(-0.,0.,1.));
#1097 = FACE_BOUND('',#1098,.T.);
#1098 = EDGE_LOOP('',(#1099));
#1099 = ORIENTED_EDGE('',*,*,#1100,.T.);
#1100 = EDGE_CURVE('',#1101,#1101,#1103,.T.);
#1101 = VERTEX_POINT('',#1102);
#1102 = CARTESIAN_POINT('',(0.,24.193,52.36));
#1103 = CIRCLE('',#1104,2.15);
#1104 = AXIS2_PLACEMENT_3D('',#1105,#1106,#1107);
#1105 = CARTESIAN_POINT('',(0.,24.193,50.21));
#1106 = DIRECTION('',(1.,0.,0.));
#1107 = DIRECTION('',(-0.,0.,1.));
#1108 = FACE_BOUND('',#1109,.T.);
#1109 = EDGE_LOOP('',(#1110));
#1110 = ORIENTED_EDGE('',*,*,#1111,.T.);
#1111 = EDGE_CURVE('',#1112,#1112,#1114,.T.);
#1112 = VERTEX_POINT('',#1113);
#1113 = CARTESIAN_POINT('',(0.,9.111,15.719));
#1114 = CIRCLE('',#1115,2.15);
#1115 = AXIS2_PLACEMENT_3D('',#1116,#1117,#1118);
#1116 = CARTESIAN_POINT('',(0.,9.111,13.569));
#1117 = DIRECTION('',(1.,0.,0.));
#1118 = DIRECTION('',(-0.,0.,1.));
#1119 = FACE_BOUND('',#1120,.T.);
#1120 = EDGE_LOOP('',(#1121));
#1121 = ORIENTED_EDGE('',*,*,#1122,.T.);
#1122 = EDGE_CURVE('',#1123,#1123,#1125,.T.);
#1123 = VERTEX_POINT('',#1124);
#1124 = CARTESIAN_POINT('',(0.,6.245698675652E-16,2.55));
#1125 = CIRCLE('',#1126,2.55);
#1126 = AXIS2_PLACEMENT_3D('',#1127,#1128,#1129);
#1127 = CARTESIAN_POINT('',(0.,0.,0.));
#1128 = DIRECTION('',(1.,0.,0.));
#1129 = DIRECTION('',(-0.,0.,1.));
#1130 = PLANE('',#1131);
#1131 = AXIS2_PLACEMENT_3D('',#1132,#1133,#1134);
#1132 = CARTESIAN_POINT('',(0.,10.869654687593,22.016211705062));
#1133 = DIRECTION('',(-1.,-0.,-0.));
#1134 = DIRECTION('',(0.,0.,-1.));
#1135 = ADVANCED_FACE('',(#1136),#1165,.T.);
#1136 = FACE_BOUND('',#1137,.T.);
#1137 = EDGE_LOOP('',(#1138,#1149,#1155,#1156,#1157,#1158));
#1138 = ORIENTED_EDGE('',*,*,#1139,.F.);
#1139 = EDGE_CURVE('',#1140,#1142,#1144,.T.);
#1140 = VERTEX_POINT('',#1141);
#1141 = CARTESIAN_POINT('',(5.,27.301350739007,42.838558100119));
#1142 = VERTEX_POINT('',#1143);
#1143 = CARTESIAN_POINT('',(5.,24.193,58.21));
#1144 = CIRCLE('',#1145,8.);
#1145 = AXIS2_PLACEMENT_3D('',#1146,#1147,#1148);
#1146 = CARTESIAN_POINT('',(5.,24.193,50.21));
#1147 = DIRECTION('',(1.,0.,0.));
#1148 = DIRECTION('',(-0.,0.,1.));
#1149 = ORIENTED_EDGE('',*,*,#1150,.F.);
#1150 = EDGE_CURVE('',#1075,#1140,#1151,.T.);
#1151 = LINE('',#1152,#1153);
#1152 = CARTESIAN_POINT('',(0.,27.301350739007,42.838558100119));
#1153 = VECTOR('',#1154,1.);
#1154 = DIRECTION('',(1.,0.,0.));
#1155 = ORIENTED_EDGE('',*,*,#1074,.T.);
#1156 = ORIENTED_EDGE('',*,*,#1065,.T.);
#1157 = ORIENTED_EDGE('',*,*,#1032,.T.);
#1158 = ORIENTED_EDGE('',*,*,#1159,.F.);
#1159 = EDGE_CURVE('',#1142,#1025,#1160,.T.);
#1160 = CIRCLE('',#1161,8.);
#1161 = AXIS2_PLACEMENT_3D('',#1162,#1163,#1164);
#1162 = CARTESIAN_POINT('',(5.,24.193,50.21));
#1163 = DIRECTION('',(1.,0.,0.));
#1164 = DIRECTION('',(-0.,0.,1.));
#1165 = CYLINDRICAL_SURFACE('',#1166,8.);
#1166 = AXIS2_PLACEMENT_3D('',#1167,#1168,#1169);
#1167 = CARTESIAN_POINT('',(0.,24.193,50.21));
#1168 = DIRECTION('',(1.,0.,0.));
#1169 = DIRECTION('',(-0.,0.,1.));
#1170 = ADVANCED_FACE('',(#1171,#1209,#1220,#1231),#1242,.T.);
#1171 = FACE_BOUND('',#1172,.T.);
#1172 = EDGE_LOOP('',(#1173,#1184,#1193,#1199,#1200,#1201,#1202));
#1173 = ORIENTED_EDGE('',*,*,#1174,.T.);
#1174 = EDGE_CURVE('',#1175,#1177,#1179,.T.);
#1175 = VERTEX_POINT('',#1176);
#1176 = CARTESIAN_POINT('',(5.,3.429011037613E-15,14.));
#1177 = VERTEX_POINT('',#1178);
#1178 = CARTESIAN_POINT('',(5.,12.492832274179,6.318951002281));
#1179 = CIRCLE('',#1180,14.);
#1180 = AXIS2_PLACEMENT_3D('',#1181,#1182,#1183);
#1181 = CARTESIAN_POINT('',(5.,0.,0.));
#1182 = DIRECTION('',(1.,0.,0.));
#1183 = DIRECTION('',(-0.,0.,1.));
#1184 = ORIENTED_EDGE('',*,*,#1185,.T.);
#1185 = EDGE_CURVE('',#1177,#1186,#1188,.T.);
#1186 = VERTEX_POINT('',#1187);
#1187 = CARTESIAN_POINT('',(5.,15.511018085792,18.368975885516));
#1188 = CIRCLE('',#1189,8.);
#1189 = AXIS2_PLACEMENT_3D('',#1190,#1191,#1192);
#1190 = CARTESIAN_POINT('',(5.,9.111,13.569));
#1191 = DIRECTION('',(1.,0.,0.));
#1192 = DIRECTION('',(-0.,0.,1.));
#1193 = ORIENTED_EDGE('',*,*,#1194,.F.);
#1194 = EDGE_CURVE('',#1140,#1186,#1195,.T.);
#1195 = LINE('',#1196,#1197);
#1196 = CARTESIAN_POINT('',(5.,29.598260179012,47.605549501875));
#1197 = VECTOR('',#1198,1.);
#1198 = DIRECTION('',(0.,-0.434075083021,-0.900876696502));
#1199 = ORIENTED_EDGE('',*,*,#1139,.T.);
#1200 = ORIENTED_EDGE('',*,*,#1159,.T.);
#1201 = ORIENTED_EDGE('',*,*,#1024,.F.);
#1202 = ORIENTED_EDGE('',*,*,#1203,.T.);
#1203 = EDGE_CURVE('',#1017,#1175,#1204,.T.);
#1204 = CIRCLE('',#1205,14.);
#1205 = AXIS2_PLACEMENT_3D('',#1206,#1207,#1208);
#1206 = CARTESIAN_POINT('',(5.,0.,0.));
#1207 = DIRECTION('',(1.,0.,0.));
#1208 = DIRECTION('',(-0.,0.,1.));
#1209 = FACE_BOUND('',#1210,.T.);
#1210 = EDGE_LOOP('',(#1211));
#1211 = ORIENTED_EDGE('',*,*,#1212,.F.);
#1212 = EDGE_CURVE('',#1213,#1213,#1215,.T.);
#1213 = VERTEX_POINT('',#1214);
#1214 = CARTESIAN_POINT('',(5.,24.193,52.36));
#1215 = CIRCLE('',#1216,2.15);
#1216 = AXIS2_PLACEMENT_3D('',#1217,#1218,#1219);
#1217 = CARTESIAN_POINT('',(5.,24.193,50.21));
#1218 = DIRECTION('',(1.,0.,0.));
#1219 = DIRECTION('',(-0.,0.,1.));
#1220 = FACE_BOUND('',#1221,.T.);
#1221 = EDGE_LOOP('',(#1222));
#1222 = ORIENTED_EDGE('',*,*,#1223,.F.);
#1223 = EDGE_CURVE('',#1224,#1224,#1226,.T.);
#1224 = VERTEX_POINT('',#1225);
#1225 = CARTESIAN_POINT('',(5.,9.111,15.719));
#1226 = CIRCLE('',#1227,2.15);
#1227 = AXIS2_PLACEMENT_3D('',#1228,#1229,#1230);
#1228 = CARTESIAN_POINT('',(5.,9.111,13.569));
#1229 = DIRECTION('',(1.,0.,0.));
#1230 = DIRECTION('',(-0.,0.,1.));
#1231 = FACE_BOUND('',#1232,.T.);
#1232 = EDGE_LOOP('',(#1233));
#1233 = ORIENTED_EDGE('',*,*,#1234,.F.);
#1234 = EDGE_CURVE('',#1235,#1235,#1237,.T.);
#1235 = VERTEX_POINT('',#1236);
#1236 = CARTESIAN_POINT('',(5.,6.245698675652E-16,2.55));
#1237 = CIRCLE('',#1238,2.55);
#1238 = AXIS2_PLACEMENT_3D('',#1239,#1240,#1241);
#1239 = CARTESIAN_POINT('',(5.,0.,0.));
#1240 = DIRECTION('',(1.,0.,0.));
#1241 = DIRECTION('',(-0.,0.,1.));
#1242 = PLANE('',#1243);
#1243 = AXIS2_PLACEMENT_3D('',#1244,#1245,#1246);
#1244 = CARTESIAN_POINT('',(5.,10.869654687593,22.016211705062));
#1245 = DIRECTION('',(1.,0.,0.));
#1246 = DIRECTION('',(-0.,0.,1.));
#1247 = ADVANCED_FACE('',(#1248),#1261,.T.);
#1248 = FACE_BOUND('',#1249,.T.);
#1249 = EDGE_LOOP('',(#1250,#1251,#1257,#1258,#1259,#1260));
#1250 = ORIENTED_EDGE('',*,*,#1046,.T.);
#1251 = ORIENTED_EDGE('',*,*,#1252,.T.);
#1252 = EDGE_CURVE('',#1049,#1177,#1253,.T.);
#1253 = LINE('',#1254,#1255);
#1254 = CARTESIAN_POINT('',(0.,12.492832274179,6.318951002281));
#1255 = VECTOR('',#1256,1.);
#1256 = DIRECTION('',(1.,0.,0.));
#1257 = ORIENTED_EDGE('',*,*,#1174,.F.);
#1258 = ORIENTED_EDGE('',*,*,#1203,.F.);
#1259 = ORIENTED_EDGE('',*,*,#1016,.F.);
#1260 = ORIENTED_EDGE('',*,*,#1057,.T.);
#1261 = CYLINDRICAL_SURFACE('',#1262,14.);
#1262 = AXIS2_PLACEMENT_3D('',#1263,#1264,#1265);
#1263 = CARTESIAN_POINT('',(0.,0.,0.));
#1264 = DIRECTION('',(1.,0.,0.));
#1265 = DIRECTION('',(-0.,0.,1.));
#1266 = ADVANCED_FACE('',(#1267),#1278,.T.);
#1267 = FACE_BOUND('',#1268,.T.);
#1268 = EDGE_LOOP('',(#1269,#1270,#1276,#1277));
#1269 = ORIENTED_EDGE('',*,*,#1091,.T.);
#1270 = ORIENTED_EDGE('',*,*,#1271,.T.);
#1271 = EDGE_CURVE('',#1084,#1186,#1272,.T.);
#1272 = LINE('',#1273,#1274);
#1273 = CARTESIAN_POINT('',(0.,15.511018085792,18.368975885516));
#1274 = VECTOR('',#1275,1.);
#1275 = DIRECTION('',(1.,0.,0.));
#1276 = ORIENTED_EDGE('',*,*,#1185,.F.);
#1277 = ORIENTED_EDGE('',*,*,#1252,.F.);
#1278 = CYLINDRICAL_SURFACE('',#1279,8.);
#1279 = AXIS2_PLACEMENT_3D('',#1280,#1281,#1282);
#1280 = CARTESIAN_POINT('',(0.,9.111,13.569));
#1281 = DIRECTION('',(1.,0.,0.));
#1282 = DIRECTION('',(-0.,0.,1.));
#1283 = ADVANCED_FACE('',(#1284),#1290,.T.);
#1284 = FACE_BOUND('',#1285,.T.);
#1285 = EDGE_LOOP('',(#1286,#1287,#1288,#1289));
#1286 = ORIENTED_EDGE('',*,*,#1083,.F.);
#1287 = ORIENTED_EDGE('',*,*,#1150,.T.);
#1288 = ORIENTED_EDGE('',*,*,#1194,.T.);
#1289 = ORIENTED_EDGE('',*,*,#1271,.F.);
#1290 = PLANE('',#1291);
#1291 = AXIS2_PLACEMENT_3D('',#1292,#1293,#1294);
#1292 = CARTESIAN_POINT('',(0.,29.598260179012,47.605549501875));
#1293 = DIRECTION('',(0.,0.900876696502,-0.434075083021));
#1294 = DIRECTION('',(0.,-0.434075083021,-0.900876696502));
#1295 = ADVANCED_FACE('',(#1296),#1307,.F.);
#1296 = FACE_BOUND('',#1297,.F.);
#1297 = EDGE_LOOP('',(#1298,#1299,#1305,#1306));
#1298 = ORIENTED_EDGE('',*,*,#1212,.F.);
#1299 = ORIENTED_EDGE('',*,*,#1300,.F.);
#1300 = EDGE_CURVE('',#1101,#1213,#1301,.T.);
#1301 = LINE('',#1302,#1303);
#1302 = CARTESIAN_POINT('',(-1.,24.193,52.36));
#1303 = VECTOR('',#1304,1.);
#1304 = DIRECTION('',(1.,0.,0.));
#1305 = ORIENTED_EDGE('',*,*,#1100,.T.);
#1306 = ORIENTED_EDGE('',*,*,#1300,.T.);
#1307 = CYLINDRICAL_SURFACE('',#1308,2.15);
#1308 = AXIS2_PLACEMENT_3D('',#1309,#1310,#1311);
#1309 = CARTESIAN_POINT('',(-1.,24.193,50.21));
#1310 = DIRECTION('',(1.,0.,0.));
#1311 = DIRECTION('',(-0.,0.,1.));
#1312 = ADVANCED_FACE('',(#1313),#1324,.F.);
#1313 = FACE_BOUND('',#1314,.F.);
#1314 = EDGE_LOOP('',(#1315,#1316,#1322,#1323));
#1315 = ORIENTED_EDGE('',*,*,#1223,.F.);
#1316 = ORIENTED_EDGE('',*,*,#1317,.F.);
#1317 = EDGE_CURVE('',#1112,#1224,#1318,.T.);
#1318 = LINE('',#1319,#1320);
#1319 = CARTESIAN_POINT('',(-1.,9.111,15.719));
#1320 = VECTOR('',#1321,1.);
#1321 = DIRECTION('',(1.,0.,0.));
#1322 = ORIENTED_EDGE('',*,*,#1111,.T.);
#1323 = ORIENTED_EDGE('',*,*,#1317,.T.);
#1324 = CYLINDRICAL_SURFACE('',#1325,2.15);
#1325 = AXIS2_PLACEMENT_3D('',#1326,#1327,#1328);
#1326 = CARTESIAN_POINT('',(-1.,9.111,13.569));
#1327 = DIRECTION('',(1.,0.,0.));
#1328 = DIRECTION('',(-0.,0.,1.));
#1329 = ADVANCED_FACE('',(#1330),#1341,.F.);
#1330 = FACE_BOUND('',#1331,.F.);
#1331 = EDGE_LOOP('',(#1332,#1333,#1339,#1340));
#1332 = ORIENTED_EDGE('',*,*,#1234,.F.);
#1333 = ORIENTED_EDGE('',*,*,#1334,.F.);
#1334 = EDGE_CURVE('',#1123,#1235,#1335,.T.);
#1335 = LINE('',#1336,#1337);
#1336 = CARTESIAN_POINT('',(-1.,6.245698675652E-16,2.55));
#1337 = VECTOR('',#1338,1.);
#1338 = DIRECTION('',(1.,0.,0.));
#1339 = ORIENTED_EDGE('',*,*,#1122,.T.);
#1340 = ORIENTED_EDGE('',*,*,#1334,.T.);
#1341 = CYLINDRICAL_SURFACE('',#1342,2.55);
#1342 = AXIS2_PLACEMENT_3D('',#1343,#1344,#1345);
#1343 = CARTESIAN_POINT('',(-1.,0.,0.));
#1344 = DIRECTION('',(1.,0.,0.));
#1345 = DIRECTION('',(-0.,0.,1.));
#1346 = ( GEOMETRIC_REPRESENTATION_CONTEXT(3) 
GLOBAL_UNCERTAINTY_ASSIGNED_CONTEXT((#1350)) 
GLOBAL_UNIT_ASSIGNED_CONTEXT((#1347,#1348,#1349)) REPRESENTATION_CONTEXT
('Context #1','3D Context with UNIT and UNCERTAINTY') );
#1347 = ( LENGTH_UNIT() NAMED_UNIT(*) SI_UNIT(.MILLI.,.METRE.) );
#1348 = ( NAMED_UNIT(*) PLANE_ANGLE_UNIT() SI_UNIT($,.RADIAN.) );
#1349 = ( NAMED_UNIT(*) SI_UNIT($,.STERADIAN.) SOLID_ANGLE_UNIT() );
#1350 = UNCERTAINTY_MEASURE_WITH_UNIT(LENGTH_MEASURE(1.E-07),#1347,
  'distance_accuracy_value','confusion accuracy');
#1351 = CONTEXT_DEPENDENT_SHAPE_REPRESENTATION(#1352,#1354);
#1352 = ( REPRESENTATION_RELATIONSHIP('','',#999,#10) 
REPRESENTATION_RELATIONSHIP_WITH_TRANSFORMATION(#1353) 
SHAPE_REPRESENTATION_RELATIONSHIP() );
#1353 = ITEM_DEFINED_TRANSFORMATION('','',#11,#43);
#1354 = PRODUCT_DEFINITION_SHAPE('Placement','Placement of an item',
  #1355);
#1355 = NEXT_ASSEMBLY_USAGE_OCCURRENCE('8','reference_outer_cheek','',#5
  ,#994,$);
#1356 = PRODUCT_RELATED_PRODUCT_CATEGORY('part',$,(#996));
#1357 = SHAPE_DEFINITION_REPRESENTATION(#1358,#1364);
#1358 = PRODUCT_DEFINITION_SHAPE('','',#1359);
#1359 = PRODUCT_DEFINITION('design','',#1360,#1363);
#1360 = PRODUCT_DEFINITION_FORMATION('','',#1361);
#1361 = PRODUCT('reference_shoulder_axle','reference_shoulder_axle','',(
    #1362));
#1362 = PRODUCT_CONTEXT('',#2,'mechanical');
#1363 = PRODUCT_DEFINITION_CONTEXT('part definition',#2,'design');
#1364 = ADVANCED_BREP_SHAPE_REPRESENTATION('',(#11,#1365),#1508);
#1365 = MANIFOLD_SOLID_BREP('',#1366);
#1366 = CLOSED_SHELL('',(#1367,#1400,#1420,#1429,#1454,#1474,#1499));
#1367 = ADVANCED_FACE('',(#1368),#1395,.T.);
#1368 = FACE_BOUND('',#1369,.T.);
#1369 = EDGE_LOOP('',(#1370,#1379,#1387,#1394));
#1370 = ORIENTED_EDGE('',*,*,#1371,.F.);
#1371 = EDGE_CURVE('',#1372,#1372,#1374,.T.);
#1372 = VERTEX_POINT('',#1373);
#1373 = CARTESIAN_POINT('',(0.,1.102182119233E-15,4.5));
#1374 = CIRCLE('',#1375,4.5);
#1375 = AXIS2_PLACEMENT_3D('',#1376,#1377,#1378);
#1376 = CARTESIAN_POINT('',(0.,0.,0.));
#1377 = DIRECTION('',(1.,0.,0.));
#1378 = DIRECTION('',(-0.,0.,1.));
#1379 = ORIENTED_EDGE('',*,*,#1380,.F.);
#1380 = EDGE_CURVE('',#1381,#1372,#1383,.T.);
#1381 = VERTEX_POINT('',#1382);
#1382 = CARTESIAN_POINT('',(-3.,1.102182119233E-15,4.5));
#1383 = LINE('',#1384,#1385);
#1384 = CARTESIAN_POINT('',(-3.,1.102182119233E-15,4.5));
#1385 = VECTOR('',#1386,1.);
#1386 = DIRECTION('',(1.,0.,0.));
#1387 = ORIENTED_EDGE('',*,*,#1388,.T.);
#1388 = EDGE_CURVE('',#1381,#1381,#1389,.T.);
#1389 = CIRCLE('',#1390,4.5);
#1390 = AXIS2_PLACEMENT_3D('',#1391,#1392,#1393);
#1391 = CARTESIAN_POINT('',(-3.,0.,0.));
#1392 = DIRECTION('',(1.,0.,0.));
#1393 = DIRECTION('',(-0.,0.,1.));
#1394 = ORIENTED_EDGE('',*,*,#1380,.T.);
#1395 = CYLINDRICAL_SURFACE('',#1396,4.5);
#1396 = AXIS2_PLACEMENT_3D('',#1397,#1398,#1399);
#1397 = CARTESIAN_POINT('',(-3.,0.,0.));
#1398 = DIRECTION('',(1.,0.,0.));
#1399 = DIRECTION('',(-0.,0.,1.));
#1400 = ADVANCED_FACE('',(#1401,#1404),#1415,.T.);
#1401 = FACE_BOUND('',#1402,.T.);
#1402 = EDGE_LOOP('',(#1403));
#1403 = ORIENTED_EDGE('',*,*,#1371,.T.);
#1404 = FACE_BOUND('',#1405,.T.);
#1405 = EDGE_LOOP('',(#1406));
#1406 = ORIENTED_EDGE('',*,*,#1407,.F.);
#1407 = EDGE_CURVE('',#1408,#1408,#1410,.T.);
#1408 = VERTEX_POINT('',#1409);
#1409 = CARTESIAN_POINT('',(0.,6.123233995737E-16,2.5));
#1410 = CIRCLE('',#1411,2.5);
#1411 = AXIS2_PLACEMENT_3D('',#1412,#1413,#1414);
#1412 = CARTESIAN_POINT('',(0.,0.,0.));
#1413 = DIRECTION('',(1.,0.,0.));
#1414 = DIRECTION('',(-0.,0.,1.));
#1415 = PLANE('',#1416);
#1416 = AXIS2_PLACEMENT_3D('',#1417,#1418,#1419);
#1417 = CARTESIAN_POINT('',(0.,0.,0.));
#1418 = DIRECTION('',(1.,0.,0.));
#1419 = DIRECTION('',(-0.,0.,1.));
#1420 = ADVANCED_FACE('',(#1421),#1424,.F.);
#1421 = FACE_BOUND('',#1422,.T.);
#1422 = EDGE_LOOP('',(#1423));
#1423 = ORIENTED_EDGE('',*,*,#1388,.F.);
#1424 = PLANE('',#1425);
#1425 = AXIS2_PLACEMENT_3D('',#1426,#1427,#1428);
#1426 = CARTESIAN_POINT('',(-3.,0.,0.));
#1427 = DIRECTION('',(1.,0.,0.));
#1428 = DIRECTION('',(-0.,0.,1.));
#1429 = ADVANCED_FACE('',(#1430),#1449,.T.);
#1430 = FACE_BOUND('',#1431,.T.);
#1431 = EDGE_LOOP('',(#1432,#1441,#1447,#1448));
#1432 = ORIENTED_EDGE('',*,*,#1433,.F.);
#1433 = EDGE_CURVE('',#1434,#1434,#1436,.T.);
#1434 = VERTEX_POINT('',#1435);
#1435 = CARTESIAN_POINT('',(25.,6.123233995737E-16,2.5));
#1436 = CIRCLE('',#1437,2.5);
#1437 = AXIS2_PLACEMENT_3D('',#1438,#1439,#1440);
#1438 = CARTESIAN_POINT('',(25.,0.,0.));
#1439 = DIRECTION('',(1.,0.,0.));
#1440 = DIRECTION('',(-0.,0.,1.));
#1441 = ORIENTED_EDGE('',*,*,#1442,.F.);
#1442 = EDGE_CURVE('',#1408,#1434,#1443,.T.);
#1443 = LINE('',#1444,#1445);
#1444 = CARTESIAN_POINT('',(0.,6.123233995737E-16,2.5));
#1445 = VECTOR('',#1446,1.);
#1446 = DIRECTION('',(1.,0.,0.));
#1447 = ORIENTED_EDGE('',*,*,#1407,.T.);
#1448 = ORIENTED_EDGE('',*,*,#1442,.T.);
#1449 = CYLINDRICAL_SURFACE('',#1450,2.5);
#1450 = AXIS2_PLACEMENT_3D('',#1451,#1452,#1453);
#1451 = CARTESIAN_POINT('',(0.,0.,0.));
#1452 = DIRECTION('',(1.,0.,0.));
#1453 = DIRECTION('',(-0.,0.,1.));
#1454 = ADVANCED_FACE('',(#1455,#1458),#1469,.T.);
#1455 = FACE_BOUND('',#1456,.T.);
#1456 = EDGE_LOOP('',(#1457));
#1457 = ORIENTED_EDGE('',*,*,#1433,.T.);
#1458 = FACE_BOUND('',#1459,.T.);
#1459 = EDGE_LOOP('',(#1460));
#1460 = ORIENTED_EDGE('',*,*,#1461,.F.);
#1461 = EDGE_CURVE('',#1462,#1462,#1464,.T.);
#1462 = VERTEX_POINT('',#1463);
#1463 = CARTESIAN_POINT('',(25.,4.898587196589E-16,2.));
#1464 = CIRCLE('',#1465,2.);
#1465 = AXIS2_PLACEMENT_3D('',#1466,#1467,#1468);
#1466 = CARTESIAN_POINT('',(25.,0.,0.));
#1467 = DIRECTION('',(1.,0.,0.));
#1468 = DIRECTION('',(-0.,0.,1.));
#1469 = PLANE('',#1470);
#1470 = AXIS2_PLACEMENT_3D('',#1471,#1472,#1473);
#1471 = CARTESIAN_POINT('',(25.,0.,0.));
#1472 = DIRECTION('',(1.,0.,0.));
#1473 = DIRECTION('',(-0.,0.,1.));
#1474 = ADVANCED_FACE('',(#1475),#1494,.T.);
#1475 = FACE_BOUND('',#1476,.T.);
#1476 = EDGE_LOOP('',(#1477,#1486,#1492,#1493));
#1477 = ORIENTED_EDGE('',*,*,#1478,.F.);
#1478 = EDGE_CURVE('',#1479,#1479,#1481,.T.);
#1479 = VERTEX_POINT('',#1480);
#1480 = CARTESIAN_POINT('',(33.,4.898587196589E-16,2.));
#1481 = CIRCLE('',#1482,2.);
#1482 = AXIS2_PLACEMENT_3D('',#1483,#1484,#1485);
#1483 = CARTESIAN_POINT('',(33.,0.,0.));
#1484 = DIRECTION('',(1.,0.,0.));
#1485 = DIRECTION('',(-0.,0.,1.));
#1486 = ORIENTED_EDGE('',*,*,#1487,.F.);
#1487 = EDGE_CURVE('',#1462,#1479,#1488,.T.);
#1488 = LINE('',#1489,#1490);
#1489 = CARTESIAN_POINT('',(25.,4.898587196589E-16,2.));
#1490 = VECTOR('',#1491,1.);
#1491 = DIRECTION('',(1.,0.,0.));
#1492 = ORIENTED_EDGE('',*,*,#1461,.T.);
#1493 = ORIENTED_EDGE('',*,*,#1487,.T.);
#1494 = CYLINDRICAL_SURFACE('',#1495,2.);
#1495 = AXIS2_PLACEMENT_3D('',#1496,#1497,#1498);
#1496 = CARTESIAN_POINT('',(25.,0.,0.));
#1497 = DIRECTION('',(1.,0.,0.));
#1498 = DIRECTION('',(-0.,0.,1.));
#1499 = ADVANCED_FACE('',(#1500),#1503,.T.);
#1500 = FACE_BOUND('',#1501,.T.);
#1501 = EDGE_LOOP('',(#1502));
#1502 = ORIENTED_EDGE('',*,*,#1478,.T.);
#1503 = PLANE('',#1504);
#1504 = AXIS2_PLACEMENT_3D('',#1505,#1506,#1507);
#1505 = CARTESIAN_POINT('',(33.,0.,0.));
#1506 = DIRECTION('',(1.,0.,0.));
#1507 = DIRECTION('',(-0.,0.,1.));
#1508 = ( GEOMETRIC_REPRESENTATION_CONTEXT(3) 
GLOBAL_UNCERTAINTY_ASSIGNED_CONTEXT((#1512)) 
GLOBAL_UNIT_ASSIGNED_CONTEXT((#1509,#1510,#1511)) REPRESENTATION_CONTEXT
('Context #1','3D Context with UNIT and UNCERTAINTY') );
#1509 = ( LENGTH_UNIT() NAMED_UNIT(*) SI_UNIT(.MILLI.,.METRE.) );
#1510 = ( NAMED_UNIT(*) PLANE_ANGLE_UNIT() SI_UNIT($,.RADIAN.) );
#1511 = ( NAMED_UNIT(*) SI_UNIT($,.STERADIAN.) SOLID_ANGLE_UNIT() );
#1512 = UNCERTAINTY_MEASURE_WITH_UNIT(LENGTH_MEASURE(1.E-07),#1509,
  'distance_accuracy_value','confusion accuracy');
#1513 = CONTEXT_DEPENDENT_SHAPE_REPRESENTATION(#1514,#1516);
#1514 = ( REPRESENTATION_RELATIONSHIP('','',#1364,#10) 
REPRESENTATION_RELATIONSHIP_WITH_TRANSFORMATION(#1515) 
SHAPE_REPRESENTATION_RELATIONSHIP() );
#1515 = ITEM_DEFINED_TRANSFORMATION('','',#11,#47);
#1516 = PRODUCT_DEFINITION_SHAPE('Placement','Placement of an item',
  #1517);
#1517 = NEXT_ASSEMBLY_USAGE_OCCURRENCE('9','reference_shoulder_axle','',
  #5,#1359,$);
#1518 = PRODUCT_RELATED_PRODUCT_CATEGORY('part',$,(#1361));
#1519 = SHAPE_DEFINITION_REPRESENTATION(#1520,#1526);
#1520 = PRODUCT_DEFINITION_SHAPE('','',#1521);
#1521 = PRODUCT_DEFINITION('design','',#1522,#1525);
#1522 = PRODUCT_DEFINITION_FORMATION('','',#1523);
#1523 = PRODUCT('reference_axle_lockwasher','reference_axle_lockwasher',
  '',(#1524));
#1524 = PRODUCT_CONTEXT('',#2,'mechanical');
#1525 = PRODUCT_DEFINITION_CONTEXT('part definition',#2,'design');
#1526 = ADVANCED_BREP_SHAPE_REPRESENTATION('',(#11,#1527),#1619);
#1527 = MANIFOLD_SOLID_BREP('',#1528);
#1528 = CLOSED_SHELL('',(#1529,#1562,#1582,#1602));
#1529 = ADVANCED_FACE('',(#1530),#1557,.T.);
#1530 = FACE_BOUND('',#1531,.T.);
#1531 = EDGE_LOOP('',(#1532,#1541,#1549,#1556));
#1532 = ORIENTED_EDGE('',*,*,#1533,.F.);
#1533 = EDGE_CURVE('',#1534,#1534,#1536,.T.);
#1534 = VERTEX_POINT('',#1535);
#1535 = CARTESIAN_POINT('',(0.8,1.102182119233E-15,4.5));
#1536 = CIRCLE('',#1537,4.5);
#1537 = AXIS2_PLACEMENT_3D('',#1538,#1539,#1540);
#1538 = CARTESIAN_POINT('',(0.8,0.,0.));
#1539 = DIRECTION('',(1.,0.,0.));
#1540 = DIRECTION('',(-0.,0.,1.));
#1541 = ORIENTED_EDGE('',*,*,#1542,.F.);
#1542 = EDGE_CURVE('',#1543,#1534,#1545,.T.);
#1543 = VERTEX_POINT('',#1544);
#1544 = CARTESIAN_POINT('',(0.,1.102182119233E-15,4.5));
#1545 = LINE('',#1546,#1547);
#1546 = CARTESIAN_POINT('',(0.,1.102182119233E-15,4.5));
#1547 = VECTOR('',#1548,1.);
#1548 = DIRECTION('',(1.,0.,0.));
#1549 = ORIENTED_EDGE('',*,*,#1550,.T.);
#1550 = EDGE_CURVE('',#1543,#1543,#1551,.T.);
#1551 = CIRCLE('',#1552,4.5);
#1552 = AXIS2_PLACEMENT_3D('',#1553,#1554,#1555);
#1553 = CARTESIAN_POINT('',(0.,0.,0.));
#1554 = DIRECTION('',(1.,0.,0.));
#1555 = DIRECTION('',(-0.,0.,1.));
#1556 = ORIENTED_EDGE('',*,*,#1542,.T.);
#1557 = CYLINDRICAL_SURFACE('',#1558,4.5);
#1558 = AXIS2_PLACEMENT_3D('',#1559,#1560,#1561);
#1559 = CARTESIAN_POINT('',(0.,0.,0.));
#1560 = DIRECTION('',(1.,0.,0.));
#1561 = DIRECTION('',(-0.,0.,1.));
#1562 = ADVANCED_FACE('',(#1563,#1566),#1577,.T.);
#1563 = FACE_BOUND('',#1564,.T.);
#1564 = EDGE_LOOP('',(#1565));
#1565 = ORIENTED_EDGE('',*,*,#1533,.T.);
#1566 = FACE_BOUND('',#1567,.T.);
#1567 = EDGE_LOOP('',(#1568));
#1568 = ORIENTED_EDGE('',*,*,#1569,.F.);
#1569 = EDGE_CURVE('',#1570,#1570,#1572,.T.);
#1570 = VERTEX_POINT('',#1571);
#1571 = CARTESIAN_POINT('',(0.8,5.265981236334E-16,2.15));
#1572 = CIRCLE('',#1573,2.15);
#1573 = AXIS2_PLACEMENT_3D('',#1574,#1575,#1576);
#1574 = CARTESIAN_POINT('',(0.8,0.,0.));
#1575 = DIRECTION('',(1.,0.,0.));
#1576 = DIRECTION('',(-0.,0.,1.));
#1577 = PLANE('',#1578);
#1578 = AXIS2_PLACEMENT_3D('',#1579,#1580,#1581);
#1579 = CARTESIAN_POINT('',(0.8,0.,0.));
#1580 = DIRECTION('',(1.,0.,0.));
#1581 = DIRECTION('',(-0.,0.,1.));
#1582 = ADVANCED_FACE('',(#1583,#1586),#1597,.F.);
#1583 = FACE_BOUND('',#1584,.F.);
#1584 = EDGE_LOOP('',(#1585));
#1585 = ORIENTED_EDGE('',*,*,#1550,.T.);
#1586 = FACE_BOUND('',#1587,.F.);
#1587 = EDGE_LOOP('',(#1588));
#1588 = ORIENTED_EDGE('',*,*,#1589,.F.);
#1589 = EDGE_CURVE('',#1590,#1590,#1592,.T.);
#1590 = VERTEX_POINT('',#1591);
#1591 = CARTESIAN_POINT('',(0.,5.265981236334E-16,2.15));
#1592 = CIRCLE('',#1593,2.15);
#1593 = AXIS2_PLACEMENT_3D('',#1594,#1595,#1596);
#1594 = CARTESIAN_POINT('',(0.,0.,0.));
#1595 = DIRECTION('',(1.,0.,0.));
#1596 = DIRECTION('',(-0.,0.,1.));
#1597 = PLANE('',#1598);
#1598 = AXIS2_PLACEMENT_3D('',#1599,#1600,#1601);
#1599 = CARTESIAN_POINT('',(0.,0.,0.));
#1600 = DIRECTION('',(1.,0.,0.));
#1601 = DIRECTION('',(-0.,0.,1.));
#1602 = ADVANCED_FACE('',(#1603),#1614,.F.);
#1603 = FACE_BOUND('',#1604,.F.);
#1604 = EDGE_LOOP('',(#1605,#1606,#1612,#1613));
#1605 = ORIENTED_EDGE('',*,*,#1569,.F.);
#1606 = ORIENTED_EDGE('',*,*,#1607,.F.);
#1607 = EDGE_CURVE('',#1590,#1570,#1608,.T.);
#1608 = LINE('',#1609,#1610);
#1609 = CARTESIAN_POINT('',(-1.,5.265981236334E-16,2.15));
#1610 = VECTOR('',#1611,1.);
#1611 = DIRECTION('',(1.,0.,0.));
#1612 = ORIENTED_EDGE('',*,*,#1589,.T.);
#1613 = ORIENTED_EDGE('',*,*,#1607,.T.);
#1614 = CYLINDRICAL_SURFACE('',#1615,2.15);
#1615 = AXIS2_PLACEMENT_3D('',#1616,#1617,#1618);
#1616 = CARTESIAN_POINT('',(-1.,0.,0.));
#1617 = DIRECTION('',(1.,0.,0.));
#1618 = DIRECTION('',(-0.,0.,1.));
#1619 = ( GEOMETRIC_REPRESENTATION_CONTEXT(3) 
GLOBAL_UNCERTAINTY_ASSIGNED_CONTEXT((#1623)) 
GLOBAL_UNIT_ASSIGNED_CONTEXT((#1620,#1621,#1622)) REPRESENTATION_CONTEXT
('Context #1','3D Context with UNIT and UNCERTAINTY') );
#1620 = ( LENGTH_UNIT() NAMED_UNIT(*) SI_UNIT(.MILLI.,.METRE.) );
#1621 = ( NAMED_UNIT(*) PLANE_ANGLE_UNIT() SI_UNIT($,.RADIAN.) );
#1622 = ( NAMED_UNIT(*) SI_UNIT($,.STERADIAN.) SOLID_ANGLE_UNIT() );
#1623 = UNCERTAINTY_MEASURE_WITH_UNIT(LENGTH_MEASURE(1.E-07),#1620,
  'distance_accuracy_value','confusion accuracy');
#1624 = CONTEXT_DEPENDENT_SHAPE_REPRESENTATION(#1625,#1627);
#1625 = ( REPRESENTATION_RELATIONSHIP('','',#1526,#10) 
REPRESENTATION_RELATIONSHIP_WITH_TRANSFORMATION(#1626) 
SHAPE_REPRESENTATION_RELATIONSHIP() );
#1626 = ITEM_DEFINED_TRANSFORMATION('','',#11,#51);
#1627 = PRODUCT_DEFINITION_SHAPE('Placement','Placement of an item',
  #1628);
#1628 = NEXT_ASSEMBLY_USAGE_OCCURRENCE('10','reference_axle_lockwasher',
  '',#5,#1521,$);
#1629 = PRODUCT_RELATED_PRODUCT_CATEGORY('part',$,(#1523));
#1630 = SHAPE_DEFINITION_REPRESENTATION(#1631,#1637);
#1631 = PRODUCT_DEFINITION_SHAPE('','',#1632);
#1632 = PRODUCT_DEFINITION('design','',#1633,#1636);
#1633 = PRODUCT_DEFINITION_FORMATION('','',#1634);
#1634 = PRODUCT('reference_axle_locknut','reference_axle_locknut','',(
    #1635));
#1635 = PRODUCT_CONTEXT('',#2,'mechanical');
#1636 = PRODUCT_DEFINITION_CONTEXT('part definition',#2,'design');
#1637 = ADVANCED_BREP_SHAPE_REPRESENTATION('',(#11,#1638),#1893);
#1638 = MANIFOLD_SOLID_BREP('',#1639);
#1639 = CLOSED_SHELL('',(#1640,#1680,#1711,#1742,#1786,#1830,#1847,#1864
    ,#1876));
#1640 = ADVANCED_FACE('',(#1641),#1675,.F.);
#1641 = FACE_BOUND('',#1642,.F.);
#1642 = EDGE_LOOP('',(#1643,#1653,#1661,#1669));
#1643 = ORIENTED_EDGE('',*,*,#1644,.T.);
#1644 = EDGE_CURVE('',#1645,#1647,#1649,.T.);
#1645 = VERTEX_POINT('',#1646);
#1646 = CARTESIAN_POINT('',(0.,3.5,2.020725942164));
#1647 = VERTEX_POINT('',#1648);
#1648 = CARTESIAN_POINT('',(4.,3.5,2.020725942164));
#1649 = LINE('',#1650,#1651);
#1650 = CARTESIAN_POINT('',(0.,3.5,2.020725942164));
#1651 = VECTOR('',#1652,1.);
#1652 = DIRECTION('',(1.,0.,0.));
#1653 = ORIENTED_EDGE('',*,*,#1654,.T.);
#1654 = EDGE_CURVE('',#1647,#1655,#1657,.T.);
#1655 = VERTEX_POINT('',#1656);
#1656 = CARTESIAN_POINT('',(4.,2.474675557025E-16,4.041451884327));
#1657 = LINE('',#1658,#1659);
#1658 = CARTESIAN_POINT('',(4.,3.5,2.020725942164));
#1659 = VECTOR('',#1660,1.);
#1660 = DIRECTION('',(0.,-0.866025403784,0.5));
#1661 = ORIENTED_EDGE('',*,*,#1662,.F.);
#1662 = EDGE_CURVE('',#1663,#1655,#1665,.T.);
#1663 = VERTEX_POINT('',#1664);
#1664 = CARTESIAN_POINT('',(0.,2.474675557025E-16,4.041451884327));
#1665 = LINE('',#1666,#1667);
#1666 = CARTESIAN_POINT('',(0.,2.474675557025E-16,4.041451884327));
#1667 = VECTOR('',#1668,1.);
#1668 = DIRECTION('',(1.,0.,0.));
#1669 = ORIENTED_EDGE('',*,*,#1670,.F.);
#1670 = EDGE_CURVE('',#1645,#1663,#1671,.T.);
#1671 = LINE('',#1672,#1673);
#1672 = CARTESIAN_POINT('',(0.,3.5,2.020725942164));
#1673 = VECTOR('',#1674,1.);
#1674 = DIRECTION('',(0.,-0.866025403784,0.5));
#1675 = PLANE('',#1676);
#1676 = AXIS2_PLACEMENT_3D('',#1677,#1678,#1679);
#1677 = CARTESIAN_POINT('',(0.,3.5,2.020725942164));
#1678 = DIRECTION('',(0.,-0.5,-0.866025403784));
#1679 = DIRECTION('',(0.,-0.866025403784,0.5));
#1680 = ADVANCED_FACE('',(#1681),#1706,.F.);
#1681 = FACE_BOUND('',#1682,.F.);
#1682 = EDGE_LOOP('',(#1683,#1693,#1699,#1700));
#1683 = ORIENTED_EDGE('',*,*,#1684,.T.);
#1684 = EDGE_CURVE('',#1685,#1687,#1689,.T.);
#1685 = VERTEX_POINT('',#1686);
#1686 = CARTESIAN_POINT('',(0.,3.5,-2.020725942164));
#1687 = VERTEX_POINT('',#1688);
#1688 = CARTESIAN_POINT('',(4.,3.5,-2.020725942164));
#1689 = LINE('',#1690,#1691);
#1690 = CARTESIAN_POINT('',(0.,3.5,-2.020725942164));
#1691 = VECTOR('',#1692,1.);
#1692 = DIRECTION('',(1.,0.,0.));
#1693 = ORIENTED_EDGE('',*,*,#1694,.T.);
#1694 = EDGE_CURVE('',#1687,#1647,#1695,.T.);
#1695 = LINE('',#1696,#1697);
#1696 = CARTESIAN_POINT('',(4.,3.5,-2.020725942164));
#1697 = VECTOR('',#1698,1.);
#1698 = DIRECTION('',(0.,-1.098835820791E-16,1.));
#1699 = ORIENTED_EDGE('',*,*,#1644,.F.);
#1700 = ORIENTED_EDGE('',*,*,#1701,.F.);
#1701 = EDGE_CURVE('',#1685,#1645,#1702,.T.);
#1702 = LINE('',#1703,#1704);
#1703 = CARTESIAN_POINT('',(0.,3.5,-2.020725942164));
#1704 = VECTOR('',#1705,1.);
#1705 = DIRECTION('',(0.,-1.098835820791E-16,1.));
#1706 = PLANE('',#1707);
#1707 = AXIS2_PLACEMENT_3D('',#1708,#1709,#1710);
#1708 = CARTESIAN_POINT('',(0.,3.5,-2.020725942164));
#1709 = DIRECTION('',(0.,-1.,-1.098835820791E-16));
#1710 = DIRECTION('',(0.,-1.098835820791E-16,1.));
#1711 = ADVANCED_FACE('',(#1712),#1737,.F.);
#1712 = FACE_BOUND('',#1713,.F.);
#1713 = EDGE_LOOP('',(#1714,#1715,#1723,#1731));
#1714 = ORIENTED_EDGE('',*,*,#1662,.T.);
#1715 = ORIENTED_EDGE('',*,*,#1716,.T.);
#1716 = EDGE_CURVE('',#1655,#1717,#1719,.T.);
#1717 = VERTEX_POINT('',#1718);
#1718 = CARTESIAN_POINT('',(4.,-3.5,2.020725942164));
#1719 = LINE('',#1720,#1721);
#1720 = CARTESIAN_POINT('',(4.,2.474675557025E-16,4.041451884327));
#1721 = VECTOR('',#1722,1.);
#1722 = DIRECTION('',(0.,-0.866025403784,-0.5));
#1723 = ORIENTED_EDGE('',*,*,#1724,.F.);
#1724 = EDGE_CURVE('',#1725,#1717,#1727,.T.);
#1725 = VERTEX_POINT('',#1726);
#1726 = CARTESIAN_POINT('',(0.,-3.5,2.020725942164));
#1727 = LINE('',#1728,#1729);
#1728 = CARTESIAN_POINT('',(0.,-3.5,2.020725942164));
#1729 = VECTOR('',#1730,1.);
#1730 = DIRECTION('',(1.,0.,0.));
#1731 = ORIENTED_EDGE('',*,*,#1732,.F.);
#1732 = EDGE_CURVE('',#1663,#1725,#1733,.T.);
#1733 = LINE('',#1734,#1735);
#1734 = CARTESIAN_POINT('',(0.,2.474675557025E-16,4.041451884327));
#1735 = VECTOR('',#1736,1.);
#1736 = DIRECTION('',(0.,-0.866025403784,-0.5));
#1737 = PLANE('',#1738);
#1738 = AXIS2_PLACEMENT_3D('',#1739,#1740,#1741);
#1739 = CARTESIAN_POINT('',(0.,2.474675557025E-16,4.041451884327));
#1740 = DIRECTION('',(0.,0.5,-0.866025403784));
#1741 = DIRECTION('',(0.,-0.866025403784,-0.5));
#1742 = ADVANCED_FACE('',(#1743,#1770),#1781,.F.);
#1743 = FACE_BOUND('',#1744,.F.);
#1744 = EDGE_LOOP('',(#1745,#1746,#1747,#1755,#1763,#1769));
#1745 = ORIENTED_EDGE('',*,*,#1670,.T.);
#1746 = ORIENTED_EDGE('',*,*,#1732,.T.);
#1747 = ORIENTED_EDGE('',*,*,#1748,.T.);
#1748 = EDGE_CURVE('',#1725,#1749,#1751,.T.);
#1749 = VERTEX_POINT('',#1750);
#1750 = CARTESIAN_POINT('',(0.,-3.5,-2.020725942164));
#1751 = LINE('',#1752,#1753);
#1752 = CARTESIAN_POINT('',(0.,-3.5,2.020725942164));
#1753 = VECTOR('',#1754,1.);
#1754 = DIRECTION('',(0.,-3.296507462372E-16,-1.));
#1755 = ORIENTED_EDGE('',*,*,#1756,.T.);
#1756 = EDGE_CURVE('',#1749,#1757,#1759,.T.);
#1757 = VERTEX_POINT('',#1758);
#1758 = CARTESIAN_POINT('',(0.,-7.424026671074E-16,-4.041451884327));
#1759 = LINE('',#1760,#1761);
#1760 = CARTESIAN_POINT('',(0.,-3.5,-2.020725942164));
#1761 = VECTOR('',#1762,1.);
#1762 = DIRECTION('',(0.,0.866025403784,-0.5));
#1763 = ORIENTED_EDGE('',*,*,#1764,.T.);
#1764 = EDGE_CURVE('',#1757,#1685,#1765,.T.);
#1765 = LINE('',#1766,#1767);
#1766 = CARTESIAN_POINT('',(0.,-7.424026671074E-16,-4.041451884327));
#1767 = VECTOR('',#1768,1.);
#1768 = DIRECTION('',(0.,0.866025403784,0.5));
#1769 = ORIENTED_EDGE('',*,*,#1701,.T.);
#1770 = FACE_BOUND('',#1771,.F.);
#1771 = EDGE_LOOP('',(#1772));
#1772 = ORIENTED_EDGE('',*,*,#1773,.F.);
#1773 = EDGE_CURVE('',#1774,#1774,#1776,.T.);
#1774 = VERTEX_POINT('',#1775);
#1775 = CARTESIAN_POINT('',(0.,5.265981236334E-16,2.15));
#1776 = CIRCLE('',#1777,2.15);
#1777 = AXIS2_PLACEMENT_3D('',#1778,#1779,#1780);
#1778 = CARTESIAN_POINT('',(0.,0.,0.));
#1779 = DIRECTION('',(1.,0.,0.));
#1780 = DIRECTION('',(-0.,0.,1.));
#1781 = PLANE('',#1782);
#1782 = AXIS2_PLACEMENT_3D('',#1783,#1784,#1785);
#1783 = CARTESIAN_POINT('',(0.,-1.831393034651E-16,-3.662786069302E-17)
  );
#1784 = DIRECTION('',(1.,0.,0.));
#1785 = DIRECTION('',(-0.,0.,1.));
#1786 = ADVANCED_FACE('',(#1787,#1814),#1825,.T.);
#1787 = FACE_BOUND('',#1788,.T.);
#1788 = EDGE_LOOP('',(#1789,#1790,#1791,#1799,#1807,#1813));
#1789 = ORIENTED_EDGE('',*,*,#1654,.T.);
#1790 = ORIENTED_EDGE('',*,*,#1716,.T.);
#1791 = ORIENTED_EDGE('',*,*,#1792,.T.);
#1792 = EDGE_CURVE('',#1717,#1793,#1795,.T.);
#1793 = VERTEX_POINT('',#1794);
#1794 = CARTESIAN_POINT('',(4.,-3.5,-2.020725942164));
#1795 = LINE('',#1796,#1797);
#1796 = CARTESIAN_POINT('',(4.,-3.5,2.020725942164));
#1797 = VECTOR('',#1798,1.);
#1798 = DIRECTION('',(0.,-3.296507462372E-16,-1.));
#1799 = ORIENTED_EDGE('',*,*,#1800,.T.);
#1800 = EDGE_CURVE('',#1793,#1801,#1803,.T.);
#1801 = VERTEX_POINT('',#1802);
#1802 = CARTESIAN_POINT('',(4.,-7.424026671074E-16,-4.041451884327));
#1803 = LINE('',#1804,#1805);
#1804 = CARTESIAN_POINT('',(4.,-3.5,-2.020725942164));
#1805 = VECTOR('',#1806,1.);
#1806 = DIRECTION('',(0.,0.866025403784,-0.5));
#1807 = ORIENTED_EDGE('',*,*,#1808,.T.);
#1808 = EDGE_CURVE('',#1801,#1687,#1809,.T.);
#1809 = LINE('',#1810,#1811);
#1810 = CARTESIAN_POINT('',(4.,-7.424026671074E-16,-4.041451884327));
#1811 = VECTOR('',#1812,1.);
#1812 = DIRECTION('',(0.,0.866025403784,0.5));
#1813 = ORIENTED_EDGE('',*,*,#1694,.T.);
#1814 = FACE_BOUND('',#1815,.T.);
#1815 = EDGE_LOOP('',(#1816));
#1816 = ORIENTED_EDGE('',*,*,#1817,.F.);
#1817 = EDGE_CURVE('',#1818,#1818,#1820,.T.);
#1818 = VERTEX_POINT('',#1819);
#1819 = CARTESIAN_POINT('',(4.,5.265981236334E-16,2.15));
#1820 = CIRCLE('',#1821,2.15);
#1821 = AXIS2_PLACEMENT_3D('',#1822,#1823,#1824);
#1822 = CARTESIAN_POINT('',(4.,0.,0.));
#1823 = DIRECTION('',(1.,0.,0.));
#1824 = DIRECTION('',(-0.,0.,1.));
#1825 = PLANE('',#1826);
#1826 = AXIS2_PLACEMENT_3D('',#1827,#1828,#1829);
#1827 = CARTESIAN_POINT('',(4.,-1.831393034651E-16,-3.662786069302E-17)
  );
#1828 = DIRECTION('',(1.,0.,0.));
#1829 = DIRECTION('',(-0.,0.,1.));
#1830 = ADVANCED_FACE('',(#1831),#1842,.F.);
#1831 = FACE_BOUND('',#1832,.F.);
#1832 = EDGE_LOOP('',(#1833,#1839,#1840,#1841));
#1833 = ORIENTED_EDGE('',*,*,#1834,.T.);
#1834 = EDGE_CURVE('',#1757,#1801,#1835,.T.);
#1835 = LINE('',#1836,#1837);
#1836 = CARTESIAN_POINT('',(0.,-7.424026671074E-16,-4.041451884327));
#1837 = VECTOR('',#1838,1.);
#1838 = DIRECTION('',(1.,0.,0.));
#1839 = ORIENTED_EDGE('',*,*,#1808,.T.);
#1840 = ORIENTED_EDGE('',*,*,#1684,.F.);
#1841 = ORIENTED_EDGE('',*,*,#1764,.F.);
#1842 = PLANE('',#1843);
#1843 = AXIS2_PLACEMENT_3D('',#1844,#1845,#1846);
#1844 = CARTESIAN_POINT('',(0.,-7.424026671074E-16,-4.041451884327));
#1845 = DIRECTION('',(0.,-0.5,0.866025403784));
#1846 = DIRECTION('',(0.,0.866025403784,0.5));
#1847 = ADVANCED_FACE('',(#1848),#1859,.F.);
#1848 = FACE_BOUND('',#1849,.F.);
#1849 = EDGE_LOOP('',(#1850,#1851,#1852,#1858));
#1850 = ORIENTED_EDGE('',*,*,#1724,.T.);
#1851 = ORIENTED_EDGE('',*,*,#1792,.T.);
#1852 = ORIENTED_EDGE('',*,*,#1853,.F.);
#1853 = EDGE_CURVE('',#1749,#1793,#1854,.T.);
#1854 = LINE('',#1855,#1856);
#1855 = CARTESIAN_POINT('',(0.,-3.5,-2.020725942164));
#1856 = VECTOR('',#1857,1.);
#1857 = DIRECTION('',(1.,0.,0.));
#1858 = ORIENTED_EDGE('',*,*,#1748,.F.);
#1859 = PLANE('',#1860);
#1860 = AXIS2_PLACEMENT_3D('',#1861,#1862,#1863);
#1861 = CARTESIAN_POINT('',(0.,-3.5,2.020725942164));
#1862 = DIRECTION('',(0.,1.,-3.296507462372E-16));
#1863 = DIRECTION('',(0.,-3.296507462372E-16,-1.));
#1864 = ADVANCED_FACE('',(#1865),#1871,.F.);
#1865 = FACE_BOUND('',#1866,.F.);
#1866 = EDGE_LOOP('',(#1867,#1868,#1869,#1870));
#1867 = ORIENTED_EDGE('',*,*,#1853,.T.);
#1868 = ORIENTED_EDGE('',*,*,#1800,.T.);
#1869 = ORIENTED_EDGE('',*,*,#1834,.F.);
#1870 = ORIENTED_EDGE('',*,*,#1756,.F.);
#1871 = PLANE('',#1872);
#1872 = AXIS2_PLACEMENT_3D('',#1873,#1874,#1875);
#1873 = CARTESIAN_POINT('',(0.,-3.5,-2.020725942164));
#1874 = DIRECTION('',(-0.,0.5,0.866025403784));
#1875 = DIRECTION('',(0.,0.866025403784,-0.5));
#1876 = ADVANCED_FACE('',(#1877),#1888,.F.);
#1877 = FACE_BOUND('',#1878,.F.);
#1878 = EDGE_LOOP('',(#1879,#1880,#1886,#1887));
#1879 = ORIENTED_EDGE('',*,*,#1817,.F.);
#1880 = ORIENTED_EDGE('',*,*,#1881,.F.);
#1881 = EDGE_CURVE('',#1774,#1818,#1882,.T.);
#1882 = LINE('',#1883,#1884);
#1883 = CARTESIAN_POINT('',(-1.,5.265981236334E-16,2.15));
#1884 = VECTOR('',#1885,1.);
#1885 = DIRECTION('',(1.,0.,0.));
#1886 = ORIENTED_EDGE('',*,*,#1773,.T.);
#1887 = ORIENTED_EDGE('',*,*,#1881,.T.);
#1888 = CYLINDRICAL_SURFACE('',#1889,2.15);
#1889 = AXIS2_PLACEMENT_3D('',#1890,#1891,#1892);
#1890 = CARTESIAN_POINT('',(-1.,0.,0.));
#1891 = DIRECTION('',(1.,0.,0.));
#1892 = DIRECTION('',(-0.,0.,1.));
#1893 = ( GEOMETRIC_REPRESENTATION_CONTEXT(3) 
GLOBAL_UNCERTAINTY_ASSIGNED_CONTEXT((#1897)) 
GLOBAL_UNIT_ASSIGNED_CONTEXT((#1894,#1895,#1896)) REPRESENTATION_CONTEXT
('Context #1','3D Context with UNIT and UNCERTAINTY') );
#1894 = ( LENGTH_UNIT() NAMED_UNIT(*) SI_UNIT(.MILLI.,.METRE.) );
#1895 = ( NAMED_UNIT(*) PLANE_ANGLE_UNIT() SI_UNIT($,.RADIAN.) );
#1896 = ( NAMED_UNIT(*) SI_UNIT($,.STERADIAN.) SOLID_ANGLE_UNIT() );
#1897 = UNCERTAINTY_MEASURE_WITH_UNIT(LENGTH_MEASURE(1.E-07),#1894,
  'distance_accuracy_value','confusion accuracy');
#1898 = CONTEXT_DEPENDENT_SHAPE_REPRESENTATION(#1899,#1901);
#1899 = ( REPRESENTATION_RELATIONSHIP('','',#1637,#10) 
REPRESENTATION_RELATIONSHIP_WITH_TRANSFORMATION(#1900) 
SHAPE_REPRESENTATION_RELATIONSHIP() );
#1900 = ITEM_DEFINED_TRANSFORMATION('','',#11,#55);
#1901 = PRODUCT_DEFINITION_SHAPE('Placement','Placement of an item',
  #1902);
#1902 = NEXT_ASSEMBLY_USAGE_OCCURRENCE('11','reference_axle_locknut','',
  #5,#1632,$);
#1903 = PRODUCT_RELATED_PRODUCT_CATEGORY('part',$,(#1634));
#1904 = SHAPE_DEFINITION_REPRESENTATION(#1905,#1911);
#1905 = PRODUCT_DEFINITION_SHAPE('','',#1906);
#1906 = PRODUCT_DEFINITION('design','',#1907,#1910);
#1907 = PRODUCT_DEFINITION_FORMATION('','',#1908);
#1908 = PRODUCT('reference_standoff_1','reference_standoff_1','',(#1909)
  );
#1909 = PRODUCT_CONTEXT('',#2,'mechanical');
#1910 = PRODUCT_DEFINITION_CONTEXT('part definition',#2,'design');
#1911 = ADVANCED_BREP_SHAPE_REPRESENTATION('',(#11,#1912),#2004);
#1912 = MANIFOLD_SOLID_BREP('',#1913);
#1913 = CLOSED_SHELL('',(#1914,#1947,#1967,#1987));
#1914 = ADVANCED_FACE('',(#1915),#1942,.T.);
#1915 = FACE_BOUND('',#1916,.T.);
#1916 = EDGE_LOOP('',(#1917,#1926,#1934,#1941));
#1917 = ORIENTED_EDGE('',*,*,#1918,.F.);
#1918 = EDGE_CURVE('',#1919,#1919,#1921,.T.);
#1919 = VERTEX_POINT('',#1920);
#1920 = CARTESIAN_POINT('',(12.,9.797174393179E-16,4.));
#1921 = CIRCLE('',#1922,4.);
#1922 = AXIS2_PLACEMENT_3D('',#1923,#1924,#1925);
#1923 = CARTESIAN_POINT('',(12.,0.,0.));
#1924 = DIRECTION('',(1.,0.,0.));
#1925 = DIRECTION('',(-0.,0.,1.));
#1926 = ORIENTED_EDGE('',*,*,#1927,.F.);
#1927 = EDGE_CURVE('',#1928,#1919,#1930,.T.);
#1928 = VERTEX_POINT('',#1929);
#1929 = CARTESIAN_POINT('',(0.,9.797174393179E-16,4.));
#1930 = LINE('',#1931,#1932);
#1931 = CARTESIAN_POINT('',(0.,9.797174393179E-16,4.));
#1932 = VECTOR('',#1933,1.);
#1933 = DIRECTION('',(1.,0.,0.));
#1934 = ORIENTED_EDGE('',*,*,#1935,.T.);
#1935 = EDGE_CURVE('',#1928,#1928,#1936,.T.);
#1936 = CIRCLE('',#1937,4.);
#1937 = AXIS2_PLACEMENT_3D('',#1938,#1939,#1940);
#1938 = CARTESIAN_POINT('',(0.,0.,0.));
#1939 = DIRECTION('',(1.,0.,0.));
#1940 = DIRECTION('',(-0.,0.,1.));
#1941 = ORIENTED_EDGE('',*,*,#1927,.T.);
#1942 = CYLINDRICAL_SURFACE('',#1943,4.);
#1943 = AXIS2_PLACEMENT_3D('',#1944,#1945,#1946);
#1944 = CARTESIAN_POINT('',(0.,0.,0.));
#1945 = DIRECTION('',(1.,0.,0.));
#1946 = DIRECTION('',(-0.,0.,1.));
#1947 = ADVANCED_FACE('',(#1948,#1951),#1962,.T.);
#1948 = FACE_BOUND('',#1949,.T.);
#1949 = EDGE_LOOP('',(#1950));
#1950 = ORIENTED_EDGE('',*,*,#1918,.T.);
#1951 = FACE_BOUND('',#1952,.T.);
#1952 = EDGE_LOOP('',(#1953));
#1953 = ORIENTED_EDGE('',*,*,#1954,.F.);
#1954 = EDGE_CURVE('',#1955,#1955,#1957,.T.);
#1955 = VERTEX_POINT('',#1956);
#1956 = CARTESIAN_POINT('',(12.,5.265981236334E-16,2.15));
#1957 = CIRCLE('',#1958,2.15);
#1958 = AXIS2_PLACEMENT_3D('',#1959,#1960,#1961);
#1959 = CARTESIAN_POINT('',(12.,0.,0.));
#1960 = DIRECTION('',(1.,0.,0.));
#1961 = DIRECTION('',(-0.,0.,1.));
#1962 = PLANE('',#1963);
#1963 = AXIS2_PLACEMENT_3D('',#1964,#1965,#1966);
#1964 = CARTESIAN_POINT('',(12.,0.,0.));
#1965 = DIRECTION('',(1.,0.,0.));
#1966 = DIRECTION('',(-0.,0.,1.));
#1967 = ADVANCED_FACE('',(#1968,#1971),#1982,.F.);
#1968 = FACE_BOUND('',#1969,.F.);
#1969 = EDGE_LOOP('',(#1970));
#1970 = ORIENTED_EDGE('',*,*,#1935,.T.);
#1971 = FACE_BOUND('',#1972,.F.);
#1972 = EDGE_LOOP('',(#1973));
#1973 = ORIENTED_EDGE('',*,*,#1974,.F.);
#1974 = EDGE_CURVE('',#1975,#1975,#1977,.T.);
#1975 = VERTEX_POINT('',#1976);
#1976 = CARTESIAN_POINT('',(0.,5.265981236334E-16,2.15));
#1977 = CIRCLE('',#1978,2.15);
#1978 = AXIS2_PLACEMENT_3D('',#1979,#1980,#1981);
#1979 = CARTESIAN_POINT('',(0.,0.,0.));
#1980 = DIRECTION('',(1.,0.,0.));
#1981 = DIRECTION('',(-0.,0.,1.));
#1982 = PLANE('',#1983);
#1983 = AXIS2_PLACEMENT_3D('',#1984,#1985,#1986);
#1984 = CARTESIAN_POINT('',(0.,0.,0.));
#1985 = DIRECTION('',(1.,0.,0.));
#1986 = DIRECTION('',(-0.,0.,1.));
#1987 = ADVANCED_FACE('',(#1988),#1999,.F.);
#1988 = FACE_BOUND('',#1989,.F.);
#1989 = EDGE_LOOP('',(#1990,#1991,#1997,#1998));
#1990 = ORIENTED_EDGE('',*,*,#1954,.F.);
#1991 = ORIENTED_EDGE('',*,*,#1992,.F.);
#1992 = EDGE_CURVE('',#1975,#1955,#1993,.T.);
#1993 = LINE('',#1994,#1995);
#1994 = CARTESIAN_POINT('',(-1.,5.265981236334E-16,2.15));
#1995 = VECTOR('',#1996,1.);
#1996 = DIRECTION('',(1.,0.,0.));
#1997 = ORIENTED_EDGE('',*,*,#1974,.T.);
#1998 = ORIENTED_EDGE('',*,*,#1992,.T.);
#1999 = CYLINDRICAL_SURFACE('',#2000,2.15);
#2000 = AXIS2_PLACEMENT_3D('',#2001,#2002,#2003);
#2001 = CARTESIAN_POINT('',(-1.,0.,0.));
#2002 = DIRECTION('',(1.,0.,0.));
#2003 = DIRECTION('',(-0.,0.,1.));
#2004 = ( GEOMETRIC_REPRESENTATION_CONTEXT(3) 
GLOBAL_UNCERTAINTY_ASSIGNED_CONTEXT((#2008)) 
GLOBAL_UNIT_ASSIGNED_CONTEXT((#2005,#2006,#2007)) REPRESENTATION_CONTEXT
('Context #1','3D Context with UNIT and UNCERTAINTY') );
#2005 = ( LENGTH_UNIT() NAMED_UNIT(*) SI_UNIT(.MILLI.,.METRE.) );
#2006 = ( NAMED_UNIT(*) PLANE_ANGLE_UNIT() SI_UNIT($,.RADIAN.) );
#2007 = ( NAMED_UNIT(*) SI_UNIT($,.STERADIAN.) SOLID_ANGLE_UNIT() );
#2008 = UNCERTAINTY_MEASURE_WITH_UNIT(LENGTH_MEASURE(1.E-07),#2005,
  'distance_accuracy_value','confusion accuracy');
#2009 = CONTEXT_DEPENDENT_SHAPE_REPRESENTATION(#2010,#2012);
#2010 = ( REPRESENTATION_RELATIONSHIP('','',#1911,#10) 
REPRESENTATION_RELATIONSHIP_WITH_TRANSFORMATION(#2011) 
SHAPE_REPRESENTATION_RELATIONSHIP() );
#2011 = ITEM_DEFINED_TRANSFORMATION('','',#11,#59);
#2012 = PRODUCT_DEFINITION_SHAPE('Placement','Placement of an item',
  #2013);
#2013 = NEXT_ASSEMBLY_USAGE_OCCURRENCE('12','reference_standoff_1','',#5
  ,#1906,$);
#2014 = PRODUCT_RELATED_PRODUCT_CATEGORY('part',$,(#1908));
#2015 = SHAPE_DEFINITION_REPRESENTATION(#2016,#2022);
#2016 = PRODUCT_DEFINITION_SHAPE('','',#2017);
#2017 = PRODUCT_DEFINITION('design','',#2018,#2021);
#2018 = PRODUCT_DEFINITION_FORMATION('','',#2019);
#2019 = PRODUCT('reference_standoff_2','reference_standoff_2','',(#2020)
  );
#2020 = PRODUCT_CONTEXT('',#2,'mechanical');
#2021 = PRODUCT_DEFINITION_CONTEXT('part definition',#2,'design');
#2022 = ADVANCED_BREP_SHAPE_REPRESENTATION('',(#11,#2023),#2115);
#2023 = MANIFOLD_SOLID_BREP('',#2024);
#2024 = CLOSED_SHELL('',(#2025,#2058,#2078,#2098));
#2025 = ADVANCED_FACE('',(#2026),#2053,.T.);
#2026 = FACE_BOUND('',#2027,.T.);
#2027 = EDGE_LOOP('',(#2028,#2037,#2045,#2052));
#2028 = ORIENTED_EDGE('',*,*,#2029,.F.);
#2029 = EDGE_CURVE('',#2030,#2030,#2032,.T.);
#2030 = VERTEX_POINT('',#2031);
#2031 = CARTESIAN_POINT('',(12.,9.797174393179E-16,4.));
#2032 = CIRCLE('',#2033,4.);
#2033 = AXIS2_PLACEMENT_3D('',#2034,#2035,#2036);
#2034 = CARTESIAN_POINT('',(12.,0.,0.));
#2035 = DIRECTION('',(1.,0.,0.));
#2036 = DIRECTION('',(-0.,0.,1.));
#2037 = ORIENTED_EDGE('',*,*,#2038,.F.);
#2038 = EDGE_CURVE('',#2039,#2030,#2041,.T.);
#2039 = VERTEX_POINT('',#2040);
#2040 = CARTESIAN_POINT('',(0.,9.797174393179E-16,4.));
#2041 = LINE('',#2042,#2043);
#2042 = CARTESIAN_POINT('',(0.,9.797174393179E-16,4.));
#2043 = VECTOR('',#2044,1.);
#2044 = DIRECTION('',(1.,0.,0.));
#2045 = ORIENTED_EDGE('',*,*,#2046,.T.);
#2046 = EDGE_CURVE('',#2039,#2039,#2047,.T.);
#2047 = CIRCLE('',#2048,4.);
#2048 = AXIS2_PLACEMENT_3D('',#2049,#2050,#2051);
#2049 = CARTESIAN_POINT('',(0.,0.,0.));
#2050 = DIRECTION('',(1.,0.,0.));
#2051 = DIRECTION('',(-0.,0.,1.));
#2052 = ORIENTED_EDGE('',*,*,#2038,.T.);
#2053 = CYLINDRICAL_SURFACE('',#2054,4.);
#2054 = AXIS2_PLACEMENT_3D('',#2055,#2056,#2057);
#2055 = CARTESIAN_POINT('',(0.,0.,0.));
#2056 = DIRECTION('',(1.,0.,0.));
#2057 = DIRECTION('',(-0.,0.,1.));
#2058 = ADVANCED_FACE('',(#2059,#2062),#2073,.T.);
#2059 = FACE_BOUND('',#2060,.T.);
#2060 = EDGE_LOOP('',(#2061));
#2061 = ORIENTED_EDGE('',*,*,#2029,.T.);
#2062 = FACE_BOUND('',#2063,.T.);
#2063 = EDGE_LOOP('',(#2064));
#2064 = ORIENTED_EDGE('',*,*,#2065,.F.);
#2065 = EDGE_CURVE('',#2066,#2066,#2068,.T.);
#2066 = VERTEX_POINT('',#2067);
#2067 = CARTESIAN_POINT('',(12.,5.265981236334E-16,2.15));
#2068 = CIRCLE('',#2069,2.15);
#2069 = AXIS2_PLACEMENT_3D('',#2070,#2071,#2072);
#2070 = CARTESIAN_POINT('',(12.,0.,0.));
#2071 = DIRECTION('',(1.,0.,0.));
#2072 = DIRECTION('',(-0.,0.,1.));
#2073 = PLANE('',#2074);
#2074 = AXIS2_PLACEMENT_3D('',#2075,#2076,#2077);
#2075 = CARTESIAN_POINT('',(12.,0.,0.));
#2076 = DIRECTION('',(1.,0.,0.));
#2077 = DIRECTION('',(-0.,0.,1.));
#2078 = ADVANCED_FACE('',(#2079,#2082),#2093,.F.);
#2079 = FACE_BOUND('',#2080,.F.);
#2080 = EDGE_LOOP('',(#2081));
#2081 = ORIENTED_EDGE('',*,*,#2046,.T.);
#2082 = FACE_BOUND('',#2083,.F.);
#2083 = EDGE_LOOP('',(#2084));
#2084 = ORIENTED_EDGE('',*,*,#2085,.F.);
#2085 = EDGE_CURVE('',#2086,#2086,#2088,.T.);
#2086 = VERTEX_POINT('',#2087);
#2087 = CARTESIAN_POINT('',(0.,5.265981236334E-16,2.15));
#2088 = CIRCLE('',#2089,2.15);
#2089 = AXIS2_PLACEMENT_3D('',#2090,#2091,#2092);
#2090 = CARTESIAN_POINT('',(0.,0.,0.));
#2091 = DIRECTION('',(1.,0.,0.));
#2092 = DIRECTION('',(-0.,0.,1.));
#2093 = PLANE('',#2094);
#2094 = AXIS2_PLACEMENT_3D('',#2095,#2096,#2097);
#2095 = CARTESIAN_POINT('',(0.,0.,0.));
#2096 = DIRECTION('',(1.,0.,0.));
#2097 = DIRECTION('',(-0.,0.,1.));
#2098 = ADVANCED_FACE('',(#2099),#2110,.F.);
#2099 = FACE_BOUND('',#2100,.F.);
#2100 = EDGE_LOOP('',(#2101,#2102,#2108,#2109));
#2101 = ORIENTED_EDGE('',*,*,#2065,.F.);
#2102 = ORIENTED_EDGE('',*,*,#2103,.F.);
#2103 = EDGE_CURVE('',#2086,#2066,#2104,.T.);
#2104 = LINE('',#2105,#2106);
#2105 = CARTESIAN_POINT('',(-1.,5.265981236334E-16,2.15));
#2106 = VECTOR('',#2107,1.);
#2107 = DIRECTION('',(1.,0.,0.));
#2108 = ORIENTED_EDGE('',*,*,#2085,.T.);
#2109 = ORIENTED_EDGE('',*,*,#2103,.T.);
#2110 = CYLINDRICAL_SURFACE('',#2111,2.15);
#2111 = AXIS2_PLACEMENT_3D('',#2112,#2113,#2114);
#2112 = CARTESIAN_POINT('',(-1.,0.,0.));
#2113 = DIRECTION('',(1.,0.,0.));
#2114 = DIRECTION('',(-0.,0.,1.));
#2115 = ( GEOMETRIC_REPRESENTATION_CONTEXT(3) 
GLOBAL_UNCERTAINTY_ASSIGNED_CONTEXT((#2119)) 
GLOBAL_UNIT_ASSIGNED_CONTEXT((#2116,#2117,#2118)) REPRESENTATION_CONTEXT
('Context #1','3D Context with UNIT and UNCERTAINTY') );
#2116 = ( LENGTH_UNIT() NAMED_UNIT(*) SI_UNIT(.MILLI.,.METRE.) );
#2117 = ( NAMED_UNIT(*) PLANE_ANGLE_UNIT() SI_UNIT($,.RADIAN.) );
#2118 = ( NAMED_UNIT(*) SI_UNIT($,.STERADIAN.) SOLID_ANGLE_UNIT() );
#2119 = UNCERTAINTY_MEASURE_WITH_UNIT(LENGTH_MEASURE(1.E-07),#2116,
  'distance_accuracy_value','confusion accuracy');
#2120 = CONTEXT_DEPENDENT_SHAPE_REPRESENTATION(#2121,#2123);
#2121 = ( REPRESENTATION_RELATIONSHIP('','',#2022,#10) 
REPRESENTATION_RELATIONSHIP_WITH_TRANSFORMATION(#2122) 
SHAPE_REPRESENTATION_RELATIONSHIP() );
#2122 = ITEM_DEFINED_TRANSFORMATION('','',#11,#63);
#2123 = PRODUCT_DEFINITION_SHAPE('Placement','Placement of an item',
  #2124);
#2124 = NEXT_ASSEMBLY_USAGE_OCCURRENCE('13','reference_standoff_2','',#5
  ,#2017,$);
#2125 = PRODUCT_RELATED_PRODUCT_CATEGORY('part',$,(#2019));
ENDSEC;
END-ISO-10303-21;
