ISO-10303-21;
HEADER;
FILE_DESCRIPTION(('FreeCAD Model'),'2;1');
FILE_NAME('Open CASCADE Shape Model','2026-08-25T18:43:59',('Author'),(
    ''),'Open CASCADE STEP processor 7.8','FreeCAD','Unknown');
FILE_SCHEMA(('AUTOMOTIVE_DESIGN { 1 0 10303 214 1 1 1 1 }'));
ENDSEC;
DATA;
#1 = APPLICATION_PROTOCOL_DEFINITION('international standard',
  'automotive_design',2000,#2);
#2 = APPLICATION_CONTEXT(
  'core data for automotive mechanical design processes');
#3 = SHAPE_DEFINITION_REPRESENTATION(#4,#10);
#4 = PRODUCT_DEFINITION_SHAPE('','',#5);
#5 = PRODUCT_DEFINITION('design','',#6,#9);
#6 = PRODUCT_DEFINITION_FORMATION('','',#7);
#7 = PRODUCT('guide_wheel_Aplus_retrofit','guide_wheel_Aplus_retrofit',
  '',(#8));
#8 = PRODUCT_CONTEXT('',#2,'mechanical');
#9 = PRODUCT_DEFINITION_CONTEXT('part definition',#2,'design');
#10 = SHAPE_REPRESENTATION('',(#11,#15,#19,#23,#27,#31,#35,#39,#43,#47,
    #51,#55),#59);
#11 = AXIS2_PLACEMENT_3D('',#12,#13,#14);
#12 = CARTESIAN_POINT('',(0.,0.,0.));
#13 = DIRECTION('',(0.,0.,1.));
#14 = DIRECTION('',(1.,0.,-0.));
#15 = AXIS2_PLACEMENT_3D('',#16,#17,#18);
#16 = CARTESIAN_POINT('',(0.,0.,0.));
#17 = DIRECTION('',(0.,0.,1.));
#18 = DIRECTION('',(1.,0.,0.));
#19 = AXIS2_PLACEMENT_3D('',#20,#21,#22);
#20 = CARTESIAN_POINT('',(-8.,0.,0.));
#21 = DIRECTION('',(0.,0.,1.));
#22 = DIRECTION('',(1.,0.,0.));
#23 = AXIS2_PLACEMENT_3D('',#24,#25,#26);
#24 = CARTESIAN_POINT('',(-0.5,0.,0.));
#25 = DIRECTION('',(0.,0.,1.));
#26 = DIRECTION('',(1.,0.,0.));
#27 = AXIS2_PLACEMENT_3D('',#28,#29,#30);
#28 = CARTESIAN_POINT('',(0.,0.,0.));
#29 = DIRECTION('',(0.,0.,1.));
#30 = DIRECTION('',(1.,0.,0.));
#31 = AXIS2_PLACEMENT_3D('',#32,#33,#34);
#32 = CARTESIAN_POINT('',(0.,0.,0.));
#33 = DIRECTION('',(0.,0.,1.));
#34 = DIRECTION('',(1.,0.,0.));
#35 = AXIS2_PLACEMENT_3D('',#36,#37,#38);
#36 = CARTESIAN_POINT('',(10.,0.,0.));
#37 = DIRECTION('',(0.,0.,1.));
#38 = DIRECTION('',(1.,0.,0.));
#39 = AXIS2_PLACEMENT_3D('',#40,#41,#42);
#40 = CARTESIAN_POINT('',(10.7,0.,0.));
#41 = DIRECTION('',(0.,0.,1.));
#42 = DIRECTION('',(1.,0.,0.));
#43 = AXIS2_PLACEMENT_3D('',#44,#45,#46);
#44 = CARTESIAN_POINT('',(12.,0.,0.));
#45 = DIRECTION('',(0.,0.,1.));
#46 = DIRECTION('',(1.,0.,0.));
#47 = AXIS2_PLACEMENT_3D('',#48,#49,#50);
#48 = CARTESIAN_POINT('',(-8.,0.,0.));
#49 = DIRECTION('',(0.,0.,1.));
#50 = DIRECTION('',(1.,0.,0.));
#51 = AXIS2_PLACEMENT_3D('',#52,#53,#54);
#52 = CARTESIAN_POINT('',(0.,9.5,13.3));
#53 = DIRECTION('',(0.,0.,1.));
#54 = DIRECTION('',(1.,0.,0.));
#55 = AXIS2_PLACEMENT_3D('',#56,#57,#58);
#56 = CARTESIAN_POINT('',(0.,38.5,40.3));
#57 = DIRECTION('',(0.,0.,1.));
#58 = DIRECTION('',(1.,0.,0.));
#59 = ( GEOMETRIC_REPRESENTATION_CONTEXT(3) 
GLOBAL_UNCERTAINTY_ASSIGNED_CONTEXT((#63)) GLOBAL_UNIT_ASSIGNED_CONTEXT(
(#60,#61,#62)) REPRESENTATION_CONTEXT('Context #1',
  '3D Context with UNIT and UNCERTAINTY') );
#60 = ( LENGTH_UNIT() NAMED_UNIT(*) SI_UNIT(.MILLI.,.METRE.) );
#61 = ( NAMED_UNIT(*) PLANE_ANGLE_UNIT() SI_UNIT($,.RADIAN.) );
#62 = ( NAMED_UNIT(*) SI_UNIT($,.STERADIAN.) SOLID_ANGLE_UNIT() );
#63 = UNCERTAINTY_MEASURE_WITH_UNIT(LENGTH_MEASURE(1.E-07),#60,
  'distance_accuracy_value','confusion accuracy');
#64 = PRODUCT_RELATED_PRODUCT_CATEGORY('part',$,(#7));
#65 = SHAPE_DEFINITION_REPRESENTATION(#66,#72);
#66 = PRODUCT_DEFINITION_SHAPE('','',#67);
#67 = PRODUCT_DEFINITION('design','',#68,#71);
#68 = PRODUCT_DEFINITION_FORMATION('','',#69);
#69 = PRODUCT('reference_inner_mount_plate',
  'reference_inner_mount_plate','',(#70));
#70 = PRODUCT_CONTEXT('',#2,'mechanical');
#71 = PRODUCT_DEFINITION_CONTEXT('part definition',#2,'design');
#72 = ADVANCED_BREP_SHAPE_REPRESENTATION('',(#11,#73),#307);
#73 = MANIFOLD_SOLID_BREP('',#74);
#74 = CLOSED_SHELL('',(#75,#126,#157,#181,#205,#222,#247,#270,#290));
#75 = ADVANCED_FACE('',(#76,#110),#121,.F.);
#76 = FACE_BOUND('',#77,.F.);
#77 = EDGE_LOOP('',(#78,#88,#96,#104));
#78 = ORIENTED_EDGE('',*,*,#79,.F.);
#79 = EDGE_CURVE('',#80,#82,#84,.T.);
#80 = VERTEX_POINT('',#81);
#81 = CARTESIAN_POINT('',(-8.,-30.,-35.));
#82 = VERTEX_POINT('',#83);
#83 = CARTESIAN_POINT('',(-8.,-30.,35.));
#84 = LINE('',#85,#86);
#85 = CARTESIAN_POINT('',(-8.,-30.,-35.));
#86 = VECTOR('',#87,1.);
#87 = DIRECTION('',(0.,0.,1.));
#88 = ORIENTED_EDGE('',*,*,#89,.T.);
#89 = EDGE_CURVE('',#80,#90,#92,.T.);
#90 = VERTEX_POINT('',#91);
#91 = CARTESIAN_POINT('',(-8.,30.,-35.));
#92 = LINE('',#93,#94);
#93 = CARTESIAN_POINT('',(-8.,-30.,-35.));
#94 = VECTOR('',#95,1.);
#95 = DIRECTION('',(-0.,1.,0.));
#96 = ORIENTED_EDGE('',*,*,#97,.T.);
#97 = EDGE_CURVE('',#90,#98,#100,.T.);
#98 = VERTEX_POINT('',#99);
#99 = CARTESIAN_POINT('',(-8.,30.,35.));
#100 = LINE('',#101,#102);
#101 = CARTESIAN_POINT('',(-8.,30.,-35.));
#102 = VECTOR('',#103,1.);
#103 = DIRECTION('',(0.,0.,1.));
#104 = ORIENTED_EDGE('',*,*,#105,.F.);
#105 = EDGE_CURVE('',#82,#98,#106,.T.);
#106 = LINE('',#107,#108);
#107 = CARTESIAN_POINT('',(-8.,-30.,35.));
#108 = VECTOR('',#109,1.);
#109 = DIRECTION('',(-0.,1.,0.));
#110 = FACE_BOUND('',#111,.F.);
#111 = EDGE_LOOP('',(#112));
#112 = ORIENTED_EDGE('',*,*,#113,.F.);
#113 = EDGE_CURVE('',#114,#114,#116,.T.);
#114 = VERTEX_POINT('',#115);
#115 = CARTESIAN_POINT('',(-8.,7.347880794884E-16,3.));
#116 = CIRCLE('',#117,3.);
#117 = AXIS2_PLACEMENT_3D('',#118,#119,#120);
#118 = CARTESIAN_POINT('',(-8.,0.,0.));
#119 = DIRECTION('',(1.,0.,0.));
#120 = DIRECTION('',(-0.,0.,1.));
#121 = PLANE('',#122);
#122 = AXIS2_PLACEMENT_3D('',#123,#124,#125);
#123 = CARTESIAN_POINT('',(-8.,-30.,-35.));
#124 = DIRECTION('',(1.,0.,-0.));
#125 = DIRECTION('',(0.,0.,1.));
#126 = ADVANCED_FACE('',(#127),#152,.F.);
#127 = FACE_BOUND('',#128,.F.);
#128 = EDGE_LOOP('',(#129,#137,#138,#146));
#129 = ORIENTED_EDGE('',*,*,#130,.F.);
#130 = EDGE_CURVE('',#80,#131,#133,.T.);
#131 = VERTEX_POINT('',#132);
#132 = CARTESIAN_POINT('',(0.,-30.,-35.));
#133 = LINE('',#134,#135);
#134 = CARTESIAN_POINT('',(-8.,-30.,-35.));
#135 = VECTOR('',#136,1.);
#136 = DIRECTION('',(1.,0.,-0.));
#137 = ORIENTED_EDGE('',*,*,#79,.T.);
#138 = ORIENTED_EDGE('',*,*,#139,.T.);
#139 = EDGE_CURVE('',#82,#140,#142,.T.);
#140 = VERTEX_POINT('',#141);
#141 = CARTESIAN_POINT('',(0.,-30.,35.));
#142 = LINE('',#143,#144);
#143 = CARTESIAN_POINT('',(-8.,-30.,35.));
#144 = VECTOR('',#145,1.);
#145 = DIRECTION('',(1.,0.,-0.));
#146 = ORIENTED_EDGE('',*,*,#147,.F.);
#147 = EDGE_CURVE('',#131,#140,#148,.T.);
#148 = LINE('',#149,#150);
#149 = CARTESIAN_POINT('',(0.,-30.,-35.));
#150 = VECTOR('',#151,1.);
#151 = DIRECTION('',(0.,0.,1.));
#152 = PLANE('',#153);
#153 = AXIS2_PLACEMENT_3D('',#154,#155,#156);
#154 = CARTESIAN_POINT('',(-8.,-30.,-35.));
#155 = DIRECTION('',(-0.,1.,0.));
#156 = DIRECTION('',(0.,0.,1.));
#157 = ADVANCED_FACE('',(#158),#176,.T.);
#158 = FACE_BOUND('',#159,.T.);
#159 = EDGE_LOOP('',(#160,#161,#162,#170));
#160 = ORIENTED_EDGE('',*,*,#105,.F.);
#161 = ORIENTED_EDGE('',*,*,#139,.T.);
#162 = ORIENTED_EDGE('',*,*,#163,.T.);
#163 = EDGE_CURVE('',#140,#164,#166,.T.);
#164 = VERTEX_POINT('',#165);
#165 = CARTESIAN_POINT('',(0.,30.,35.));
#166 = LINE('',#167,#168);
#167 = CARTESIAN_POINT('',(0.,-30.,35.));
#168 = VECTOR('',#169,1.);
#169 = DIRECTION('',(-0.,1.,0.));
#170 = ORIENTED_EDGE('',*,*,#171,.F.);
#171 = EDGE_CURVE('',#98,#164,#172,.T.);
#172 = LINE('',#173,#174);
#173 = CARTESIAN_POINT('',(-8.,30.,35.));
#174 = VECTOR('',#175,1.);
#175 = DIRECTION('',(1.,0.,-0.));
#176 = PLANE('',#177);
#177 = AXIS2_PLACEMENT_3D('',#178,#179,#180);
#178 = CARTESIAN_POINT('',(-8.,-30.,35.));
#179 = DIRECTION('',(0.,0.,1.));
#180 = DIRECTION('',(1.,0.,-0.));
#181 = ADVANCED_FACE('',(#182),#200,.F.);
#182 = FACE_BOUND('',#183,.F.);
#183 = EDGE_LOOP('',(#184,#185,#186,#194));
#184 = ORIENTED_EDGE('',*,*,#89,.F.);
#185 = ORIENTED_EDGE('',*,*,#130,.T.);
#186 = ORIENTED_EDGE('',*,*,#187,.T.);
#187 = EDGE_CURVE('',#131,#188,#190,.T.);
#188 = VERTEX_POINT('',#189);
#189 = CARTESIAN_POINT('',(0.,30.,-35.));
#190 = LINE('',#191,#192);
#191 = CARTESIAN_POINT('',(0.,-30.,-35.));
#192 = VECTOR('',#193,1.);
#193 = DIRECTION('',(-0.,1.,0.));
#194 = ORIENTED_EDGE('',*,*,#195,.F.);
#195 = EDGE_CURVE('',#90,#188,#196,.T.);
#196 = LINE('',#197,#198);
#197 = CARTESIAN_POINT('',(-8.,30.,-35.));
#198 = VECTOR('',#199,1.);
#199 = DIRECTION('',(1.,0.,-0.));
#200 = PLANE('',#201);
#201 = AXIS2_PLACEMENT_3D('',#202,#203,#204);
#202 = CARTESIAN_POINT('',(-8.,-30.,-35.));
#203 = DIRECTION('',(0.,0.,1.));
#204 = DIRECTION('',(1.,0.,-0.));
#205 = ADVANCED_FACE('',(#206),#217,.T.);
#206 = FACE_BOUND('',#207,.T.);
#207 = EDGE_LOOP('',(#208,#209,#210,#211));
#208 = ORIENTED_EDGE('',*,*,#195,.F.);
#209 = ORIENTED_EDGE('',*,*,#97,.T.);
#210 = ORIENTED_EDGE('',*,*,#171,.T.);
#211 = ORIENTED_EDGE('',*,*,#212,.F.);
#212 = EDGE_CURVE('',#188,#164,#213,.T.);
#213 = LINE('',#214,#215);
#214 = CARTESIAN_POINT('',(0.,30.,-35.));
#215 = VECTOR('',#216,1.);
#216 = DIRECTION('',(0.,0.,1.));
#217 = PLANE('',#218);
#218 = AXIS2_PLACEMENT_3D('',#219,#220,#221);
#219 = CARTESIAN_POINT('',(-8.,30.,-35.));
#220 = DIRECTION('',(-0.,1.,0.));
#221 = DIRECTION('',(0.,0.,1.));
#222 = ADVANCED_FACE('',(#223),#242,.F.);
#223 = FACE_BOUND('',#224,.F.);
#224 = EDGE_LOOP('',(#225,#234,#240,#241));
#225 = ORIENTED_EDGE('',*,*,#226,.F.);
#226 = EDGE_CURVE('',#227,#227,#229,.T.);
#227 = VERTEX_POINT('',#228);
#228 = CARTESIAN_POINT('',(-0.5,7.347880794884E-16,3.));
#229 = CIRCLE('',#230,3.);
#230 = AXIS2_PLACEMENT_3D('',#231,#232,#233);
#231 = CARTESIAN_POINT('',(-0.5,0.,0.));
#232 = DIRECTION('',(1.,0.,0.));
#233 = DIRECTION('',(-0.,0.,1.));
#234 = ORIENTED_EDGE('',*,*,#235,.F.);
#235 = EDGE_CURVE('',#114,#227,#236,.T.);
#236 = LINE('',#237,#238);
#237 = CARTESIAN_POINT('',(-9.,7.347880794884E-16,3.));
#238 = VECTOR('',#239,1.);
#239 = DIRECTION('',(1.,0.,0.));
#240 = ORIENTED_EDGE('',*,*,#113,.T.);
#241 = ORIENTED_EDGE('',*,*,#235,.T.);
#242 = CYLINDRICAL_SURFACE('',#243,3.);
#243 = AXIS2_PLACEMENT_3D('',#244,#245,#246);
#244 = CARTESIAN_POINT('',(-9.,0.,0.));
#245 = DIRECTION('',(1.,0.,0.));
#246 = DIRECTION('',(-0.,0.,1.));
#247 = ADVANCED_FACE('',(#248,#254),#265,.T.);
#248 = FACE_BOUND('',#249,.T.);
#249 = EDGE_LOOP('',(#250,#251,#252,#253));
#250 = ORIENTED_EDGE('',*,*,#147,.F.);
#251 = ORIENTED_EDGE('',*,*,#187,.T.);
#252 = ORIENTED_EDGE('',*,*,#212,.T.);
#253 = ORIENTED_EDGE('',*,*,#163,.F.);
#254 = FACE_BOUND('',#255,.T.);
#255 = EDGE_LOOP('',(#256));
#256 = ORIENTED_EDGE('',*,*,#257,.F.);
#257 = EDGE_CURVE('',#258,#258,#260,.T.);
#258 = VERTEX_POINT('',#259);
#259 = CARTESIAN_POINT('',(0.,1.102182119233E-15,4.5));
#260 = CIRCLE('',#261,4.5);
#261 = AXIS2_PLACEMENT_3D('',#262,#263,#264);
#262 = CARTESIAN_POINT('',(0.,0.,0.));
#263 = DIRECTION('',(1.,0.,0.));
#264 = DIRECTION('',(-0.,0.,1.));
#265 = PLANE('',#266);
#266 = AXIS2_PLACEMENT_3D('',#267,#268,#269);
#267 = CARTESIAN_POINT('',(0.,-30.,-35.));
#268 = DIRECTION('',(1.,0.,-0.));
#269 = DIRECTION('',(0.,0.,1.));
#270 = ADVANCED_FACE('',(#271,#282),#285,.T.);
#271 = FACE_BOUND('',#272,.T.);
#272 = EDGE_LOOP('',(#273));
#273 = ORIENTED_EDGE('',*,*,#274,.T.);
#274 = EDGE_CURVE('',#275,#275,#277,.T.);
#275 = VERTEX_POINT('',#276);
#276 = CARTESIAN_POINT('',(-0.5,1.102182119233E-15,4.5));
#277 = CIRCLE('',#278,4.5);
#278 = AXIS2_PLACEMENT_3D('',#279,#280,#281);
#279 = CARTESIAN_POINT('',(-0.5,0.,0.));
#280 = DIRECTION('',(1.,0.,0.));
#281 = DIRECTION('',(-0.,0.,1.));
#282 = FACE_BOUND('',#283,.T.);
#283 = EDGE_LOOP('',(#284));
#284 = ORIENTED_EDGE('',*,*,#226,.F.);
#285 = PLANE('',#286);
#286 = AXIS2_PLACEMENT_3D('',#287,#288,#289);
#287 = CARTESIAN_POINT('',(-0.5,0.,0.));
#288 = DIRECTION('',(1.,0.,0.));
#289 = DIRECTION('',(-0.,0.,1.));
#290 = ADVANCED_FACE('',(#291),#302,.F.);
#291 = FACE_BOUND('',#292,.F.);
#292 = EDGE_LOOP('',(#293,#294,#300,#301));
#293 = ORIENTED_EDGE('',*,*,#257,.F.);
#294 = ORIENTED_EDGE('',*,*,#295,.F.);
#295 = EDGE_CURVE('',#275,#258,#296,.T.);
#296 = LINE('',#297,#298);
#297 = CARTESIAN_POINT('',(-0.5,1.102182119233E-15,4.5));
#298 = VECTOR('',#299,1.);
#299 = DIRECTION('',(1.,0.,0.));
#300 = ORIENTED_EDGE('',*,*,#274,.T.);
#301 = ORIENTED_EDGE('',*,*,#295,.T.);
#302 = CYLINDRICAL_SURFACE('',#303,4.5);
#303 = AXIS2_PLACEMENT_3D('',#304,#305,#306);
#304 = CARTESIAN_POINT('',(-0.5,0.,0.));
#305 = DIRECTION('',(1.,0.,0.));
#306 = DIRECTION('',(-0.,0.,1.));
#307 = ( GEOMETRIC_REPRESENTATION_CONTEXT(3) 
GLOBAL_UNCERTAINTY_ASSIGNED_CONTEXT((#311)) GLOBAL_UNIT_ASSIGNED_CONTEXT
((#308,#309,#310)) REPRESENTATION_CONTEXT('Context #1',
  '3D Context with UNIT and UNCERTAINTY') );
#308 = ( LENGTH_UNIT() NAMED_UNIT(*) SI_UNIT(.MILLI.,.METRE.) );
#309 = ( NAMED_UNIT(*) PLANE_ANGLE_UNIT() SI_UNIT($,.RADIAN.) );
#310 = ( NAMED_UNIT(*) SI_UNIT($,.STERADIAN.) SOLID_ANGLE_UNIT() );
#311 = UNCERTAINTY_MEASURE_WITH_UNIT(LENGTH_MEASURE(1.E-07),#308,
  'distance_accuracy_value','confusion accuracy');
#312 = CONTEXT_DEPENDENT_SHAPE_REPRESENTATION(#313,#315);
#313 = ( REPRESENTATION_RELATIONSHIP('','',#72,#10) 
REPRESENTATION_RELATIONSHIP_WITH_TRANSFORMATION(#314) 
SHAPE_REPRESENTATION_RELATIONSHIP() );
#314 = ITEM_DEFINED_TRANSFORMATION('','',#11,#15);
#315 = PRODUCT_DEFINITION_SHAPE('Placement','Placement of an item',#316
  );
#316 = NEXT_ASSEMBLY_USAGE_OCCURRENCE('1','reference_inner_mount_plate',
  '',#5,#67,$);
#317 = PRODUCT_RELATED_PRODUCT_CATEGORY('part',$,(#69));
#318 = SHAPE_DEFINITION_REPRESENTATION(#319,#325);
#319 = PRODUCT_DEFINITION_SHAPE('','',#320);
#320 = PRODUCT_DEFINITION('design','',#321,#324);
#321 = PRODUCT_DEFINITION_FORMATION('','',#322);
#322 = PRODUCT('reference_inner_reducer','reference_inner_reducer','',(
    #323));
#323 = PRODUCT_CONTEXT('',#2,'mechanical');
#324 = PRODUCT_DEFINITION_CONTEXT('part definition',#2,'design');
#325 = ADVANCED_BREP_SHAPE_REPRESENTATION('',(#11,#326),#418);
#326 = MANIFOLD_SOLID_BREP('',#327);
#327 = CLOSED_SHELL('',(#328,#361,#381,#401));
#328 = ADVANCED_FACE('',(#329),#356,.T.);
#329 = FACE_BOUND('',#330,.T.);
#330 = EDGE_LOOP('',(#331,#340,#348,#355));
#331 = ORIENTED_EDGE('',*,*,#332,.F.);
#332 = EDGE_CURVE('',#333,#333,#335,.T.);
#333 = VERTEX_POINT('',#334);
#334 = CARTESIAN_POINT('',(8.,7.347880794884E-16,3.));
#335 = CIRCLE('',#336,3.);
#336 = AXIS2_PLACEMENT_3D('',#337,#338,#339);
#337 = CARTESIAN_POINT('',(8.,0.,0.));
#338 = DIRECTION('',(1.,0.,0.));
#339 = DIRECTION('',(-0.,0.,1.));
#340 = ORIENTED_EDGE('',*,*,#341,.F.);
#341 = EDGE_CURVE('',#342,#333,#344,.T.);
#342 = VERTEX_POINT('',#343);
#343 = CARTESIAN_POINT('',(0.,7.347880794884E-16,3.));
#344 = LINE('',#345,#346);
#345 = CARTESIAN_POINT('',(0.,7.347880794884E-16,3.));
#346 = VECTOR('',#347,1.);
#347 = DIRECTION('',(1.,0.,0.));
#348 = ORIENTED_EDGE('',*,*,#349,.T.);
#349 = EDGE_CURVE('',#342,#342,#350,.T.);
#350 = CIRCLE('',#351,3.);
#351 = AXIS2_PLACEMENT_3D('',#352,#353,#354);
#352 = CARTESIAN_POINT('',(0.,0.,0.));
#353 = DIRECTION('',(1.,0.,0.));
#354 = DIRECTION('',(-0.,0.,1.));
#355 = ORIENTED_EDGE('',*,*,#341,.T.);
#356 = CYLINDRICAL_SURFACE('',#357,3.);
#357 = AXIS2_PLACEMENT_3D('',#358,#359,#360);
#358 = CARTESIAN_POINT('',(0.,0.,0.));
#359 = DIRECTION('',(1.,0.,0.));
#360 = DIRECTION('',(-0.,0.,1.));
#361 = ADVANCED_FACE('',(#362,#365),#376,.T.);
#362 = FACE_BOUND('',#363,.T.);
#363 = EDGE_LOOP('',(#364));
#364 = ORIENTED_EDGE('',*,*,#332,.T.);
#365 = FACE_BOUND('',#366,.T.);
#366 = EDGE_LOOP('',(#367));
#367 = ORIENTED_EDGE('',*,*,#368,.F.);
#368 = EDGE_CURVE('',#369,#369,#371,.T.);
#369 = VERTEX_POINT('',#370);
#370 = CARTESIAN_POINT('',(8.,6.123233995737E-16,2.5));
#371 = CIRCLE('',#372,2.5);
#372 = AXIS2_PLACEMENT_3D('',#373,#374,#375);
#373 = CARTESIAN_POINT('',(8.,0.,0.));
#374 = DIRECTION('',(1.,0.,0.));
#375 = DIRECTION('',(-0.,0.,1.));
#376 = PLANE('',#377);
#377 = AXIS2_PLACEMENT_3D('',#378,#379,#380);
#378 = CARTESIAN_POINT('',(8.,0.,0.));
#379 = DIRECTION('',(1.,0.,0.));
#380 = DIRECTION('',(-0.,0.,1.));
#381 = ADVANCED_FACE('',(#382,#385),#396,.F.);
#382 = FACE_BOUND('',#383,.F.);
#383 = EDGE_LOOP('',(#384));
#384 = ORIENTED_EDGE('',*,*,#349,.T.);
#385 = FACE_BOUND('',#386,.F.);
#386 = EDGE_LOOP('',(#387));
#387 = ORIENTED_EDGE('',*,*,#388,.F.);
#388 = EDGE_CURVE('',#389,#389,#391,.T.);
#389 = VERTEX_POINT('',#390);
#390 = CARTESIAN_POINT('',(0.,6.123233995737E-16,2.5));
#391 = CIRCLE('',#392,2.5);
#392 = AXIS2_PLACEMENT_3D('',#393,#394,#395);
#393 = CARTESIAN_POINT('',(0.,0.,0.));
#394 = DIRECTION('',(1.,0.,0.));
#395 = DIRECTION('',(-0.,0.,1.));
#396 = PLANE('',#397);
#397 = AXIS2_PLACEMENT_3D('',#398,#399,#400);
#398 = CARTESIAN_POINT('',(0.,0.,0.));
#399 = DIRECTION('',(1.,0.,0.));
#400 = DIRECTION('',(-0.,0.,1.));
#401 = ADVANCED_FACE('',(#402),#413,.F.);
#402 = FACE_BOUND('',#403,.F.);
#403 = EDGE_LOOP('',(#404,#405,#411,#412));
#404 = ORIENTED_EDGE('',*,*,#368,.F.);
#405 = ORIENTED_EDGE('',*,*,#406,.F.);
#406 = EDGE_CURVE('',#389,#369,#407,.T.);
#407 = LINE('',#408,#409);
#408 = CARTESIAN_POINT('',(-1.,6.123233995737E-16,2.5));
#409 = VECTOR('',#410,1.);
#410 = DIRECTION('',(1.,0.,0.));
#411 = ORIENTED_EDGE('',*,*,#388,.T.);
#412 = ORIENTED_EDGE('',*,*,#406,.T.);
#413 = CYLINDRICAL_SURFACE('',#414,2.5);
#414 = AXIS2_PLACEMENT_3D('',#415,#416,#417);
#415 = CARTESIAN_POINT('',(-1.,0.,0.));
#416 = DIRECTION('',(1.,0.,0.));
#417 = DIRECTION('',(-0.,0.,1.));
#418 = ( GEOMETRIC_REPRESENTATION_CONTEXT(3) 
GLOBAL_UNCERTAINTY_ASSIGNED_CONTEXT((#422)) GLOBAL_UNIT_ASSIGNED_CONTEXT
((#419,#420,#421)) REPRESENTATION_CONTEXT('Context #1',
  '3D Context with UNIT and UNCERTAINTY') );
#419 = ( LENGTH_UNIT() NAMED_UNIT(*) SI_UNIT(.MILLI.,.METRE.) );
#420 = ( NAMED_UNIT(*) PLANE_ANGLE_UNIT() SI_UNIT($,.RADIAN.) );
#421 = ( NAMED_UNIT(*) SI_UNIT($,.STERADIAN.) SOLID_ANGLE_UNIT() );
#422 = UNCERTAINTY_MEASURE_WITH_UNIT(LENGTH_MEASURE(1.E-07),#419,
  'distance_accuracy_value','confusion accuracy');
#423 = CONTEXT_DEPENDENT_SHAPE_REPRESENTATION(#424,#426);
#424 = ( REPRESENTATION_RELATIONSHIP('','',#325,#10) 
REPRESENTATION_RELATIONSHIP_WITH_TRANSFORMATION(#425) 
SHAPE_REPRESENTATION_RELATIONSHIP() );
#425 = ITEM_DEFINED_TRANSFORMATION('','',#11,#19);
#426 = PRODUCT_DEFINITION_SHAPE('Placement','Placement of an item',#427
  );
#427 = NEXT_ASSEMBLY_USAGE_OCCURRENCE('2','reference_inner_reducer','',
  #5,#320,$);
#428 = PRODUCT_RELATED_PRODUCT_CATEGORY('part',$,(#322));
#429 = SHAPE_DEFINITION_REPRESENTATION(#430,#436);
#430 = PRODUCT_DEFINITION_SHAPE('','',#431);
#431 = PRODUCT_DEFINITION('design','',#432,#435);
#432 = PRODUCT_DEFINITION_FORMATION('','',#433);
#433 = PRODUCT('reference_inner_thrust_washer',
  'reference_inner_thrust_washer','',(#434));
#434 = PRODUCT_CONTEXT('',#2,'mechanical');
#435 = PRODUCT_DEFINITION_CONTEXT('part definition',#2,'design');
#436 = ADVANCED_BREP_SHAPE_REPRESENTATION('',(#11,#437),#529);
#437 = MANIFOLD_SOLID_BREP('',#438);
#438 = CLOSED_SHELL('',(#439,#472,#492,#512));
#439 = ADVANCED_FACE('',(#440),#467,.T.);
#440 = FACE_BOUND('',#441,.T.);
#441 = EDGE_LOOP('',(#442,#451,#459,#466));
#442 = ORIENTED_EDGE('',*,*,#443,.F.);
#443 = EDGE_CURVE('',#444,#444,#446,.T.);
#444 = VERTEX_POINT('',#445);
#445 = CARTESIAN_POINT('',(0.5,1.102182119233E-15,4.5));
#446 = CIRCLE('',#447,4.5);
#447 = AXIS2_PLACEMENT_3D('',#448,#449,#450);
#448 = CARTESIAN_POINT('',(0.5,0.,0.));
#449 = DIRECTION('',(1.,0.,0.));
#450 = DIRECTION('',(-0.,0.,1.));
#451 = ORIENTED_EDGE('',*,*,#452,.F.);
#452 = EDGE_CURVE('',#453,#444,#455,.T.);
#453 = VERTEX_POINT('',#454);
#454 = CARTESIAN_POINT('',(0.,1.102182119233E-15,4.5));
#455 = LINE('',#456,#457);
#456 = CARTESIAN_POINT('',(0.,1.102182119233E-15,4.5));
#457 = VECTOR('',#458,1.);
#458 = DIRECTION('',(1.,0.,0.));
#459 = ORIENTED_EDGE('',*,*,#460,.T.);
#460 = EDGE_CURVE('',#453,#453,#461,.T.);
#461 = CIRCLE('',#462,4.5);
#462 = AXIS2_PLACEMENT_3D('',#463,#464,#465);
#463 = CARTESIAN_POINT('',(0.,0.,0.));
#464 = DIRECTION('',(1.,0.,0.));
#465 = DIRECTION('',(-0.,0.,1.));
#466 = ORIENTED_EDGE('',*,*,#452,.T.);
#467 = CYLINDRICAL_SURFACE('',#468,4.5);
#468 = AXIS2_PLACEMENT_3D('',#469,#470,#471);
#469 = CARTESIAN_POINT('',(0.,0.,0.));
#470 = DIRECTION('',(1.,0.,0.));
#471 = DIRECTION('',(-0.,0.,1.));
#472 = ADVANCED_FACE('',(#473,#476),#487,.T.);
#473 = FACE_BOUND('',#474,.T.);
#474 = EDGE_LOOP('',(#475));
#475 = ORIENTED_EDGE('',*,*,#443,.T.);
#476 = FACE_BOUND('',#477,.T.);
#477 = EDGE_LOOP('',(#478));
#478 = ORIENTED_EDGE('',*,*,#479,.F.);
#479 = EDGE_CURVE('',#480,#480,#482,.T.);
#480 = VERTEX_POINT('',#481);
#481 = CARTESIAN_POINT('',(0.5,6.368163355566E-16,2.6));
#482 = CIRCLE('',#483,2.6);
#483 = AXIS2_PLACEMENT_3D('',#484,#485,#486);
#484 = CARTESIAN_POINT('',(0.5,0.,0.));
#485 = DIRECTION('',(1.,0.,0.));
#486 = DIRECTION('',(-0.,0.,1.));
#487 = PLANE('',#488);
#488 = AXIS2_PLACEMENT_3D('',#489,#490,#491);
#489 = CARTESIAN_POINT('',(0.5,0.,0.));
#490 = DIRECTION('',(1.,0.,0.));
#491 = DIRECTION('',(-0.,0.,1.));
#492 = ADVANCED_FACE('',(#493,#496),#507,.F.);
#493 = FACE_BOUND('',#494,.F.);
#494 = EDGE_LOOP('',(#495));
#495 = ORIENTED_EDGE('',*,*,#460,.T.);
#496 = FACE_BOUND('',#497,.F.);
#497 = EDGE_LOOP('',(#498));
#498 = ORIENTED_EDGE('',*,*,#499,.F.);
#499 = EDGE_CURVE('',#500,#500,#502,.T.);
#500 = VERTEX_POINT('',#501);
#501 = CARTESIAN_POINT('',(0.,6.368163355566E-16,2.6));
#502 = CIRCLE('',#503,2.6);
#503 = AXIS2_PLACEMENT_3D('',#504,#505,#506);
#504 = CARTESIAN_POINT('',(0.,0.,0.));
#505 = DIRECTION('',(1.,0.,0.));
#506 = DIRECTION('',(-0.,0.,1.));
#507 = PLANE('',#508);
#508 = AXIS2_PLACEMENT_3D('',#509,#510,#511);
#509 = CARTESIAN_POINT('',(0.,0.,0.));
#510 = DIRECTION('',(1.,0.,0.));
#511 = DIRECTION('',(-0.,0.,1.));
#512 = ADVANCED_FACE('',(#513),#524,.F.);
#513 = FACE_BOUND('',#514,.F.);
#514 = EDGE_LOOP('',(#515,#516,#522,#523));
#515 = ORIENTED_EDGE('',*,*,#479,.F.);
#516 = ORIENTED_EDGE('',*,*,#517,.F.);
#517 = EDGE_CURVE('',#500,#480,#518,.T.);
#518 = LINE('',#519,#520);
#519 = CARTESIAN_POINT('',(-1.,6.368163355566E-16,2.6));
#520 = VECTOR('',#521,1.);
#521 = DIRECTION('',(1.,0.,0.));
#522 = ORIENTED_EDGE('',*,*,#499,.T.);
#523 = ORIENTED_EDGE('',*,*,#517,.T.);
#524 = CYLINDRICAL_SURFACE('',#525,2.6);
#525 = AXIS2_PLACEMENT_3D('',#526,#527,#528);
#526 = CARTESIAN_POINT('',(-1.,0.,0.));
#527 = DIRECTION('',(1.,0.,0.));
#528 = DIRECTION('',(-0.,0.,1.));
#529 = ( GEOMETRIC_REPRESENTATION_CONTEXT(3) 
GLOBAL_UNCERTAINTY_ASSIGNED_CONTEXT((#533)) GLOBAL_UNIT_ASSIGNED_CONTEXT
((#530,#531,#532)) REPRESENTATION_CONTEXT('Context #1',
  '3D Context with UNIT and UNCERTAINTY') );
#530 = ( LENGTH_UNIT() NAMED_UNIT(*) SI_UNIT(.MILLI.,.METRE.) );
#531 = ( NAMED_UNIT(*) PLANE_ANGLE_UNIT() SI_UNIT($,.RADIAN.) );
#532 = ( NAMED_UNIT(*) SI_UNIT($,.STERADIAN.) SOLID_ANGLE_UNIT() );
#533 = UNCERTAINTY_MEASURE_WITH_UNIT(LENGTH_MEASURE(1.E-07),#530,
  'distance_accuracy_value','confusion accuracy');
#534 = CONTEXT_DEPENDENT_SHAPE_REPRESENTATION(#535,#537);
#535 = ( REPRESENTATION_RELATIONSHIP('','',#436,#10) 
REPRESENTATION_RELATIONSHIP_WITH_TRANSFORMATION(#536) 
SHAPE_REPRESENTATION_RELATIONSHIP() );
#536 = ITEM_DEFINED_TRANSFORMATION('','',#11,#23);
#537 = PRODUCT_DEFINITION_SHAPE('Placement','Placement of an item',#538
  );
#538 = NEXT_ASSEMBLY_USAGE_OCCURRENCE('3',
  'reference_inner_thrust_washer','',#5,#431,$);
#539 = PRODUCT_RELATED_PRODUCT_CATEGORY('part',$,(#433));
#540 = SHAPE_DEFINITION_REPRESENTATION(#541,#547);
#541 = PRODUCT_DEFINITION_SHAPE('','',#542);
#542 = PRODUCT_DEFINITION('design','',#543,#546);
#543 = PRODUCT_DEFINITION_FORMATION('','',#544);
#544 = PRODUCT('reference_existing_40mm_guide_roller',
  'reference_existing_40mm_guide_roller','',(#545));
#545 = PRODUCT_CONTEXT('',#2,'mechanical');
#546 = PRODUCT_DEFINITION_CONTEXT('part definition',#2,'design');
#547 = ADVANCED_BREP_SHAPE_REPRESENTATION('',(#11,#548),#640);
#548 = MANIFOLD_SOLID_BREP('',#549);
#549 = CLOSED_SHELL('',(#550,#583,#603,#623));
#550 = ADVANCED_FACE('',(#551),#578,.T.);
#551 = FACE_BOUND('',#552,.T.);
#552 = EDGE_LOOP('',(#553,#562,#570,#577));
#553 = ORIENTED_EDGE('',*,*,#554,.F.);
#554 = EDGE_CURVE('',#555,#555,#557,.T.);
#555 = VERTEX_POINT('',#556);
#556 = CARTESIAN_POINT('',(10.,4.898587196589E-15,20.));
#557 = CIRCLE('',#558,20.);
#558 = AXIS2_PLACEMENT_3D('',#559,#560,#561);
#559 = CARTESIAN_POINT('',(10.,0.,0.));
#560 = DIRECTION('',(1.,0.,0.));
#561 = DIRECTION('',(-0.,0.,1.));
#562 = ORIENTED_EDGE('',*,*,#563,.F.);
#563 = EDGE_CURVE('',#564,#555,#566,.T.);
#564 = VERTEX_POINT('',#565);
#565 = CARTESIAN_POINT('',(0.,4.898587196589E-15,20.));
#566 = LINE('',#567,#568);
#567 = CARTESIAN_POINT('',(0.,4.898587196589E-15,20.));
#568 = VECTOR('',#569,1.);
#569 = DIRECTION('',(1.,0.,0.));
#570 = ORIENTED_EDGE('',*,*,#571,.T.);
#571 = EDGE_CURVE('',#564,#564,#572,.T.);
#572 = CIRCLE('',#573,20.);
#573 = AXIS2_PLACEMENT_3D('',#574,#575,#576);
#574 = CARTESIAN_POINT('',(0.,0.,0.));
#575 = DIRECTION('',(1.,0.,0.));
#576 = DIRECTION('',(-0.,0.,1.));
#577 = ORIENTED_EDGE('',*,*,#563,.T.);
#578 = CYLINDRICAL_SURFACE('',#579,20.);
#579 = AXIS2_PLACEMENT_3D('',#580,#581,#582);
#580 = CARTESIAN_POINT('',(0.,0.,0.));
#581 = DIRECTION('',(1.,0.,0.));
#582 = DIRECTION('',(-0.,0.,1.));
#583 = ADVANCED_FACE('',(#584,#587),#598,.T.);
#584 = FACE_BOUND('',#585,.T.);
#585 = EDGE_LOOP('',(#586));
#586 = ORIENTED_EDGE('',*,*,#554,.T.);
#587 = FACE_BOUND('',#588,.T.);
#588 = EDGE_LOOP('',(#589));
#589 = ORIENTED_EDGE('',*,*,#590,.F.);
#590 = EDGE_CURVE('',#591,#591,#593,.T.);
#591 = VERTEX_POINT('',#592);
#592 = CARTESIAN_POINT('',(10.,7.347880794884E-16,3.));
#593 = CIRCLE('',#594,3.);
#594 = AXIS2_PLACEMENT_3D('',#595,#596,#597);
#595 = CARTESIAN_POINT('',(10.,0.,0.));
#596 = DIRECTION('',(1.,0.,0.));
#597 = DIRECTION('',(-0.,0.,1.));
#598 = PLANE('',#599);
#599 = AXIS2_PLACEMENT_3D('',#600,#601,#602);
#600 = CARTESIAN_POINT('',(10.,0.,0.));
#601 = DIRECTION('',(1.,0.,0.));
#602 = DIRECTION('',(-0.,0.,1.));
#603 = ADVANCED_FACE('',(#604,#607),#618,.F.);
#604 = FACE_BOUND('',#605,.F.);
#605 = EDGE_LOOP('',(#606));
#606 = ORIENTED_EDGE('',*,*,#571,.T.);
#607 = FACE_BOUND('',#608,.F.);
#608 = EDGE_LOOP('',(#609));
#609 = ORIENTED_EDGE('',*,*,#610,.F.);
#610 = EDGE_CURVE('',#611,#611,#613,.T.);
#611 = VERTEX_POINT('',#612);
#612 = CARTESIAN_POINT('',(0.,7.347880794884E-16,3.));
#613 = CIRCLE('',#614,3.);
#614 = AXIS2_PLACEMENT_3D('',#615,#616,#617);
#615 = CARTESIAN_POINT('',(0.,0.,0.));
#616 = DIRECTION('',(1.,0.,0.));
#617 = DIRECTION('',(-0.,0.,1.));
#618 = PLANE('',#619);
#619 = AXIS2_PLACEMENT_3D('',#620,#621,#622);
#620 = CARTESIAN_POINT('',(0.,0.,0.));
#621 = DIRECTION('',(1.,0.,0.));
#622 = DIRECTION('',(-0.,0.,1.));
#623 = ADVANCED_FACE('',(#624),#635,.F.);
#624 = FACE_BOUND('',#625,.F.);
#625 = EDGE_LOOP('',(#626,#627,#633,#634));
#626 = ORIENTED_EDGE('',*,*,#590,.F.);
#627 = ORIENTED_EDGE('',*,*,#628,.F.);
#628 = EDGE_CURVE('',#611,#591,#629,.T.);
#629 = LINE('',#630,#631);
#630 = CARTESIAN_POINT('',(-1.,7.347880794884E-16,3.));
#631 = VECTOR('',#632,1.);
#632 = DIRECTION('',(1.,0.,0.));
#633 = ORIENTED_EDGE('',*,*,#610,.T.);
#634 = ORIENTED_EDGE('',*,*,#628,.T.);
#635 = CYLINDRICAL_SURFACE('',#636,3.);
#636 = AXIS2_PLACEMENT_3D('',#637,#638,#639);
#637 = CARTESIAN_POINT('',(-1.,0.,0.));
#638 = DIRECTION('',(1.,0.,0.));
#639 = DIRECTION('',(-0.,0.,1.));
#640 = ( GEOMETRIC_REPRESENTATION_CONTEXT(3) 
GLOBAL_UNCERTAINTY_ASSIGNED_CONTEXT((#644)) GLOBAL_UNIT_ASSIGNED_CONTEXT
((#641,#642,#643)) REPRESENTATION_CONTEXT('Context #1',
  '3D Context with UNIT and UNCERTAINTY') );
#641 = ( LENGTH_UNIT() NAMED_UNIT(*) SI_UNIT(.MILLI.,.METRE.) );
#642 = ( NAMED_UNIT(*) PLANE_ANGLE_UNIT() SI_UNIT($,.RADIAN.) );
#643 = ( NAMED_UNIT(*) SI_UNIT($,.STERADIAN.) SOLID_ANGLE_UNIT() );
#644 = UNCERTAINTY_MEASURE_WITH_UNIT(LENGTH_MEASURE(1.E-07),#641,
  'distance_accuracy_value','confusion accuracy');
#645 = CONTEXT_DEPENDENT_SHAPE_REPRESENTATION(#646,#648);
#646 = ( REPRESENTATION_RELATIONSHIP('','',#547,#10) 
REPRESENTATION_RELATIONSHIP_WITH_TRANSFORMATION(#647) 
SHAPE_REPRESENTATION_RELATIONSHIP() );
#647 = ITEM_DEFINED_TRANSFORMATION('','',#11,#27);
#648 = PRODUCT_DEFINITION_SHAPE('Placement','Placement of an item',#649
  );
#649 = NEXT_ASSEMBLY_USAGE_OCCURRENCE('4',
  'reference_existing_40mm_guide_roller','',#5,#542,$);
#650 = PRODUCT_RELATED_PRODUCT_CATEGORY('part',$,(#544));
#651 = SHAPE_DEFINITION_REPRESENTATION(#652,#658);
#652 = PRODUCT_DEFINITION_SHAPE('','',#653);
#653 = PRODUCT_DEFINITION('design','',#654,#657);
#654 = PRODUCT_DEFINITION_FORMATION('','',#655);
#655 = PRODUCT('reference_roller_bushing','reference_roller_bushing','',
  (#656));
#656 = PRODUCT_CONTEXT('',#2,'mechanical');
#657 = PRODUCT_DEFINITION_CONTEXT('part definition',#2,'design');
#658 = ADVANCED_BREP_SHAPE_REPRESENTATION('',(#11,#659),#751);
#659 = MANIFOLD_SOLID_BREP('',#660);
#660 = CLOSED_SHELL('',(#661,#694,#714,#734));
#661 = ADVANCED_FACE('',(#662),#689,.T.);
#662 = FACE_BOUND('',#663,.T.);
#663 = EDGE_LOOP('',(#664,#673,#681,#688));
#664 = ORIENTED_EDGE('',*,*,#665,.F.);
#665 = EDGE_CURVE('',#666,#666,#668,.T.);
#666 = VERTEX_POINT('',#667);
#667 = CARTESIAN_POINT('',(10.,7.347880794884E-16,3.));
#668 = CIRCLE('',#669,3.);
#669 = AXIS2_PLACEMENT_3D('',#670,#671,#672);
#670 = CARTESIAN_POINT('',(10.,0.,0.));
#671 = DIRECTION('',(1.,0.,0.));
#672 = DIRECTION('',(-0.,0.,1.));
#673 = ORIENTED_EDGE('',*,*,#674,.F.);
#674 = EDGE_CURVE('',#675,#666,#677,.T.);
#675 = VERTEX_POINT('',#676);
#676 = CARTESIAN_POINT('',(0.,7.347880794884E-16,3.));
#677 = LINE('',#678,#679);
#678 = CARTESIAN_POINT('',(0.,7.347880794884E-16,3.));
#679 = VECTOR('',#680,1.);
#680 = DIRECTION('',(1.,0.,0.));
#681 = ORIENTED_EDGE('',*,*,#682,.T.);
#682 = EDGE_CURVE('',#675,#675,#683,.T.);
#683 = CIRCLE('',#684,3.);
#684 = AXIS2_PLACEMENT_3D('',#685,#686,#687);
#685 = CARTESIAN_POINT('',(0.,0.,0.));
#686 = DIRECTION('',(1.,0.,0.));
#687 = DIRECTION('',(-0.,0.,1.));
#688 = ORIENTED_EDGE('',*,*,#674,.T.);
#689 = CYLINDRICAL_SURFACE('',#690,3.);
#690 = AXIS2_PLACEMENT_3D('',#691,#692,#693);
#691 = CARTESIAN_POINT('',(0.,0.,0.));
#692 = DIRECTION('',(1.,0.,0.));
#693 = DIRECTION('',(-0.,0.,1.));
#694 = ADVANCED_FACE('',(#695,#698),#709,.T.);
#695 = FACE_BOUND('',#696,.T.);
#696 = EDGE_LOOP('',(#697));
#697 = ORIENTED_EDGE('',*,*,#665,.T.);
#698 = FACE_BOUND('',#699,.T.);
#699 = EDGE_LOOP('',(#700));
#700 = ORIENTED_EDGE('',*,*,#701,.F.);
#701 = EDGE_CURVE('',#702,#702,#704,.T.);
#702 = VERTEX_POINT('',#703);
#703 = CARTESIAN_POINT('',(10.,6.123233995737E-16,2.5));
#704 = CIRCLE('',#705,2.5);
#705 = AXIS2_PLACEMENT_3D('',#706,#707,#708);
#706 = CARTESIAN_POINT('',(10.,0.,0.));
#707 = DIRECTION('',(1.,0.,0.));
#708 = DIRECTION('',(-0.,0.,1.));
#709 = PLANE('',#710);
#710 = AXIS2_PLACEMENT_3D('',#711,#712,#713);
#711 = CARTESIAN_POINT('',(10.,0.,0.));
#712 = DIRECTION('',(1.,0.,0.));
#713 = DIRECTION('',(-0.,0.,1.));
#714 = ADVANCED_FACE('',(#715,#718),#729,.F.);
#715 = FACE_BOUND('',#716,.F.);
#716 = EDGE_LOOP('',(#717));
#717 = ORIENTED_EDGE('',*,*,#682,.T.);
#718 = FACE_BOUND('',#719,.F.);
#719 = EDGE_LOOP('',(#720));
#720 = ORIENTED_EDGE('',*,*,#721,.F.);
#721 = EDGE_CURVE('',#722,#722,#724,.T.);
#722 = VERTEX_POINT('',#723);
#723 = CARTESIAN_POINT('',(0.,6.123233995737E-16,2.5));
#724 = CIRCLE('',#725,2.5);
#725 = AXIS2_PLACEMENT_3D('',#726,#727,#728);
#726 = CARTESIAN_POINT('',(0.,0.,0.));
#727 = DIRECTION('',(1.,0.,0.));
#728 = DIRECTION('',(-0.,0.,1.));
#729 = PLANE('',#730);
#730 = AXIS2_PLACEMENT_3D('',#731,#732,#733);
#731 = CARTESIAN_POINT('',(0.,0.,0.));
#732 = DIRECTION('',(1.,0.,0.));
#733 = DIRECTION('',(-0.,0.,1.));
#734 = ADVANCED_FACE('',(#735),#746,.F.);
#735 = FACE_BOUND('',#736,.F.);
#736 = EDGE_LOOP('',(#737,#738,#744,#745));
#737 = ORIENTED_EDGE('',*,*,#701,.F.);
#738 = ORIENTED_EDGE('',*,*,#739,.F.);
#739 = EDGE_CURVE('',#722,#702,#740,.T.);
#740 = LINE('',#741,#742);
#741 = CARTESIAN_POINT('',(-1.,6.123233995737E-16,2.5));
#742 = VECTOR('',#743,1.);
#743 = DIRECTION('',(1.,0.,0.));
#744 = ORIENTED_EDGE('',*,*,#721,.T.);
#745 = ORIENTED_EDGE('',*,*,#739,.T.);
#746 = CYLINDRICAL_SURFACE('',#747,2.5);
#747 = AXIS2_PLACEMENT_3D('',#748,#749,#750);
#748 = CARTESIAN_POINT('',(-1.,0.,0.));
#749 = DIRECTION('',(1.,0.,0.));
#750 = DIRECTION('',(-0.,0.,1.));
#751 = ( GEOMETRIC_REPRESENTATION_CONTEXT(3) 
GLOBAL_UNCERTAINTY_ASSIGNED_CONTEXT((#755)) GLOBAL_UNIT_ASSIGNED_CONTEXT
((#752,#753,#754)) REPRESENTATION_CONTEXT('Context #1',
  '3D Context with UNIT and UNCERTAINTY') );
#752 = ( LENGTH_UNIT() NAMED_UNIT(*) SI_UNIT(.MILLI.,.METRE.) );
#753 = ( NAMED_UNIT(*) PLANE_ANGLE_UNIT() SI_UNIT($,.RADIAN.) );
#754 = ( NAMED_UNIT(*) SI_UNIT($,.STERADIAN.) SOLID_ANGLE_UNIT() );
#755 = UNCERTAINTY_MEASURE_WITH_UNIT(LENGTH_MEASURE(1.E-07),#752,
  'distance_accuracy_value','confusion accuracy');
#756 = CONTEXT_DEPENDENT_SHAPE_REPRESENTATION(#757,#759);
#757 = ( REPRESENTATION_RELATIONSHIP('','',#658,#10) 
REPRESENTATION_RELATIONSHIP_WITH_TRANSFORMATION(#758) 
SHAPE_REPRESENTATION_RELATIONSHIP() );
#758 = ITEM_DEFINED_TRANSFORMATION('','',#11,#31);
#759 = PRODUCT_DEFINITION_SHAPE('Placement','Placement of an item',#760
  );
#760 = NEXT_ASSEMBLY_USAGE_OCCURRENCE('5','reference_roller_bushing','',
  #5,#653,$);
#761 = PRODUCT_RELATED_PRODUCT_CATEGORY('part',$,(#655));
#762 = SHAPE_DEFINITION_REPRESENTATION(#763,#769);
#763 = PRODUCT_DEFINITION_SHAPE('','',#764);
#764 = PRODUCT_DEFINITION('design','',#765,#768);
#765 = PRODUCT_DEFINITION_FORMATION('','',#766);
#766 = PRODUCT('reference_outer_thrust_washer',
  'reference_outer_thrust_washer','',(#767));
#767 = PRODUCT_CONTEXT('',#2,'mechanical');
#768 = PRODUCT_DEFINITION_CONTEXT('part definition',#2,'design');
#769 = ADVANCED_BREP_SHAPE_REPRESENTATION('',(#11,#770),#862);
#770 = MANIFOLD_SOLID_BREP('',#771);
#771 = CLOSED_SHELL('',(#772,#805,#825,#845));
#772 = ADVANCED_FACE('',(#773),#800,.T.);
#773 = FACE_BOUND('',#774,.T.);
#774 = EDGE_LOOP('',(#775,#784,#792,#799));
#775 = ORIENTED_EDGE('',*,*,#776,.F.);
#776 = EDGE_CURVE('',#777,#777,#779,.T.);
#777 = VERTEX_POINT('',#778);
#778 = CARTESIAN_POINT('',(0.5,1.102182119233E-15,4.5));
#779 = CIRCLE('',#780,4.5);
#780 = AXIS2_PLACEMENT_3D('',#781,#782,#783);
#781 = CARTESIAN_POINT('',(0.5,0.,0.));
#782 = DIRECTION('',(1.,0.,0.));
#783 = DIRECTION('',(-0.,0.,1.));
#784 = ORIENTED_EDGE('',*,*,#785,.F.);
#785 = EDGE_CURVE('',#786,#777,#788,.T.);
#786 = VERTEX_POINT('',#787);
#787 = CARTESIAN_POINT('',(0.,1.102182119233E-15,4.5));
#788 = LINE('',#789,#790);
#789 = CARTESIAN_POINT('',(0.,1.102182119233E-15,4.5));
#790 = VECTOR('',#791,1.);
#791 = DIRECTION('',(1.,0.,0.));
#792 = ORIENTED_EDGE('',*,*,#793,.T.);
#793 = EDGE_CURVE('',#786,#786,#794,.T.);
#794 = CIRCLE('',#795,4.5);
#795 = AXIS2_PLACEMENT_3D('',#796,#797,#798);
#796 = CARTESIAN_POINT('',(0.,0.,0.));
#797 = DIRECTION('',(1.,0.,0.));
#798 = DIRECTION('',(-0.,0.,1.));
#799 = ORIENTED_EDGE('',*,*,#785,.T.);
#800 = CYLINDRICAL_SURFACE('',#801,4.5);
#801 = AXIS2_PLACEMENT_3D('',#802,#803,#804);
#802 = CARTESIAN_POINT('',(0.,0.,0.));
#803 = DIRECTION('',(1.,0.,0.));
#804 = DIRECTION('',(-0.,0.,1.));
#805 = ADVANCED_FACE('',(#806,#809),#820,.T.);
#806 = FACE_BOUND('',#807,.T.);
#807 = EDGE_LOOP('',(#808));
#808 = ORIENTED_EDGE('',*,*,#776,.T.);
#809 = FACE_BOUND('',#810,.T.);
#810 = EDGE_LOOP('',(#811));
#811 = ORIENTED_EDGE('',*,*,#812,.F.);
#812 = EDGE_CURVE('',#813,#813,#815,.T.);
#813 = VERTEX_POINT('',#814);
#814 = CARTESIAN_POINT('',(0.5,6.368163355566E-16,2.6));
#815 = CIRCLE('',#816,2.6);
#816 = AXIS2_PLACEMENT_3D('',#817,#818,#819);
#817 = CARTESIAN_POINT('',(0.5,0.,0.));
#818 = DIRECTION('',(1.,0.,0.));
#819 = DIRECTION('',(-0.,0.,1.));
#820 = PLANE('',#821);
#821 = AXIS2_PLACEMENT_3D('',#822,#823,#824);
#822 = CARTESIAN_POINT('',(0.5,0.,0.));
#823 = DIRECTION('',(1.,0.,0.));
#824 = DIRECTION('',(-0.,0.,1.));
#825 = ADVANCED_FACE('',(#826,#829),#840,.F.);
#826 = FACE_BOUND('',#827,.F.);
#827 = EDGE_LOOP('',(#828));
#828 = ORIENTED_EDGE('',*,*,#793,.T.);
#829 = FACE_BOUND('',#830,.F.);
#830 = EDGE_LOOP('',(#831));
#831 = ORIENTED_EDGE('',*,*,#832,.F.);
#832 = EDGE_CURVE('',#833,#833,#835,.T.);
#833 = VERTEX_POINT('',#834);
#834 = CARTESIAN_POINT('',(0.,6.368163355566E-16,2.6));
#835 = CIRCLE('',#836,2.6);
#836 = AXIS2_PLACEMENT_3D('',#837,#838,#839);
#837 = CARTESIAN_POINT('',(0.,0.,0.));
#838 = DIRECTION('',(1.,0.,0.));
#839 = DIRECTION('',(-0.,0.,1.));
#840 = PLANE('',#841);
#841 = AXIS2_PLACEMENT_3D('',#842,#843,#844);
#842 = CARTESIAN_POINT('',(0.,0.,0.));
#843 = DIRECTION('',(1.,0.,0.));
#844 = DIRECTION('',(-0.,0.,1.));
#845 = ADVANCED_FACE('',(#846),#857,.F.);
#846 = FACE_BOUND('',#847,.F.);
#847 = EDGE_LOOP('',(#848,#849,#855,#856));
#848 = ORIENTED_EDGE('',*,*,#812,.F.);
#849 = ORIENTED_EDGE('',*,*,#850,.F.);
#850 = EDGE_CURVE('',#833,#813,#851,.T.);
#851 = LINE('',#852,#853);
#852 = CARTESIAN_POINT('',(-1.,6.368163355566E-16,2.6));
#853 = VECTOR('',#854,1.);
#854 = DIRECTION('',(1.,0.,0.));
#855 = ORIENTED_EDGE('',*,*,#832,.T.);
#856 = ORIENTED_EDGE('',*,*,#850,.T.);
#857 = CYLINDRICAL_SURFACE('',#858,2.6);
#858 = AXIS2_PLACEMENT_3D('',#859,#860,#861);
#859 = CARTESIAN_POINT('',(-1.,0.,0.));
#860 = DIRECTION('',(1.,0.,0.));
#861 = DIRECTION('',(-0.,0.,1.));
#862 = ( GEOMETRIC_REPRESENTATION_CONTEXT(3) 
GLOBAL_UNCERTAINTY_ASSIGNED_CONTEXT((#866)) GLOBAL_UNIT_ASSIGNED_CONTEXT
((#863,#864,#865)) REPRESENTATION_CONTEXT('Context #1',
  '3D Context with UNIT and UNCERTAINTY') );
#863 = ( LENGTH_UNIT() NAMED_UNIT(*) SI_UNIT(.MILLI.,.METRE.) );
#864 = ( NAMED_UNIT(*) PLANE_ANGLE_UNIT() SI_UNIT($,.RADIAN.) );
#865 = ( NAMED_UNIT(*) SI_UNIT($,.STERADIAN.) SOLID_ANGLE_UNIT() );
#866 = UNCERTAINTY_MEASURE_WITH_UNIT(LENGTH_MEASURE(1.E-07),#863,
  'distance_accuracy_value','confusion accuracy');
#867 = CONTEXT_DEPENDENT_SHAPE_REPRESENTATION(#868,#870);
#868 = ( REPRESENTATION_RELATIONSHIP('','',#769,#10) 
REPRESENTATION_RELATIONSHIP_WITH_TRANSFORMATION(#869) 
SHAPE_REPRESENTATION_RELATIONSHIP() );
#869 = ITEM_DEFINED_TRANSFORMATION('','',#11,#35);
#870 = PRODUCT_DEFINITION_SHAPE('Placement','Placement of an item',#871
  );
#871 = NEXT_ASSEMBLY_USAGE_OCCURRENCE('6',
  'reference_outer_thrust_washer','',#5,#764,$);
#872 = PRODUCT_RELATED_PRODUCT_CATEGORY('part',$,(#766));
#873 = SHAPE_DEFINITION_REPRESENTATION(#874,#880);
#874 = PRODUCT_DEFINITION_SHAPE('','',#875);
#875 = PRODUCT_DEFINITION('design','',#876,#879);
#876 = PRODUCT_DEFINITION_FORMATION('','',#877);
#877 = PRODUCT('reference_outer_axial_spacer',
  'reference_outer_axial_spacer','',(#878));
#878 = PRODUCT_CONTEXT('',#2,'mechanical');
#879 = PRODUCT_DEFINITION_CONTEXT('part definition',#2,'design');
#880 = ADVANCED_BREP_SHAPE_REPRESENTATION('',(#11,#881),#973);
#881 = MANIFOLD_SOLID_BREP('',#882);
#882 = CLOSED_SHELL('',(#883,#916,#936,#956));
#883 = ADVANCED_FACE('',(#884),#911,.T.);
#884 = FACE_BOUND('',#885,.T.);
#885 = EDGE_LOOP('',(#886,#895,#903,#910));
#886 = ORIENTED_EDGE('',*,*,#887,.F.);
#887 = EDGE_CURVE('',#888,#888,#890,.T.);
#888 = VERTEX_POINT('',#889);
#889 = CARTESIAN_POINT('',(1.3,1.102182119233E-15,4.5));
#890 = CIRCLE('',#891,4.5);
#891 = AXIS2_PLACEMENT_3D('',#892,#893,#894);
#892 = CARTESIAN_POINT('',(1.3,0.,0.));
#893 = DIRECTION('',(1.,0.,0.));
#894 = DIRECTION('',(-0.,0.,1.));
#895 = ORIENTED_EDGE('',*,*,#896,.F.);
#896 = EDGE_CURVE('',#897,#888,#899,.T.);
#897 = VERTEX_POINT('',#898);
#898 = CARTESIAN_POINT('',(0.,1.102182119233E-15,4.5));
#899 = LINE('',#900,#901);
#900 = CARTESIAN_POINT('',(0.,1.102182119233E-15,4.5));
#901 = VECTOR('',#902,1.);
#902 = DIRECTION('',(1.,0.,0.));
#903 = ORIENTED_EDGE('',*,*,#904,.T.);
#904 = EDGE_CURVE('',#897,#897,#905,.T.);
#905 = CIRCLE('',#906,4.5);
#906 = AXIS2_PLACEMENT_3D('',#907,#908,#909);
#907 = CARTESIAN_POINT('',(0.,0.,0.));
#908 = DIRECTION('',(1.,0.,0.));
#909 = DIRECTION('',(-0.,0.,1.));
#910 = ORIENTED_EDGE('',*,*,#896,.T.);
#911 = CYLINDRICAL_SURFACE('',#912,4.5);
#912 = AXIS2_PLACEMENT_3D('',#913,#914,#915);
#913 = CARTESIAN_POINT('',(0.,0.,0.));
#914 = DIRECTION('',(1.,0.,0.));
#915 = DIRECTION('',(-0.,0.,1.));
#916 = ADVANCED_FACE('',(#917,#920),#931,.T.);
#917 = FACE_BOUND('',#918,.T.);
#918 = EDGE_LOOP('',(#919));
#919 = ORIENTED_EDGE('',*,*,#887,.T.);
#920 = FACE_BOUND('',#921,.T.);
#921 = EDGE_LOOP('',(#922));
#922 = ORIENTED_EDGE('',*,*,#923,.F.);
#923 = EDGE_CURVE('',#924,#924,#926,.T.);
#924 = VERTEX_POINT('',#925);
#925 = CARTESIAN_POINT('',(1.3,6.368163355566E-16,2.6));
#926 = CIRCLE('',#927,2.6);
#927 = AXIS2_PLACEMENT_3D('',#928,#929,#930);
#928 = CARTESIAN_POINT('',(1.3,0.,0.));
#929 = DIRECTION('',(1.,0.,0.));
#930 = DIRECTION('',(-0.,0.,1.));
#931 = PLANE('',#932);
#932 = AXIS2_PLACEMENT_3D('',#933,#934,#935);
#933 = CARTESIAN_POINT('',(1.3,0.,0.));
#934 = DIRECTION('',(1.,0.,0.));
#935 = DIRECTION('',(-0.,0.,1.));
#936 = ADVANCED_FACE('',(#937,#940),#951,.F.);
#937 = FACE_BOUND('',#938,.F.);
#938 = EDGE_LOOP('',(#939));
#939 = ORIENTED_EDGE('',*,*,#904,.T.);
#940 = FACE_BOUND('',#941,.F.);
#941 = EDGE_LOOP('',(#942));
#942 = ORIENTED_EDGE('',*,*,#943,.F.);
#943 = EDGE_CURVE('',#944,#944,#946,.T.);
#944 = VERTEX_POINT('',#945);
#945 = CARTESIAN_POINT('',(0.,6.368163355566E-16,2.6));
#946 = CIRCLE('',#947,2.6);
#947 = AXIS2_PLACEMENT_3D('',#948,#949,#950);
#948 = CARTESIAN_POINT('',(0.,0.,0.));
#949 = DIRECTION('',(1.,0.,0.));
#950 = DIRECTION('',(-0.,0.,1.));
#951 = PLANE('',#952);
#952 = AXIS2_PLACEMENT_3D('',#953,#954,#955);
#953 = CARTESIAN_POINT('',(0.,0.,0.));
#954 = DIRECTION('',(1.,0.,0.));
#955 = DIRECTION('',(-0.,0.,1.));
#956 = ADVANCED_FACE('',(#957),#968,.F.);
#957 = FACE_BOUND('',#958,.F.);
#958 = EDGE_LOOP('',(#959,#960,#966,#967));
#959 = ORIENTED_EDGE('',*,*,#923,.F.);
#960 = ORIENTED_EDGE('',*,*,#961,.F.);
#961 = EDGE_CURVE('',#944,#924,#962,.T.);
#962 = LINE('',#963,#964);
#963 = CARTESIAN_POINT('',(-1.,6.368163355566E-16,2.6));
#964 = VECTOR('',#965,1.);
#965 = DIRECTION('',(1.,0.,0.));
#966 = ORIENTED_EDGE('',*,*,#943,.T.);
#967 = ORIENTED_EDGE('',*,*,#961,.T.);
#968 = CYLINDRICAL_SURFACE('',#969,2.6);
#969 = AXIS2_PLACEMENT_3D('',#970,#971,#972);
#970 = CARTESIAN_POINT('',(-1.,0.,0.));
#971 = DIRECTION('',(1.,0.,0.));
#972 = DIRECTION('',(-0.,0.,1.));
#973 = ( GEOMETRIC_REPRESENTATION_CONTEXT(3) 
GLOBAL_UNCERTAINTY_ASSIGNED_CONTEXT((#977)) GLOBAL_UNIT_ASSIGNED_CONTEXT
((#974,#975,#976)) REPRESENTATION_CONTEXT('Context #1',
  '3D Context with UNIT and UNCERTAINTY') );
#974 = ( LENGTH_UNIT() NAMED_UNIT(*) SI_UNIT(.MILLI.,.METRE.) );
#975 = ( NAMED_UNIT(*) PLANE_ANGLE_UNIT() SI_UNIT($,.RADIAN.) );
#976 = ( NAMED_UNIT(*) SI_UNIT($,.STERADIAN.) SOLID_ANGLE_UNIT() );
#977 = UNCERTAINTY_MEASURE_WITH_UNIT(LENGTH_MEASURE(1.E-07),#974,
  'distance_accuracy_value','confusion accuracy');
#978 = CONTEXT_DEPENDENT_SHAPE_REPRESENTATION(#979,#981);
#979 = ( REPRESENTATION_RELATIONSHIP('','',#880,#10) 
REPRESENTATION_RELATIONSHIP_WITH_TRANSFORMATION(#980) 
SHAPE_REPRESENTATION_RELATIONSHIP() );
#980 = ITEM_DEFINED_TRANSFORMATION('','',#11,#39);
#981 = PRODUCT_DEFINITION_SHAPE('Placement','Placement of an item',#982
  );
#982 = NEXT_ASSEMBLY_USAGE_OCCURRENCE('7','reference_outer_axial_spacer'
  ,'',#5,#875,$);
#983 = PRODUCT_RELATED_PRODUCT_CATEGORY('part',$,(#877));
#984 = SHAPE_DEFINITION_REPRESENTATION(#985,#991);
#985 = PRODUCT_DEFINITION_SHAPE('','',#986);
#986 = PRODUCT_DEFINITION('design','',#987,#990);
#987 = PRODUCT_DEFINITION_FORMATION('','',#988);
#988 = PRODUCT('reference_outer_cheek','reference_outer_cheek','',(#989)
  );
#989 = PRODUCT_CONTEXT('',#2,'mechanical');
#990 = PRODUCT_DEFINITION_CONTEXT('part definition',#2,'design');
#991 = ADVANCED_BREP_SHAPE_REPRESENTATION('',(#11,#992),#1358);
#992 = MANIFOLD_SOLID_BREP('',#993);
#993 = CLOSED_SHELL('',(#994,#1034,#1136,#1171,#1257,#1276,#1295,#1307,
    #1324,#1341));
#994 = ADVANCED_FACE('',(#995),#1029,.T.);
#995 = FACE_BOUND('',#996,.T.);
#996 = EDGE_LOOP('',(#997,#1007,#1015,#1023));
#997 = ORIENTED_EDGE('',*,*,#998,.F.);
#998 = EDGE_CURVE('',#999,#1001,#1003,.T.);
#999 = VERTEX_POINT('',#1000);
#1000 = CARTESIAN_POINT('',(0.,11.74389414758,20.978863135547));
#1001 = VERTEX_POINT('',#1002);
#1002 = CARTESIAN_POINT('',(0.,30.506343362955,40.618517768785));
#1003 = LINE('',#1004,#1005);
#1004 = CARTESIAN_POINT('',(0.,-4.33842208252,4.144646406378));
#1005 = VECTOR('',#1006,1.);
#1006 = DIRECTION('',(0.,0.690774401063,0.723070347087));
#1007 = ORIENTED_EDGE('',*,*,#1008,.T.);
#1008 = EDGE_CURVE('',#999,#1009,#1011,.T.);
#1009 = VERTEX_POINT('',#1010);
#1010 = CARTESIAN_POINT('',(5.,11.74389414758,20.978863135547));
#1011 = LINE('',#1012,#1013);
#1012 = CARTESIAN_POINT('',(0.,11.743894147579,20.978863135547));
#1013 = VECTOR('',#1014,1.);
#1014 = DIRECTION('',(1.,0.,0.));
#1015 = ORIENTED_EDGE('',*,*,#1016,.T.);
#1016 = EDGE_CURVE('',#1009,#1017,#1019,.T.);
#1017 = VERTEX_POINT('',#1018);
#1018 = CARTESIAN_POINT('',(5.,30.506343362955,40.618517768785));
#1019 = LINE('',#1020,#1021);
#1020 = CARTESIAN_POINT('',(5.,-4.33842208252,4.144646406378));
#1021 = VECTOR('',#1022,1.);
#1022 = DIRECTION('',(0.,0.690774401063,0.723070347087));
#1023 = ORIENTED_EDGE('',*,*,#1024,.F.);
#1024 = EDGE_CURVE('',#1001,#1017,#1025,.T.);
#1025 = LINE('',#1026,#1027);
#1026 = CARTESIAN_POINT('',(0.,30.506343362955,40.618517768785));
#1027 = VECTOR('',#1028,1.);
#1028 = DIRECTION('',(1.,0.,0.));
#1029 = PLANE('',#1030);
#1030 = AXIS2_PLACEMENT_3D('',#1031,#1032,#1033);
#1031 = CARTESIAN_POINT('',(0.,-4.33842208252,4.144646406378));
#1032 = DIRECTION('',(0.,-0.723070347087,0.690774401063));
#1033 = DIRECTION('',(0.,0.690774401063,0.723070347087));
#1034 = ADVANCED_FACE('',(#1035,#1098,#1109,#1120),#1131,.T.);
#1035 = FACE_BOUND('',#1036,.T.);
#1036 = EDGE_LOOP('',(#1037,#1048,#1057,#1066,#1073,#1074,#1083,#1092));
#1037 = ORIENTED_EDGE('',*,*,#1038,.F.);
#1038 = EDGE_CURVE('',#1039,#1041,#1043,.T.);
#1039 = VERTEX_POINT('',#1040);
#1040 = CARTESIAN_POINT('',(0.,3.429011037613E-15,14.));
#1041 = VERTEX_POINT('',#1042);
#1042 = CARTESIAN_POINT('',(0.,13.076103909311,5.001550414912));
#1043 = CIRCLE('',#1044,14.);
#1044 = AXIS2_PLACEMENT_3D('',#1045,#1046,#1047);
#1045 = CARTESIAN_POINT('',(0.,0.,0.));
#1046 = DIRECTION('',(1.,0.,0.));
#1047 = DIRECTION('',(-0.,0.,1.));
#1048 = ORIENTED_EDGE('',*,*,#1049,.F.);
#1049 = EDGE_CURVE('',#1050,#1039,#1052,.T.);
#1050 = VERTEX_POINT('',#1051);
#1051 = CARTESIAN_POINT('',(0.,1.523814931299,13.916823921253));
#1052 = CIRCLE('',#1053,14.);
#1053 = AXIS2_PLACEMENT_3D('',#1054,#1055,#1056);
#1054 = CARTESIAN_POINT('',(0.,0.,0.));
#1055 = DIRECTION('',(1.,0.,0.));
#1056 = DIRECTION('',(-0.,0.,1.));
#1057 = ORIENTED_EDGE('',*,*,#1058,.F.);
#1058 = EDGE_CURVE('',#1059,#1050,#1061,.T.);
#1059 = VERTEX_POINT('',#1060);
#1060 = CARTESIAN_POINT('',(0.,9.5,21.3));
#1061 = CIRCLE('',#1062,8.);
#1062 = AXIS2_PLACEMENT_3D('',#1063,#1064,#1065);
#1063 = CARTESIAN_POINT('',(0.,9.5,13.3));
#1064 = DIRECTION('',(1.,0.,0.));
#1065 = DIRECTION('',(-0.,0.,1.));
#1066 = ORIENTED_EDGE('',*,*,#1067,.F.);
#1067 = EDGE_CURVE('',#999,#1059,#1068,.T.);
#1068 = CIRCLE('',#1069,8.);
#1069 = AXIS2_PLACEMENT_3D('',#1070,#1071,#1072);
#1070 = CARTESIAN_POINT('',(0.,9.5,13.3));
#1071 = DIRECTION('',(1.,0.,0.));
#1072 = DIRECTION('',(-0.,0.,1.));
#1073 = ORIENTED_EDGE('',*,*,#998,.T.);
#1074 = ORIENTED_EDGE('',*,*,#1075,.F.);
#1075 = EDGE_CURVE('',#1076,#1001,#1078,.T.);
#1076 = VERTEX_POINT('',#1077);
#1077 = CARTESIAN_POINT('',(0.,38.5,48.3));
#1078 = CIRCLE('',#1079,8.);
#1079 = AXIS2_PLACEMENT_3D('',#1080,#1081,#1082);
#1080 = CARTESIAN_POINT('',(0.,38.5,40.3));
#1081 = DIRECTION('',(1.,0.,0.));
#1082 = DIRECTION('',(-0.,0.,1.));
#1083 = ORIENTED_EDGE('',*,*,#1084,.F.);
#1084 = EDGE_CURVE('',#1085,#1076,#1087,.T.);
#1085 = VERTEX_POINT('',#1086);
#1086 = CARTESIAN_POINT('',(0.,39.183187527996,32.329224956029));
#1087 = CIRCLE('',#1088,8.);
#1088 = AXIS2_PLACEMENT_3D('',#1089,#1090,#1091);
#1089 = CARTESIAN_POINT('',(0.,38.5,40.3));
#1090 = DIRECTION('',(1.,0.,0.));
#1091 = DIRECTION('',(-0.,0.,1.));
#1092 = ORIENTED_EDGE('',*,*,#1093,.T.);
#1093 = EDGE_CURVE('',#1085,#1041,#1094,.T.);
#1094 = LINE('',#1095,#1096);
#1095 = CARTESIAN_POINT('',(0.,42.83842208252,36.155353593622));
#1096 = VECTOR('',#1097,1.);
#1097 = DIRECTION('',(0.,-0.690774401063,-0.723070347087));
#1098 = FACE_BOUND('',#1099,.T.);
#1099 = EDGE_LOOP('',(#1100));
#1100 = ORIENTED_EDGE('',*,*,#1101,.T.);
#1101 = EDGE_CURVE('',#1102,#1102,#1104,.T.);
#1102 = VERTEX_POINT('',#1103);
#1103 = CARTESIAN_POINT('',(0.,38.5,42.45));
#1104 = CIRCLE('',#1105,2.15);
#1105 = AXIS2_PLACEMENT_3D('',#1106,#1107,#1108);
#1106 = CARTESIAN_POINT('',(0.,38.5,40.3));
#1107 = DIRECTION('',(1.,0.,0.));
#1108 = DIRECTION('',(-0.,0.,1.));
#1109 = FACE_BOUND('',#1110,.T.);
#1110 = EDGE_LOOP('',(#1111));
#1111 = ORIENTED_EDGE('',*,*,#1112,.T.);
#1112 = EDGE_CURVE('',#1113,#1113,#1115,.T.);
#1113 = VERTEX_POINT('',#1114);
#1114 = CARTESIAN_POINT('',(0.,9.5,15.45));
#1115 = CIRCLE('',#1116,2.15);
#1116 = AXIS2_PLACEMENT_3D('',#1117,#1118,#1119);
#1117 = CARTESIAN_POINT('',(0.,9.5,13.3));
#1118 = DIRECTION('',(1.,0.,0.));
#1119 = DIRECTION('',(-0.,0.,1.));
#1120 = FACE_BOUND('',#1121,.T.);
#1121 = EDGE_LOOP('',(#1122));
#1122 = ORIENTED_EDGE('',*,*,#1123,.T.);
#1123 = EDGE_CURVE('',#1124,#1124,#1126,.T.);
#1124 = VERTEX_POINT('',#1125);
#1125 = CARTESIAN_POINT('',(0.,6.245698675652E-16,2.55));
#1126 = CIRCLE('',#1127,2.55);
#1127 = AXIS2_PLACEMENT_3D('',#1128,#1129,#1130);
#1128 = CARTESIAN_POINT('',(0.,0.,0.));
#1129 = DIRECTION('',(1.,0.,0.));
#1130 = DIRECTION('',(-0.,0.,1.));
#1131 = PLANE('',#1132);
#1132 = AXIS2_PLACEMENT_3D('',#1133,#1134,#1135);
#1133 = CARTESIAN_POINT('',(0.,16.635961327371,17.918096544621));
#1134 = DIRECTION('',(-1.,-0.,-0.));
#1135 = DIRECTION('',(0.,0.,-1.));
#1136 = ADVANCED_FACE('',(#1137),#1166,.T.);
#1137 = FACE_BOUND('',#1138,.T.);
#1138 = EDGE_LOOP('',(#1139,#1140,#1141,#1150,#1159,#1165));
#1139 = ORIENTED_EDGE('',*,*,#1075,.T.);
#1140 = ORIENTED_EDGE('',*,*,#1024,.T.);
#1141 = ORIENTED_EDGE('',*,*,#1142,.F.);
#1142 = EDGE_CURVE('',#1143,#1017,#1145,.T.);
#1143 = VERTEX_POINT('',#1144);
#1144 = CARTESIAN_POINT('',(5.,38.5,48.3));
#1145 = CIRCLE('',#1146,8.);
#1146 = AXIS2_PLACEMENT_3D('',#1147,#1148,#1149);
#1147 = CARTESIAN_POINT('',(5.,38.5,40.3));
#1148 = DIRECTION('',(1.,0.,0.));
#1149 = DIRECTION('',(-0.,0.,1.));
#1150 = ORIENTED_EDGE('',*,*,#1151,.F.);
#1151 = EDGE_CURVE('',#1152,#1143,#1154,.T.);
#1152 = VERTEX_POINT('',#1153);
#1153 = CARTESIAN_POINT('',(5.,39.183187527996,32.329224956029));
#1154 = CIRCLE('',#1155,8.);
#1155 = AXIS2_PLACEMENT_3D('',#1156,#1157,#1158);
#1156 = CARTESIAN_POINT('',(5.,38.5,40.3));
#1157 = DIRECTION('',(1.,0.,0.));
#1158 = DIRECTION('',(-0.,0.,1.));
#1159 = ORIENTED_EDGE('',*,*,#1160,.F.);
#1160 = EDGE_CURVE('',#1085,#1152,#1161,.T.);
#1161 = LINE('',#1162,#1163);
#1162 = CARTESIAN_POINT('',(0.,39.183187527996,32.329224956029));
#1163 = VECTOR('',#1164,1.);
#1164 = DIRECTION('',(1.,0.,0.));
#1165 = ORIENTED_EDGE('',*,*,#1084,.T.);
#1166 = CYLINDRICAL_SURFACE('',#1167,8.);
#1167 = AXIS2_PLACEMENT_3D('',#1168,#1169,#1170);
#1168 = CARTESIAN_POINT('',(0.,38.5,40.3));
#1169 = DIRECTION('',(1.,0.,0.));
#1170 = DIRECTION('',(-0.,0.,1.));
#1171 = ADVANCED_FACE('',(#1172,#1219,#1230,#1241),#1252,.T.);
#1172 = FACE_BOUND('',#1173,.T.);
#1173 = EDGE_LOOP('',(#1174,#1185,#1191,#1192,#1193,#1194,#1203,#1212));
#1174 = ORIENTED_EDGE('',*,*,#1175,.T.);
#1175 = EDGE_CURVE('',#1176,#1178,#1180,.T.);
#1176 = VERTEX_POINT('',#1177);
#1177 = CARTESIAN_POINT('',(5.,3.429011037613E-15,14.));
#1178 = VERTEX_POINT('',#1179);
#1179 = CARTESIAN_POINT('',(5.,13.076103909311,5.001550414912));
#1180 = CIRCLE('',#1181,14.);
#1181 = AXIS2_PLACEMENT_3D('',#1182,#1183,#1184);
#1182 = CARTESIAN_POINT('',(5.,0.,0.));
#1183 = DIRECTION('',(1.,0.,0.));
#1184 = DIRECTION('',(-0.,0.,1.));
#1185 = ORIENTED_EDGE('',*,*,#1186,.F.);
#1186 = EDGE_CURVE('',#1152,#1178,#1187,.T.);
#1187 = LINE('',#1188,#1189);
#1188 = CARTESIAN_POINT('',(5.,42.83842208252,36.155353593622));
#1189 = VECTOR('',#1190,1.);
#1190 = DIRECTION('',(0.,-0.690774401063,-0.723070347087));
#1191 = ORIENTED_EDGE('',*,*,#1151,.T.);
#1192 = ORIENTED_EDGE('',*,*,#1142,.T.);
#1193 = ORIENTED_EDGE('',*,*,#1016,.F.);
#1194 = ORIENTED_EDGE('',*,*,#1195,.T.);
#1195 = EDGE_CURVE('',#1009,#1196,#1198,.T.);
#1196 = VERTEX_POINT('',#1197);
#1197 = CARTESIAN_POINT('',(5.,9.5,21.3));
#1198 = CIRCLE('',#1199,8.);
#1199 = AXIS2_PLACEMENT_3D('',#1200,#1201,#1202);
#1200 = CARTESIAN_POINT('',(5.,9.5,13.3));
#1201 = DIRECTION('',(1.,0.,0.));
#1202 = DIRECTION('',(-0.,0.,1.));
#1203 = ORIENTED_EDGE('',*,*,#1204,.T.);
#1204 = EDGE_CURVE('',#1196,#1205,#1207,.T.);
#1205 = VERTEX_POINT('',#1206);
#1206 = CARTESIAN_POINT('',(5.,1.523814931299,13.916823921253));
#1207 = CIRCLE('',#1208,8.);
#1208 = AXIS2_PLACEMENT_3D('',#1209,#1210,#1211);
#1209 = CARTESIAN_POINT('',(5.,9.5,13.3));
#1210 = DIRECTION('',(1.,0.,0.));
#1211 = DIRECTION('',(-0.,0.,1.));
#1212 = ORIENTED_EDGE('',*,*,#1213,.T.);
#1213 = EDGE_CURVE('',#1205,#1176,#1214,.T.);
#1214 = CIRCLE('',#1215,14.);
#1215 = AXIS2_PLACEMENT_3D('',#1216,#1217,#1218);
#1216 = CARTESIAN_POINT('',(5.,0.,0.));
#1217 = DIRECTION('',(1.,0.,0.));
#1218 = DIRECTION('',(-0.,0.,1.));
#1219 = FACE_BOUND('',#1220,.T.);
#1220 = EDGE_LOOP('',(#1221));
#1221 = ORIENTED_EDGE('',*,*,#1222,.F.);
#1222 = EDGE_CURVE('',#1223,#1223,#1225,.T.);
#1223 = VERTEX_POINT('',#1224);
#1224 = CARTESIAN_POINT('',(5.,38.5,42.45));
#1225 = CIRCLE('',#1226,2.15);
#1226 = AXIS2_PLACEMENT_3D('',#1227,#1228,#1229);
#1227 = CARTESIAN_POINT('',(5.,38.5,40.3));
#1228 = DIRECTION('',(1.,0.,0.));
#1229 = DIRECTION('',(-0.,0.,1.));
#1230 = FACE_BOUND('',#1231,.T.);
#1231 = EDGE_LOOP('',(#1232));
#1232 = ORIENTED_EDGE('',*,*,#1233,.F.);
#1233 = EDGE_CURVE('',#1234,#1234,#1236,.T.);
#1234 = VERTEX_POINT('',#1235);
#1235 = CARTESIAN_POINT('',(5.,9.5,15.45));
#1236 = CIRCLE('',#1237,2.15);
#1237 = AXIS2_PLACEMENT_3D('',#1238,#1239,#1240);
#1238 = CARTESIAN_POINT('',(5.,9.5,13.3));
#1239 = DIRECTION('',(1.,0.,0.));
#1240 = DIRECTION('',(-0.,0.,1.));
#1241 = FACE_BOUND('',#1242,.T.);
#1242 = EDGE_LOOP('',(#1243));
#1243 = ORIENTED_EDGE('',*,*,#1244,.F.);
#1244 = EDGE_CURVE('',#1245,#1245,#1247,.T.);
#1245 = VERTEX_POINT('',#1246);
#1246 = CARTESIAN_POINT('',(5.,6.245698675652E-16,2.55));
#1247 = CIRCLE('',#1248,2.55);
#1248 = AXIS2_PLACEMENT_3D('',#1249,#1250,#1251);
#1249 = CARTESIAN_POINT('',(5.,0.,0.));
#1250 = DIRECTION('',(1.,0.,0.));
#1251 = DIRECTION('',(-0.,0.,1.));
#1252 = PLANE('',#1253);
#1253 = AXIS2_PLACEMENT_3D('',#1254,#1255,#1256);
#1254 = CARTESIAN_POINT('',(5.,16.635961327371,17.918096544621));
#1255 = DIRECTION('',(1.,0.,0.));
#1256 = DIRECTION('',(-0.,0.,1.));
#1257 = ADVANCED_FACE('',(#1258),#1271,.T.);
#1258 = FACE_BOUND('',#1259,.T.);
#1259 = EDGE_LOOP('',(#1260,#1261,#1262,#1263,#1264,#1270));
#1260 = ORIENTED_EDGE('',*,*,#1195,.F.);
#1261 = ORIENTED_EDGE('',*,*,#1008,.F.);
#1262 = ORIENTED_EDGE('',*,*,#1067,.T.);
#1263 = ORIENTED_EDGE('',*,*,#1058,.T.);
#1264 = ORIENTED_EDGE('',*,*,#1265,.T.);
#1265 = EDGE_CURVE('',#1050,#1205,#1266,.T.);
#1266 = LINE('',#1267,#1268);
#1267 = CARTESIAN_POINT('',(0.,1.523814931299,13.916823921253));
#1268 = VECTOR('',#1269,1.);
#1269 = DIRECTION('',(1.,0.,0.));
#1270 = ORIENTED_EDGE('',*,*,#1204,.F.);
#1271 = CYLINDRICAL_SURFACE('',#1272,8.);
#1272 = AXIS2_PLACEMENT_3D('',#1273,#1274,#1275);
#1273 = CARTESIAN_POINT('',(0.,9.5,13.3));
#1274 = DIRECTION('',(1.,0.,0.));
#1275 = DIRECTION('',(-0.,0.,1.));
#1276 = ADVANCED_FACE('',(#1277),#1290,.T.);
#1277 = FACE_BOUND('',#1278,.T.);
#1278 = EDGE_LOOP('',(#1279,#1280,#1286,#1287,#1288,#1289));
#1279 = ORIENTED_EDGE('',*,*,#1038,.T.);
#1280 = ORIENTED_EDGE('',*,*,#1281,.T.);
#1281 = EDGE_CURVE('',#1041,#1178,#1282,.T.);
#1282 = LINE('',#1283,#1284);
#1283 = CARTESIAN_POINT('',(0.,13.076103909311,5.001550414912));
#1284 = VECTOR('',#1285,1.);
#1285 = DIRECTION('',(1.,0.,0.));
#1286 = ORIENTED_EDGE('',*,*,#1175,.F.);
#1287 = ORIENTED_EDGE('',*,*,#1213,.F.);
#1288 = ORIENTED_EDGE('',*,*,#1265,.F.);
#1289 = ORIENTED_EDGE('',*,*,#1049,.T.);
#1290 = CYLINDRICAL_SURFACE('',#1291,14.);
#1291 = AXIS2_PLACEMENT_3D('',#1292,#1293,#1294);
#1292 = CARTESIAN_POINT('',(0.,0.,0.));
#1293 = DIRECTION('',(1.,0.,0.));
#1294 = DIRECTION('',(-0.,0.,1.));
#1295 = ADVANCED_FACE('',(#1296),#1302,.T.);
#1296 = FACE_BOUND('',#1297,.T.);
#1297 = EDGE_LOOP('',(#1298,#1299,#1300,#1301));
#1298 = ORIENTED_EDGE('',*,*,#1093,.F.);
#1299 = ORIENTED_EDGE('',*,*,#1160,.T.);
#1300 = ORIENTED_EDGE('',*,*,#1186,.T.);
#1301 = ORIENTED_EDGE('',*,*,#1281,.F.);
#1302 = PLANE('',#1303);
#1303 = AXIS2_PLACEMENT_3D('',#1304,#1305,#1306);
#1304 = CARTESIAN_POINT('',(0.,42.83842208252,36.155353593622));
#1305 = DIRECTION('',(0.,0.723070347087,-0.690774401063));
#1306 = DIRECTION('',(0.,-0.690774401063,-0.723070347087));
#1307 = ADVANCED_FACE('',(#1308),#1319,.F.);
#1308 = FACE_BOUND('',#1309,.F.);
#1309 = EDGE_LOOP('',(#1310,#1311,#1317,#1318));
#1310 = ORIENTED_EDGE('',*,*,#1222,.F.);
#1311 = ORIENTED_EDGE('',*,*,#1312,.F.);
#1312 = EDGE_CURVE('',#1102,#1223,#1313,.T.);
#1313 = LINE('',#1314,#1315);
#1314 = CARTESIAN_POINT('',(-1.,38.5,42.45));
#1315 = VECTOR('',#1316,1.);
#1316 = DIRECTION('',(1.,0.,0.));
#1317 = ORIENTED_EDGE('',*,*,#1101,.T.);
#1318 = ORIENTED_EDGE('',*,*,#1312,.T.);
#1319 = CYLINDRICAL_SURFACE('',#1320,2.15);
#1320 = AXIS2_PLACEMENT_3D('',#1321,#1322,#1323);
#1321 = CARTESIAN_POINT('',(-1.,38.5,40.3));
#1322 = DIRECTION('',(1.,0.,0.));
#1323 = DIRECTION('',(-0.,0.,1.));
#1324 = ADVANCED_FACE('',(#1325),#1336,.F.);
#1325 = FACE_BOUND('',#1326,.F.);
#1326 = EDGE_LOOP('',(#1327,#1328,#1334,#1335));
#1327 = ORIENTED_EDGE('',*,*,#1233,.F.);
#1328 = ORIENTED_EDGE('',*,*,#1329,.F.);
#1329 = EDGE_CURVE('',#1113,#1234,#1330,.T.);
#1330 = LINE('',#1331,#1332);
#1331 = CARTESIAN_POINT('',(-1.,9.5,15.45));
#1332 = VECTOR('',#1333,1.);
#1333 = DIRECTION('',(1.,0.,0.));
#1334 = ORIENTED_EDGE('',*,*,#1112,.T.);
#1335 = ORIENTED_EDGE('',*,*,#1329,.T.);
#1336 = CYLINDRICAL_SURFACE('',#1337,2.15);
#1337 = AXIS2_PLACEMENT_3D('',#1338,#1339,#1340);
#1338 = CARTESIAN_POINT('',(-1.,9.5,13.3));
#1339 = DIRECTION('',(1.,0.,0.));
#1340 = DIRECTION('',(-0.,0.,1.));
#1341 = ADVANCED_FACE('',(#1342),#1353,.F.);
#1342 = FACE_BOUND('',#1343,.F.);
#1343 = EDGE_LOOP('',(#1344,#1345,#1351,#1352));
#1344 = ORIENTED_EDGE('',*,*,#1244,.F.);
#1345 = ORIENTED_EDGE('',*,*,#1346,.F.);
#1346 = EDGE_CURVE('',#1124,#1245,#1347,.T.);
#1347 = LINE('',#1348,#1349);
#1348 = CARTESIAN_POINT('',(-1.,6.245698675652E-16,2.55));
#1349 = VECTOR('',#1350,1.);
#1350 = DIRECTION('',(1.,0.,0.));
#1351 = ORIENTED_EDGE('',*,*,#1123,.T.);
#1352 = ORIENTED_EDGE('',*,*,#1346,.T.);
#1353 = CYLINDRICAL_SURFACE('',#1354,2.55);
#1354 = AXIS2_PLACEMENT_3D('',#1355,#1356,#1357);
#1355 = CARTESIAN_POINT('',(-1.,0.,0.));
#1356 = DIRECTION('',(1.,0.,0.));
#1357 = DIRECTION('',(-0.,0.,1.));
#1358 = ( GEOMETRIC_REPRESENTATION_CONTEXT(3) 
GLOBAL_UNCERTAINTY_ASSIGNED_CONTEXT((#1362)) 
GLOBAL_UNIT_ASSIGNED_CONTEXT((#1359,#1360,#1361)) REPRESENTATION_CONTEXT
('Context #1','3D Context with UNIT and UNCERTAINTY') );
#1359 = ( LENGTH_UNIT() NAMED_UNIT(*) SI_UNIT(.MILLI.,.METRE.) );
#1360 = ( NAMED_UNIT(*) PLANE_ANGLE_UNIT() SI_UNIT($,.RADIAN.) );
#1361 = ( NAMED_UNIT(*) SI_UNIT($,.STERADIAN.) SOLID_ANGLE_UNIT() );
#1362 = UNCERTAINTY_MEASURE_WITH_UNIT(LENGTH_MEASURE(1.E-07),#1359,
  'distance_accuracy_value','confusion accuracy');
#1363 = CONTEXT_DEPENDENT_SHAPE_REPRESENTATION(#1364,#1366);
#1364 = ( REPRESENTATION_RELATIONSHIP('','',#991,#10) 
REPRESENTATION_RELATIONSHIP_WITH_TRANSFORMATION(#1365) 
SHAPE_REPRESENTATION_RELATIONSHIP() );
#1365 = ITEM_DEFINED_TRANSFORMATION('','',#11,#43);
#1366 = PRODUCT_DEFINITION_SHAPE('Placement','Placement of an item',
  #1367);
#1367 = NEXT_ASSEMBLY_USAGE_OCCURRENCE('8','reference_outer_cheek','',#5
  ,#986,$);
#1368 = PRODUCT_RELATED_PRODUCT_CATEGORY('part',$,(#988));
#1369 = SHAPE_DEFINITION_REPRESENTATION(#1370,#1376);
#1370 = PRODUCT_DEFINITION_SHAPE('','',#1371);
#1371 = PRODUCT_DEFINITION('design','',#1372,#1375);
#1372 = PRODUCT_DEFINITION_FORMATION('','',#1373);
#1373 = PRODUCT('reference_shoulder_axle','reference_shoulder_axle','',(
    #1374));
#1374 = PRODUCT_CONTEXT('',#2,'mechanical');
#1375 = PRODUCT_DEFINITION_CONTEXT('part definition',#2,'design');
#1376 = ADVANCED_BREP_SHAPE_REPRESENTATION('',(#11,#1377),#1520);
#1377 = MANIFOLD_SOLID_BREP('',#1378);
#1378 = CLOSED_SHELL('',(#1379,#1412,#1432,#1441,#1466,#1486,#1511));
#1379 = ADVANCED_FACE('',(#1380),#1407,.T.);
#1380 = FACE_BOUND('',#1381,.T.);
#1381 = EDGE_LOOP('',(#1382,#1391,#1399,#1406));
#1382 = ORIENTED_EDGE('',*,*,#1383,.F.);
#1383 = EDGE_CURVE('',#1384,#1384,#1386,.T.);
#1384 = VERTEX_POINT('',#1385);
#1385 = CARTESIAN_POINT('',(0.,1.102182119233E-15,4.5));
#1386 = CIRCLE('',#1387,4.5);
#1387 = AXIS2_PLACEMENT_3D('',#1388,#1389,#1390);
#1388 = CARTESIAN_POINT('',(0.,0.,0.));
#1389 = DIRECTION('',(1.,0.,0.));
#1390 = DIRECTION('',(-0.,0.,1.));
#1391 = ORIENTED_EDGE('',*,*,#1392,.F.);
#1392 = EDGE_CURVE('',#1393,#1384,#1395,.T.);
#1393 = VERTEX_POINT('',#1394);
#1394 = CARTESIAN_POINT('',(-3.,1.102182119233E-15,4.5));
#1395 = LINE('',#1396,#1397);
#1396 = CARTESIAN_POINT('',(-3.,1.102182119233E-15,4.5));
#1397 = VECTOR('',#1398,1.);
#1398 = DIRECTION('',(1.,0.,0.));
#1399 = ORIENTED_EDGE('',*,*,#1400,.T.);
#1400 = EDGE_CURVE('',#1393,#1393,#1401,.T.);
#1401 = CIRCLE('',#1402,4.5);
#1402 = AXIS2_PLACEMENT_3D('',#1403,#1404,#1405);
#1403 = CARTESIAN_POINT('',(-3.,0.,0.));
#1404 = DIRECTION('',(1.,0.,0.));
#1405 = DIRECTION('',(-0.,0.,1.));
#1406 = ORIENTED_EDGE('',*,*,#1392,.T.);
#1407 = CYLINDRICAL_SURFACE('',#1408,4.5);
#1408 = AXIS2_PLACEMENT_3D('',#1409,#1410,#1411);
#1409 = CARTESIAN_POINT('',(-3.,0.,0.));
#1410 = DIRECTION('',(1.,0.,0.));
#1411 = DIRECTION('',(-0.,0.,1.));
#1412 = ADVANCED_FACE('',(#1413,#1416),#1427,.T.);
#1413 = FACE_BOUND('',#1414,.T.);
#1414 = EDGE_LOOP('',(#1415));
#1415 = ORIENTED_EDGE('',*,*,#1383,.T.);
#1416 = FACE_BOUND('',#1417,.T.);
#1417 = EDGE_LOOP('',(#1418));
#1418 = ORIENTED_EDGE('',*,*,#1419,.F.);
#1419 = EDGE_CURVE('',#1420,#1420,#1422,.T.);
#1420 = VERTEX_POINT('',#1421);
#1421 = CARTESIAN_POINT('',(0.,6.123233995737E-16,2.5));
#1422 = CIRCLE('',#1423,2.5);
#1423 = AXIS2_PLACEMENT_3D('',#1424,#1425,#1426);
#1424 = CARTESIAN_POINT('',(0.,0.,0.));
#1425 = DIRECTION('',(1.,0.,0.));
#1426 = DIRECTION('',(-0.,0.,1.));
#1427 = PLANE('',#1428);
#1428 = AXIS2_PLACEMENT_3D('',#1429,#1430,#1431);
#1429 = CARTESIAN_POINT('',(0.,0.,0.));
#1430 = DIRECTION('',(1.,0.,0.));
#1431 = DIRECTION('',(-0.,0.,1.));
#1432 = ADVANCED_FACE('',(#1433),#1436,.F.);
#1433 = FACE_BOUND('',#1434,.T.);
#1434 = EDGE_LOOP('',(#1435));
#1435 = ORIENTED_EDGE('',*,*,#1400,.F.);
#1436 = PLANE('',#1437);
#1437 = AXIS2_PLACEMENT_3D('',#1438,#1439,#1440);
#1438 = CARTESIAN_POINT('',(-3.,0.,0.));
#1439 = DIRECTION('',(1.,0.,0.));
#1440 = DIRECTION('',(-0.,0.,1.));
#1441 = ADVANCED_FACE('',(#1442),#1461,.T.);
#1442 = FACE_BOUND('',#1443,.T.);
#1443 = EDGE_LOOP('',(#1444,#1453,#1459,#1460));
#1444 = ORIENTED_EDGE('',*,*,#1445,.F.);
#1445 = EDGE_CURVE('',#1446,#1446,#1448,.T.);
#1446 = VERTEX_POINT('',#1447);
#1447 = CARTESIAN_POINT('',(25.,6.123233995737E-16,2.5));
#1448 = CIRCLE('',#1449,2.5);
#1449 = AXIS2_PLACEMENT_3D('',#1450,#1451,#1452);
#1450 = CARTESIAN_POINT('',(25.,0.,0.));
#1451 = DIRECTION('',(1.,0.,0.));
#1452 = DIRECTION('',(-0.,0.,1.));
#1453 = ORIENTED_EDGE('',*,*,#1454,.F.);
#1454 = EDGE_CURVE('',#1420,#1446,#1455,.T.);
#1455 = LINE('',#1456,#1457);
#1456 = CARTESIAN_POINT('',(0.,6.123233995737E-16,2.5));
#1457 = VECTOR('',#1458,1.);
#1458 = DIRECTION('',(1.,0.,0.));
#1459 = ORIENTED_EDGE('',*,*,#1419,.T.);
#1460 = ORIENTED_EDGE('',*,*,#1454,.T.);
#1461 = CYLINDRICAL_SURFACE('',#1462,2.5);
#1462 = AXIS2_PLACEMENT_3D('',#1463,#1464,#1465);
#1463 = CARTESIAN_POINT('',(0.,0.,0.));
#1464 = DIRECTION('',(1.,0.,0.));
#1465 = DIRECTION('',(-0.,0.,1.));
#1466 = ADVANCED_FACE('',(#1467,#1470),#1481,.T.);
#1467 = FACE_BOUND('',#1468,.T.);
#1468 = EDGE_LOOP('',(#1469));
#1469 = ORIENTED_EDGE('',*,*,#1445,.T.);
#1470 = FACE_BOUND('',#1471,.T.);
#1471 = EDGE_LOOP('',(#1472));
#1472 = ORIENTED_EDGE('',*,*,#1473,.F.);
#1473 = EDGE_CURVE('',#1474,#1474,#1476,.T.);
#1474 = VERTEX_POINT('',#1475);
#1475 = CARTESIAN_POINT('',(25.,4.898587196589E-16,2.));
#1476 = CIRCLE('',#1477,2.);
#1477 = AXIS2_PLACEMENT_3D('',#1478,#1479,#1480);
#1478 = CARTESIAN_POINT('',(25.,0.,0.));
#1479 = DIRECTION('',(1.,0.,0.));
#1480 = DIRECTION('',(-0.,0.,1.));
#1481 = PLANE('',#1482);
#1482 = AXIS2_PLACEMENT_3D('',#1483,#1484,#1485);
#1483 = CARTESIAN_POINT('',(25.,0.,0.));
#1484 = DIRECTION('',(1.,0.,0.));
#1485 = DIRECTION('',(-0.,0.,1.));
#1486 = ADVANCED_FACE('',(#1487),#1506,.T.);
#1487 = FACE_BOUND('',#1488,.T.);
#1488 = EDGE_LOOP('',(#1489,#1498,#1504,#1505));
#1489 = ORIENTED_EDGE('',*,*,#1490,.F.);
#1490 = EDGE_CURVE('',#1491,#1491,#1493,.T.);
#1491 = VERTEX_POINT('',#1492);
#1492 = CARTESIAN_POINT('',(33.,4.898587196589E-16,2.));
#1493 = CIRCLE('',#1494,2.);
#1494 = AXIS2_PLACEMENT_3D('',#1495,#1496,#1497);
#1495 = CARTESIAN_POINT('',(33.,0.,0.));
#1496 = DIRECTION('',(1.,0.,0.));
#1497 = DIRECTION('',(-0.,0.,1.));
#1498 = ORIENTED_EDGE('',*,*,#1499,.F.);
#1499 = EDGE_CURVE('',#1474,#1491,#1500,.T.);
#1500 = LINE('',#1501,#1502);
#1501 = CARTESIAN_POINT('',(25.,4.898587196589E-16,2.));
#1502 = VECTOR('',#1503,1.);
#1503 = DIRECTION('',(1.,0.,0.));
#1504 = ORIENTED_EDGE('',*,*,#1473,.T.);
#1505 = ORIENTED_EDGE('',*,*,#1499,.T.);
#1506 = CYLINDRICAL_SURFACE('',#1507,2.);
#1507 = AXIS2_PLACEMENT_3D('',#1508,#1509,#1510);
#1508 = CARTESIAN_POINT('',(25.,0.,0.));
#1509 = DIRECTION('',(1.,0.,0.));
#1510 = DIRECTION('',(-0.,0.,1.));
#1511 = ADVANCED_FACE('',(#1512),#1515,.T.);
#1512 = FACE_BOUND('',#1513,.T.);
#1513 = EDGE_LOOP('',(#1514));
#1514 = ORIENTED_EDGE('',*,*,#1490,.T.);
#1515 = PLANE('',#1516);
#1516 = AXIS2_PLACEMENT_3D('',#1517,#1518,#1519);
#1517 = CARTESIAN_POINT('',(33.,0.,0.));
#1518 = DIRECTION('',(1.,0.,0.));
#1519 = DIRECTION('',(-0.,0.,1.));
#1520 = ( GEOMETRIC_REPRESENTATION_CONTEXT(3) 
GLOBAL_UNCERTAINTY_ASSIGNED_CONTEXT((#1524)) 
GLOBAL_UNIT_ASSIGNED_CONTEXT((#1521,#1522,#1523)) REPRESENTATION_CONTEXT
('Context #1','3D Context with UNIT and UNCERTAINTY') );
#1521 = ( LENGTH_UNIT() NAMED_UNIT(*) SI_UNIT(.MILLI.,.METRE.) );
#1522 = ( NAMED_UNIT(*) PLANE_ANGLE_UNIT() SI_UNIT($,.RADIAN.) );
#1523 = ( NAMED_UNIT(*) SI_UNIT($,.STERADIAN.) SOLID_ANGLE_UNIT() );
#1524 = UNCERTAINTY_MEASURE_WITH_UNIT(LENGTH_MEASURE(1.E-07),#1521,
  'distance_accuracy_value','confusion accuracy');
#1525 = CONTEXT_DEPENDENT_SHAPE_REPRESENTATION(#1526,#1528);
#1526 = ( REPRESENTATION_RELATIONSHIP('','',#1376,#10) 
REPRESENTATION_RELATIONSHIP_WITH_TRANSFORMATION(#1527) 
SHAPE_REPRESENTATION_RELATIONSHIP() );
#1527 = ITEM_DEFINED_TRANSFORMATION('','',#11,#47);
#1528 = PRODUCT_DEFINITION_SHAPE('Placement','Placement of an item',
  #1529);
#1529 = NEXT_ASSEMBLY_USAGE_OCCURRENCE('9','reference_shoulder_axle','',
  #5,#1371,$);
#1530 = PRODUCT_RELATED_PRODUCT_CATEGORY('part',$,(#1373));
#1531 = SHAPE_DEFINITION_REPRESENTATION(#1532,#1538);
#1532 = PRODUCT_DEFINITION_SHAPE('','',#1533);
#1533 = PRODUCT_DEFINITION('design','',#1534,#1537);
#1534 = PRODUCT_DEFINITION_FORMATION('','',#1535);
#1535 = PRODUCT('reference_standoff_1','reference_standoff_1','',(#1536)
  );
#1536 = PRODUCT_CONTEXT('',#2,'mechanical');
#1537 = PRODUCT_DEFINITION_CONTEXT('part definition',#2,'design');
#1538 = ADVANCED_BREP_SHAPE_REPRESENTATION('',(#11,#1539),#1631);
#1539 = MANIFOLD_SOLID_BREP('',#1540);
#1540 = CLOSED_SHELL('',(#1541,#1574,#1594,#1614));
#1541 = ADVANCED_FACE('',(#1542),#1569,.T.);
#1542 = FACE_BOUND('',#1543,.T.);
#1543 = EDGE_LOOP('',(#1544,#1553,#1561,#1568));
#1544 = ORIENTED_EDGE('',*,*,#1545,.F.);
#1545 = EDGE_CURVE('',#1546,#1546,#1548,.T.);
#1546 = VERTEX_POINT('',#1547);
#1547 = CARTESIAN_POINT('',(12.,9.797174393179E-16,4.));
#1548 = CIRCLE('',#1549,4.);
#1549 = AXIS2_PLACEMENT_3D('',#1550,#1551,#1552);
#1550 = CARTESIAN_POINT('',(12.,0.,0.));
#1551 = DIRECTION('',(1.,0.,0.));
#1552 = DIRECTION('',(-0.,0.,1.));
#1553 = ORIENTED_EDGE('',*,*,#1554,.F.);
#1554 = EDGE_CURVE('',#1555,#1546,#1557,.T.);
#1555 = VERTEX_POINT('',#1556);
#1556 = CARTESIAN_POINT('',(0.,9.797174393179E-16,4.));
#1557 = LINE('',#1558,#1559);
#1558 = CARTESIAN_POINT('',(0.,9.797174393179E-16,4.));
#1559 = VECTOR('',#1560,1.);
#1560 = DIRECTION('',(1.,0.,0.));
#1561 = ORIENTED_EDGE('',*,*,#1562,.T.);
#1562 = EDGE_CURVE('',#1555,#1555,#1563,.T.);
#1563 = CIRCLE('',#1564,4.);
#1564 = AXIS2_PLACEMENT_3D('',#1565,#1566,#1567);
#1565 = CARTESIAN_POINT('',(0.,0.,0.));
#1566 = DIRECTION('',(1.,0.,0.));
#1567 = DIRECTION('',(-0.,0.,1.));
#1568 = ORIENTED_EDGE('',*,*,#1554,.T.);
#1569 = CYLINDRICAL_SURFACE('',#1570,4.);
#1570 = AXIS2_PLACEMENT_3D('',#1571,#1572,#1573);
#1571 = CARTESIAN_POINT('',(0.,0.,0.));
#1572 = DIRECTION('',(1.,0.,0.));
#1573 = DIRECTION('',(-0.,0.,1.));
#1574 = ADVANCED_FACE('',(#1575,#1578),#1589,.T.);
#1575 = FACE_BOUND('',#1576,.T.);
#1576 = EDGE_LOOP('',(#1577));
#1577 = ORIENTED_EDGE('',*,*,#1545,.T.);
#1578 = FACE_BOUND('',#1579,.T.);
#1579 = EDGE_LOOP('',(#1580));
#1580 = ORIENTED_EDGE('',*,*,#1581,.F.);
#1581 = EDGE_CURVE('',#1582,#1582,#1584,.T.);
#1582 = VERTEX_POINT('',#1583);
#1583 = CARTESIAN_POINT('',(12.,5.265981236334E-16,2.15));
#1584 = CIRCLE('',#1585,2.15);
#1585 = AXIS2_PLACEMENT_3D('',#1586,#1587,#1588);
#1586 = CARTESIAN_POINT('',(12.,0.,0.));
#1587 = DIRECTION('',(1.,0.,0.));
#1588 = DIRECTION('',(-0.,0.,1.));
#1589 = PLANE('',#1590);
#1590 = AXIS2_PLACEMENT_3D('',#1591,#1592,#1593);
#1591 = CARTESIAN_POINT('',(12.,0.,0.));
#1592 = DIRECTION('',(1.,0.,0.));
#1593 = DIRECTION('',(-0.,0.,1.));
#1594 = ADVANCED_FACE('',(#1595,#1598),#1609,.F.);
#1595 = FACE_BOUND('',#1596,.F.);
#1596 = EDGE_LOOP('',(#1597));
#1597 = ORIENTED_EDGE('',*,*,#1562,.T.);
#1598 = FACE_BOUND('',#1599,.F.);
#1599 = EDGE_LOOP('',(#1600));
#1600 = ORIENTED_EDGE('',*,*,#1601,.F.);
#1601 = EDGE_CURVE('',#1602,#1602,#1604,.T.);
#1602 = VERTEX_POINT('',#1603);
#1603 = CARTESIAN_POINT('',(0.,5.265981236334E-16,2.15));
#1604 = CIRCLE('',#1605,2.15);
#1605 = AXIS2_PLACEMENT_3D('',#1606,#1607,#1608);
#1606 = CARTESIAN_POINT('',(0.,0.,0.));
#1607 = DIRECTION('',(1.,0.,0.));
#1608 = DIRECTION('',(-0.,0.,1.));
#1609 = PLANE('',#1610);
#1610 = AXIS2_PLACEMENT_3D('',#1611,#1612,#1613);
#1611 = CARTESIAN_POINT('',(0.,0.,0.));
#1612 = DIRECTION('',(1.,0.,0.));
#1613 = DIRECTION('',(-0.,0.,1.));
#1614 = ADVANCED_FACE('',(#1615),#1626,.F.);
#1615 = FACE_BOUND('',#1616,.F.);
#1616 = EDGE_LOOP('',(#1617,#1618,#1624,#1625));
#1617 = ORIENTED_EDGE('',*,*,#1581,.F.);
#1618 = ORIENTED_EDGE('',*,*,#1619,.F.);
#1619 = EDGE_CURVE('',#1602,#1582,#1620,.T.);
#1620 = LINE('',#1621,#1622);
#1621 = CARTESIAN_POINT('',(-1.,5.265981236334E-16,2.15));
#1622 = VECTOR('',#1623,1.);
#1623 = DIRECTION('',(1.,0.,0.));
#1624 = ORIENTED_EDGE('',*,*,#1601,.T.);
#1625 = ORIENTED_EDGE('',*,*,#1619,.T.);
#1626 = CYLINDRICAL_SURFACE('',#1627,2.15);
#1627 = AXIS2_PLACEMENT_3D('',#1628,#1629,#1630);
#1628 = CARTESIAN_POINT('',(-1.,0.,0.));
#1629 = DIRECTION('',(1.,0.,0.));
#1630 = DIRECTION('',(-0.,0.,1.));
#1631 = ( GEOMETRIC_REPRESENTATION_CONTEXT(3) 
GLOBAL_UNCERTAINTY_ASSIGNED_CONTEXT((#1635)) 
GLOBAL_UNIT_ASSIGNED_CONTEXT((#1632,#1633,#1634)) REPRESENTATION_CONTEXT
('Context #1','3D Context with UNIT and UNCERTAINTY') );
#1632 = ( LENGTH_UNIT() NAMED_UNIT(*) SI_UNIT(.MILLI.,.METRE.) );
#1633 = ( NAMED_UNIT(*) PLANE_ANGLE_UNIT() SI_UNIT($,.RADIAN.) );
#1634 = ( NAMED_UNIT(*) SI_UNIT($,.STERADIAN.) SOLID_ANGLE_UNIT() );
#1635 = UNCERTAINTY_MEASURE_WITH_UNIT(LENGTH_MEASURE(1.E-07),#1632,
  'distance_accuracy_value','confusion accuracy');
#1636 = CONTEXT_DEPENDENT_SHAPE_REPRESENTATION(#1637,#1639);
#1637 = ( REPRESENTATION_RELATIONSHIP('','',#1538,#10) 
REPRESENTATION_RELATIONSHIP_WITH_TRANSFORMATION(#1638) 
SHAPE_REPRESENTATION_RELATIONSHIP() );
#1638 = ITEM_DEFINED_TRANSFORMATION('','',#11,#51);
#1639 = PRODUCT_DEFINITION_SHAPE('Placement','Placement of an item',
  #1640);
#1640 = NEXT_ASSEMBLY_USAGE_OCCURRENCE('10','reference_standoff_1','',#5
  ,#1533,$);
#1641 = PRODUCT_RELATED_PRODUCT_CATEGORY('part',$,(#1535));
#1642 = SHAPE_DEFINITION_REPRESENTATION(#1643,#1649);
#1643 = PRODUCT_DEFINITION_SHAPE('','',#1644);
#1644 = PRODUCT_DEFINITION('design','',#1645,#1648);
#1645 = PRODUCT_DEFINITION_FORMATION('','',#1646);
#1646 = PRODUCT('reference_standoff_2','reference_standoff_2','',(#1647)
  );
#1647 = PRODUCT_CONTEXT('',#2,'mechanical');
#1648 = PRODUCT_DEFINITION_CONTEXT('part definition',#2,'design');
#1649 = ADVANCED_BREP_SHAPE_REPRESENTATION('',(#11,#1650),#1742);
#1650 = MANIFOLD_SOLID_BREP('',#1651);
#1651 = CLOSED_SHELL('',(#1652,#1685,#1705,#1725));
#1652 = ADVANCED_FACE('',(#1653),#1680,.T.);
#1653 = FACE_BOUND('',#1654,.T.);
#1654 = EDGE_LOOP('',(#1655,#1664,#1672,#1679));
#1655 = ORIENTED_EDGE('',*,*,#1656,.F.);
#1656 = EDGE_CURVE('',#1657,#1657,#1659,.T.);
#1657 = VERTEX_POINT('',#1658);
#1658 = CARTESIAN_POINT('',(12.,9.797174393179E-16,4.));
#1659 = CIRCLE('',#1660,4.);
#1660 = AXIS2_PLACEMENT_3D('',#1661,#1662,#1663);
#1661 = CARTESIAN_POINT('',(12.,0.,0.));
#1662 = DIRECTION('',(1.,0.,0.));
#1663 = DIRECTION('',(-0.,0.,1.));
#1664 = ORIENTED_EDGE('',*,*,#1665,.F.);
#1665 = EDGE_CURVE('',#1666,#1657,#1668,.T.);
#1666 = VERTEX_POINT('',#1667);
#1667 = CARTESIAN_POINT('',(0.,9.797174393179E-16,4.));
#1668 = LINE('',#1669,#1670);
#1669 = CARTESIAN_POINT('',(0.,9.797174393179E-16,4.));
#1670 = VECTOR('',#1671,1.);
#1671 = DIRECTION('',(1.,0.,0.));
#1672 = ORIENTED_EDGE('',*,*,#1673,.T.);
#1673 = EDGE_CURVE('',#1666,#1666,#1674,.T.);
#1674 = CIRCLE('',#1675,4.);
#1675 = AXIS2_PLACEMENT_3D('',#1676,#1677,#1678);
#1676 = CARTESIAN_POINT('',(0.,0.,0.));
#1677 = DIRECTION('',(1.,0.,0.));
#1678 = DIRECTION('',(-0.,0.,1.));
#1679 = ORIENTED_EDGE('',*,*,#1665,.T.);
#1680 = CYLINDRICAL_SURFACE('',#1681,4.);
#1681 = AXIS2_PLACEMENT_3D('',#1682,#1683,#1684);
#1682 = CARTESIAN_POINT('',(0.,0.,0.));
#1683 = DIRECTION('',(1.,0.,0.));
#1684 = DIRECTION('',(-0.,0.,1.));
#1685 = ADVANCED_FACE('',(#1686,#1689),#1700,.T.);
#1686 = FACE_BOUND('',#1687,.T.);
#1687 = EDGE_LOOP('',(#1688));
#1688 = ORIENTED_EDGE('',*,*,#1656,.T.);
#1689 = FACE_BOUND('',#1690,.T.);
#1690 = EDGE_LOOP('',(#1691));
#1691 = ORIENTED_EDGE('',*,*,#1692,.F.);
#1692 = EDGE_CURVE('',#1693,#1693,#1695,.T.);
#1693 = VERTEX_POINT('',#1694);
#1694 = CARTESIAN_POINT('',(12.,5.265981236334E-16,2.15));
#1695 = CIRCLE('',#1696,2.15);
#1696 = AXIS2_PLACEMENT_3D('',#1697,#1698,#1699);
#1697 = CARTESIAN_POINT('',(12.,0.,0.));
#1698 = DIRECTION('',(1.,0.,0.));
#1699 = DIRECTION('',(-0.,0.,1.));
#1700 = PLANE('',#1701);
#1701 = AXIS2_PLACEMENT_3D('',#1702,#1703,#1704);
#1702 = CARTESIAN_POINT('',(12.,0.,0.));
#1703 = DIRECTION('',(1.,0.,0.));
#1704 = DIRECTION('',(-0.,0.,1.));
#1705 = ADVANCED_FACE('',(#1706,#1709),#1720,.F.);
#1706 = FACE_BOUND('',#1707,.F.);
#1707 = EDGE_LOOP('',(#1708));
#1708 = ORIENTED_EDGE('',*,*,#1673,.T.);
#1709 = FACE_BOUND('',#1710,.F.);
#1710 = EDGE_LOOP('',(#1711));
#1711 = ORIENTED_EDGE('',*,*,#1712,.F.);
#1712 = EDGE_CURVE('',#1713,#1713,#1715,.T.);
#1713 = VERTEX_POINT('',#1714);
#1714 = CARTESIAN_POINT('',(0.,5.265981236334E-16,2.15));
#1715 = CIRCLE('',#1716,2.15);
#1716 = AXIS2_PLACEMENT_3D('',#1717,#1718,#1719);
#1717 = CARTESIAN_POINT('',(0.,0.,0.));
#1718 = DIRECTION('',(1.,0.,0.));
#1719 = DIRECTION('',(-0.,0.,1.));
#1720 = PLANE('',#1721);
#1721 = AXIS2_PLACEMENT_3D('',#1722,#1723,#1724);
#1722 = CARTESIAN_POINT('',(0.,0.,0.));
#1723 = DIRECTION('',(1.,0.,0.));
#1724 = DIRECTION('',(-0.,0.,1.));
#1725 = ADVANCED_FACE('',(#1726),#1737,.F.);
#1726 = FACE_BOUND('',#1727,.F.);
#1727 = EDGE_LOOP('',(#1728,#1729,#1735,#1736));
#1728 = ORIENTED_EDGE('',*,*,#1692,.F.);
#1729 = ORIENTED_EDGE('',*,*,#1730,.F.);
#1730 = EDGE_CURVE('',#1713,#1693,#1731,.T.);
#1731 = LINE('',#1732,#1733);
#1732 = CARTESIAN_POINT('',(-1.,5.265981236334E-16,2.15));
#1733 = VECTOR('',#1734,1.);
#1734 = DIRECTION('',(1.,0.,0.));
#1735 = ORIENTED_EDGE('',*,*,#1712,.T.);
#1736 = ORIENTED_EDGE('',*,*,#1730,.T.);
#1737 = CYLINDRICAL_SURFACE('',#1738,2.15);
#1738 = AXIS2_PLACEMENT_3D('',#1739,#1740,#1741);
#1739 = CARTESIAN_POINT('',(-1.,0.,0.));
#1740 = DIRECTION('',(1.,0.,0.));
#1741 = DIRECTION('',(-0.,0.,1.));
#1742 = ( GEOMETRIC_REPRESENTATION_CONTEXT(3) 
GLOBAL_UNCERTAINTY_ASSIGNED_CONTEXT((#1746)) 
GLOBAL_UNIT_ASSIGNED_CONTEXT((#1743,#1744,#1745)) REPRESENTATION_CONTEXT
('Context #1','3D Context with UNIT and UNCERTAINTY') );
#1743 = ( LENGTH_UNIT() NAMED_UNIT(*) SI_UNIT(.MILLI.,.METRE.) );
#1744 = ( NAMED_UNIT(*) PLANE_ANGLE_UNIT() SI_UNIT($,.RADIAN.) );
#1745 = ( NAMED_UNIT(*) SI_UNIT($,.STERADIAN.) SOLID_ANGLE_UNIT() );
#1746 = UNCERTAINTY_MEASURE_WITH_UNIT(LENGTH_MEASURE(1.E-07),#1743,
  'distance_accuracy_value','confusion accuracy');
#1747 = CONTEXT_DEPENDENT_SHAPE_REPRESENTATION(#1748,#1750);
#1748 = ( REPRESENTATION_RELATIONSHIP('','',#1649,#10) 
REPRESENTATION_RELATIONSHIP_WITH_TRANSFORMATION(#1749) 
SHAPE_REPRESENTATION_RELATIONSHIP() );
#1749 = ITEM_DEFINED_TRANSFORMATION('','',#11,#55);
#1750 = PRODUCT_DEFINITION_SHAPE('Placement','Placement of an item',
  #1751);
#1751 = NEXT_ASSEMBLY_USAGE_OCCURRENCE('11','reference_standoff_2','',#5
  ,#1644,$);
#1752 = PRODUCT_RELATED_PRODUCT_CATEGORY('part',$,(#1646));
ENDSEC;
END-ISO-10303-21;
